<?xml version="1.0" encoding="UTF-8"?>
<svg id="Layer_1" data-name="Layer 1" xmlns="http://www.w3.org/2000/svg" viewBox="0 0 121.87 120.93">
    <defs>
        <style>
            .cls-1 {
            stroke-width: 0px;
            }
        </style>
    </defs>
    <path class="cls-1"
          d="m121.87,59.44c0,9.04-1.53,15.85-4.01,22.62-2.09,5.7-4.88,10.95-8.58,15.58-4.88,6.12-10.58,11.43-17.59,15.36-4.55,2.55-9.2,4.59-14.14,6.09-2.04.62-4.13,1.13-6.23,1.5-.84.15-1.77-.18-2.66-.3.19-.85.17-1.84.62-2.51,1.05-1.58,1.53-3.23,1.44-5.11-.15-2.99.41-6.04-1.25-8.84-2.09-3.52-4.76-6.39-8.39-8.41-1.85-1.03-3.55-2.39-5.19-3.76-5.62-4.71-9.92-10.48-13.3-16.96-2.16-4.13-2.94-8.63-3.24-13.17-.28-4.32-.54-8.75.13-12.99.57-3.62,2.27-7.11,3.83-10.5,1.5-3.26,3.13-6.55,5.29-9.37,2.12-2.77,4.77-5.25,7.57-7.35,4-2.99,8.25-5.64,13.16-7.09,6.39-1.88,12.94-2.79,19.43-1.52,5.66,1.11,11.06,3.18,15.88,6.81,5.44,4.1,8.44,9.81,11.45,15.5,4.32,8.17,5.34,17.18,5.76,24.42Z"/>
    <path class="cls-1"
          d="m32.68,57.51c.03,9.99,3.09,18.95,8.68,27.12.11.17.26.32.33.5.32.82.63,1.65.94,2.48-.94-.14-1.94-.13-2.8-.46-1.87-.71-3.64-1.7-5.53-2.39-8.6-3.16-16.1-8.01-22.01-15.01-4.85-5.74-7.85-12.42-8.47-20.04-.63-7.63,1.37-14.75,5.28-21.07,5.48-8.85,12.84-16.12,22.08-21.06,6.97-3.73,14.37-6.42,22.41-7.23,7.01-.71,13.91-.36,20.77.92,3.15.59,6.22,1.65,9.31,2.55.49.14,1.02.43,1.36.81.74.81.52,1.49-.54,1.77-.44.12-.94.12-1.4.07-9.79-1.07-18.4,2.14-26.64,7.07-8.87,5.31-14.79,13.04-18.9,22.28-1.62,3.65-3.12,7.43-4.01,11.3-.77,3.35-.61,6.92-.86,10.39Z"/>
    <path class="cls-1"
          d="m53.53,120.89c-5.65-.66-11.21-1.82-16.42-4.23-2.98-1.38-6.02-2.7-8.76-4.46-4.51-2.9-8.66-6.33-12.15-10.42-2.38-2.79-4.77-5.62-6.73-8.71-3.53-5.56-6.05-11.62-7.54-18.06-.71-3.06-1.32-6.14-1.9-9.23-.1-.52.19-1.1.3-1.66.48.26,1.15.4,1.42.8,1.36,1.98,2.7,3.99,3.91,6.06,2.39,4.09,5.95,7.02,9.51,9.97,6.71,5.55,14.52,9.01,22.59,12.03,6.71,2.51,13.37,5.14,19.99,7.87,4.3,1.78,7,5.12,7.24,9.79.1,1.89-.73,4.14-1.85,5.71-2.25,3.15-5.5,4.85-9.59,4.53Z"/>
</svg>
