<?xml version="1.0" encoding="UTF-8"?>
<svg id="Layer_1" data-name="Layer 1" xmlns="http://www.w3.org/2000/svg" viewBox="0 0 366.8834 216.8438">
    <defs>
        <style>
            .cls-1 {
            fill: #161616;
            }

            .cls-1, .cls-2, .cls-3, .cls-4 {
            stroke-width: 0px;
            }

            .cls-2 {
            fill: #161717;
            }

            .cls-3 {
            fill: #ad9d7e;
            }

            .cls-4 {
            fill: #f3b123;
            }
        </style>
    </defs>
    <g>
        <path class="cls-4"
              d="m296.7925,45.2533c-9.1313,5.2717-18.2312,10.5253-27.2999,15.7609-.1228.3252-.0415.5973.0108.8622.8699,4.4095,1.9101,8.7783,3.1538,13.0977.366,1.2711.7422,2.5395,1.1331,3.8032.3158,1.0208.6887,2.0245.9852,3.0505.3423,1.1849.8321,2.3167,1.1995,3.4942.2751.8816.6332,1.7516.9767,2.6138.3344.8395.7001,1.6738,1.0426,2.5133,3.8834,9.5201,8.8936,18.8856,14.8301,27.4535,3.2905,4.749,6.8844,9.257,10.7594,13.5425,2.7051,2.9918,5.5218,5.8723,8.4951,8.5985,2.2392,2.0531,4.5512,4.0214,6.9213,5.9215.1481.1187.3119.2179.4611.3211.6689-.5683,2.2942-2.8811,5.2722-7.5156,1.6553-2.5761,3.2232-5.2056,4.7697-7.9542,1.2052,1.436,2.2643,2.9014,3.3542,4.3413,1.1161,1.4745,2.2174,2.9604,3.3116,4.4512,1.0772,1.4675,2.1375,2.9475,3.1733,4.3778.0145.2785-.1275.4245-.2259.5849-4.3847,7.1405-9.2677,13.9216-14.6916,20.3094-3.1828,3.7484-6.5273,7.3487-10.0715,10.7591-3.5272,3.394-7.3229,6.469-11.2721,9.3548-1.9609,1.4329-3.9563,2.8186-5.9372,4.224-.1328.0942-.2757.1743-.4432.2792-1.0888-.7733-2.1733-1.5325-3.2462-2.3076-4.2322-3.0573-8.3299-6.2836-12.2243-9.7637-3.1324-2.7992-6.0853-5.7793-8.9043-8.8923-3.2449-3.5833-6.3252-7.3032-9.228-11.1694-3.0846-4.1084-5.96-8.3588-8.6442-12.7388-.0998-.1628-.189-.3322-.3118-.5491.7368-1.1561,1.5914-2.2344,2.3903-3.3503.7873-1.0996,1.6002-2.1809,2.4079-3.2657.8242-1.1071,1.6506-2.2126,2.4857-3.3115.8133-1.0701,1.6058-2.1576,2.4375-3.1457.3382.0184.386.2292.4775.3904,1.8403,3.241,3.7746,6.4248,5.8475,9.5222,1.1051,1.6512,2.2542,3.2729,3.3857,4.9064.1086.1568.2335.3024.3867.4994.8291-.4727,1.4991-1.1212,2.2185-1.699.7101-.5703,1.4019-1.1638,2.093-1.7573.7121-.6114,1.4179-1.2304,2.1187-1.8548.6794-.6053,1.349-1.2217,2.006-1.818.2932.0217.3947.2392.5267.401,2.5666,3.1464,5.2514,6.1882,8.0584,9.1221.5329.557,1.064,1.1157,1.6277,1.707-.6407.8014-1.4391,1.3898-2.1566,2.0576-.7272.6768-1.4875,1.3183-2.2419,1.9652-.7335.629-1.4746,1.2491-2.2182,1.8661-.7631.6332-1.5334,1.2577-2.2942,1.8809.3954.7371,2.9638,3.461,6.251,6.617,2.1869,2.0995,4.4291,4.1379,6.8141,6.1164,4.6819-3.9166,9.035-8.0891,13.0632-12.5764-.0954-.3176-.3315-.4231-.518-.5712-5.4799-4.3531-10.5972-9.102-15.3768-14.2093-8.6074-9.1974-15.8874-19.3604-21.9754-30.3832-2.2955-4.1562-4.3972-8.408-6.3263-12.7462-.9385-2.1103-1.8155-4.2456-2.6624-6.3938-3.0832-7.8205-5.242-15.0091-7.0464-22.5334-.8988-3.7481-1.641-7.5288-2.2517-11.3357-.1079-.6725-.1083-1.3744-.4107-2.0133-.0542-.1144-.0345-.2698-.0288-.4055.0174-.4165-.0304-.8246-.1119-1.2327-.2256-1.1304-.2684-2.2807-.4173-3.4654,14.6932-8.4862,29.3595-16.9569,44.0571-25.4457,14.6269,8.4474,29.2481,16.8916,43.9174,25.3635.0096.5048.0557.9971-.0722,1.5258-.1189.4912-.1669,1.0163-.2084,1.5259-.0379.4656-.0517.9306-.1313,1.3949-.1716,1.0002-.1897,2.0278-.5455,2.9946.0628.7841-.1795,1.528-.2994,2.2882-.2174,1.3782-.5927,2.7268-.8207,4.0988-.3122,1.8785-.7654,3.7215-1.2023,5.5695-1.575,6.6622-3.6195,13.1813-6.0279,19.5872-.5116,1.3609-1.0549,2.7102-1.6028,4.057-.4855,1.1933-.9863,2.3807-1.5005,3.5619-1.2191,2.8006-2.501,5.5723-3.8767,8.2998-1.3671,2.7103-2.7997,5.3856-4.314,8.0169-1.5284,2.6558-3.1345,5.2637-4.8175,7.8242-1.4254,2.1686-2.915,4.2924-4.4545,6.3813-.097.1316-.2136.2486-.3606.418-3.6299-3.7532-6.9826-7.701-10.0565-11.8179.0035-.3427.1992-.5174.3378-.7183,3.7195-5.3914,7.0661-11.0035,10.0068-16.8576,1.1395-2.2685,2.2511-4.5521,3.2326-6.8914.5469-1.3035,1.2382-2.5527,1.596-3.9339,3.0445-7.0779,5.2727-14.421,7.0818-21.8973.5313-2.1955.9756-4.412,1.4544-6.6201.0461-.2125.0531-.4334.0862-.7186-9.1196-5.2721-18.2399-10.5352-27.3884-15.8138Z"/>
        <path class="cls-4"
              d="m325.8826,117.1822c1.3628-2.449,2.6593-4.8808,3.8892-7.3476,1.2127-2.4322,2.3439-4.9033,3.4492-7.4028,1.2744.9337,9.9936,11.7128,17.291,21.4005,5.4972,7.2978,10.695,14.8069,15.7236,22.4174-.7251,1.0944-7.0605,6.3589-11.234,9.2571-3.9729,2.7589-8.0989,5.2587-12.4234,7.4252-4.3322,2.1703-8.7993,4.013-13.457,5.4733-.0593-.0585-.1165-.1149-.1432-.1413.8183-.9858,1.6185-1.9297,2.3972-2.8911,5.2559-6.4887,9.9636-13.3578,14.2263-20.5349q.3869-.6514.3746-1.2626c-6.3239-9.0417-13.0184-17.8468-20.0936-26.3932Z"/>
        <path class="cls-4"
              d="m264.4572,168.2993c-.2872.0802-.5341-.0586-.7925-.1425-9.7604-3.1687-18.2838-7.8677-25.2201-12.7383-3.7098-2.6049-7.2252-5.4507-10.5801-8.497-.1827-.1659-.3758-.3204-.5358-.4561.5322-1.4357,9.5372-14.3874,15.6939-22.6168,5.487-7.3343,11.1865-14.4973,17.2403-21.5164,1.191,2.6073,2.3235,5.1158,3.554,7.5775,1.2203,2.4413,2.5007,4.8508,3.8581,7.2694-7.1258,8.603-13.8691,17.4732-20.2263,26.5947-.0196.2837.1454.4495.2541.6342,3.7562,6.3809,7.8723,12.5197,12.418,18.366,1.2703,1.6337,2.6002,3.221,3.901,4.831.1709.2115.3871.3929.4655.6692l-.0302.0252Z"/>
        <path class="cls-4"
              d="m352.9467,117.4349c-.2642-.2314-10.4542-12.9644-10.9703-13.6912-.026-.3802.1748-.7246.302-1.0814,1.4252-4.0003,2.7216-8.0417,3.9117-12.1179,1.3521-4.6312,2.5273-9.3074,3.584-14.0139.0417-.186.0493-.3797.0811-.6373-2.1305-1.2931-4.3318-2.4845-6.4399-3.7497-.0955-.2475-.0162-.4287.0248-.6161.3344-1.5292.6287-3.0672.9483-4.5987.3148-1.5086.6068-3.0201.8603-4.5386.1676-1.0037.3199-2.012.4642-3.0196.1468-1.025.2447-2.0692.5038-3.0832.6212.2138,19.2347,10.8865,20.6667,11.8504-.1555,1.6608-.5926,3.3074-.8555,4.9809-.267,1.7-.6381,3.3845-.9951,5.0692-.3532,1.6669-.7344,3.328-1.1241,4.9868-.3908,1.6633-.7903,3.3249-1.217,4.9792-.4336,1.6809-.8914,3.3559-1.3636,5.0264-.4648,1.6444-.944,3.2851-1.4481,4.9178-.5023,1.6268-1.0315,3.2457-1.5709,4.8607-.5394,1.6149-1.096,3.2242-1.6634,4.8294-.5774,1.6335-1.2113,3.2462-1.8269,4.8653-.6063,1.5946-1.2569,3.1676-1.872,4.7814Z"/>
        <path class="cls-4"
              d="m226.6455,68.1516c1.9275-1.2552,20.0657-11.6695,20.7147-11.893.2267.8245.3146,1.6726.3731,2.5117.0347.4976.1761.9641.232,1.4506.084.7301.1815,1.4592.2958,2.1851.0805.5115.2471,1.0043.335,1.518.2183,1.2762.4976,2.5418.7274,3.8162.2439,1.3525.5923,2.6809.8866,4.0217.0172.0785.0022.164.0022.3322-2.1252,1.2293-4.2902,2.4816-6.4272,3.7177.0109,1.1988,1.8223,8.6215,3.4009,14.0977,1.3322,4.6214,2.8114,9.195,4.4613,13.7701-3.7195,4.5215-7.3862,9.0677-10.9683,13.8112-.7307-1.6628-1.3635-3.2451-1.9671-4.8394-.6125-1.6179-1.2415-3.2298-1.8036-4.8665-.5551-1.6161-1.1308-3.2253-1.6709-4.8464-.5401-1.6209-1.0614-3.2485-1.565-4.8811-.5097-1.6522-1.0043-3.3096-1.4749-4.9733-.4631-1.6373-.9046-3.2813-1.3248-4.9302-.4218-1.6553-.8165-3.3178-1.203-4.9817-.3855-1.6592-.7637-3.3205-1.1129-4.9875-.3549-1.6945-.6553-3.4004-1.0077-5.0954-.3443-1.6563-.4963-3.342-.9034-4.9375Z"/>
        <path class="cls-4"
              d="m296.7547,66.1615c5.7151,4.6722,11.1191,9.5415,16.3435,14.6537-1.7765,5.2224-3.8738,10.2535-6.2517,15.2812-3.307-3.3472-6.614-6.5758-10.0651-9.701-1.2264,1.0106-2.318,2.0982-3.436,3.1557-1.1226,1.0619-2.2316,2.1382-3.3344,3.2207-1.0965,1.0763-2.1777,2.1681-3.3384,3.3257-2.4311-5.0265-4.4542-10.1034-6.2788-15.2827,5.2353-5.0841,10.6436-9.9848,16.3609-14.6533Z"/>
        <path class="cls-4"
              d="m264.4874,168.2741c.0385.0307.0769.0614.1164.0929-.0832.0496-.1513.0698-.1466-.0677l.0302-.0252Z"/>
    </g>
    <g>
        <path class="cls-3"
              d="m15.8776,31.8865C33.5428,21.6752,51.1128,11.5188,68.6829,1.3624c.1197-.0692.2391-.1379.4785-.11.4789.7614.9864,1.5717,1.4974,2.3799.5167.8172,1.109,1.5793,1.7134,2.3321.6056.7543,1.2758,1.4491,1.9589,2.1332.6825.6834,1.4137,1.3077,2.2012,1.9395,5.7779-3.3404,11.5487-6.6768,17.3608-10.037,2.762,1.5588,5.4704,3.1457,8.1916,4.7096,2.724,1.5655,5.4426,3.1402,8.1453,4.7003.4098-.0961.6565-.3599.9208-.5988,2.2737-2.0548,4.1302-4.4373,5.6022-7.1229.1171-.2137.1885-.4625.4175-.6078.3051-.0715.5244.1319.7549.2628,1.1989.6809,2.3895,1.3765,3.5837,2.0657,2.0063,1.1579,4.013,2.3152,6.0199,3.4723,2.2935,1.3223,4.5875,2.6435,6.8808,3.9661,2.0067,1.1574,4.0123,2.3164,6.0188,3.4741,2.3169,1.3368,4.634,2.6733,6.9516,4.0091,2.0069,1.1568,4.0143,2.3128,6.0219,3.4683,2.0078,1.1556,4.0164,2.3095,6.024,3.4654,2.0313,1.1696,4.0622,2.3399,6.0922,3.5117,1.79,1.0333,3.5785,2.0691,5.4011,3.1231.6344,4.5507,1.2678,9.0948,1.9038,13.6571,5.0097,2.9244,10.041,5.7784,14.9855,8.6702.0841.8232.0803,107.7236.0001,108.4931-4.9589,2.8636-9.9454,5.7431-14.9439,8.6295-.6485,4.5513-1.2921,9.0681-1.9322,13.56-.0303.0459-.0441.0696-.0607.091-.0168.0218-.0327.0478-.0554.0609-17.5394,10.1577-35.0794,20.3144-52.6195,30.4709-.0716.0415-.1436.0832-.2188.1173-.0496.0225-.1051.0326-.1585.0464-.0266.0069-.0545.0135-.0816.0129-.0266-.0005-.0531-.0104-.0915-.0187-.2471-.0991-.3264-.3501-.443-.5628-1.4865-2.7134-3.4101-5.078-5.6957-7.1547-.2639-.2398-.5121-.5023-.9488-.6456-5.4964,3.1646-11.0351,6.3537-16.5295,9.5171-.4181-.0067-.6858-.2252-.9663-.3862-4.0181-2.3062-8.0319-4.62-12.0447-6.9354-1.1942-.6891-2.3811-1.391-3.5747-2.0811-.1884-.1089-.3705-.2462-.72-.2544-2.9765,2.3263-5.2305,5.3517-7.0558,8.6501-.4247.0869-.666-.1305-.9217-.2757-1.175-.6673-2.3435-1.3461-3.5133-2.0225-2.268-1.3113-4.5345-2.6251-6.8031-3.9353-2.4836-1.4343-4.9682-2.8667-7.4537-4.2977-2.6767-1.541-5.3567-3.0763-8.0322-4.6194-2.6755-1.5431-5.3453-3.0961-8.0212-4.6386-2.4131-1.391-4.8329-2.7703-7.2461-4.1609-2.2699-1.308-4.5338-2.6263-6.8028-3.9357-1.6473-.9506-3.2985-1.8943-4.9953-2.8682-.2401-1.1704-.3708-2.3687-.5236-3.5641-.1534-1.2004-.3273-2.3981-.4948-3.5967-.1637-1.1713-.3267-2.3427-.4972-3.513-.1745-1.197-.3578-2.3927-.5518-3.6859-4.5674-2.6398-9.1929-5.3131-13.8111-7.9822V54.212c4.6056-2.6611,9.2087-5.3208,13.8318-7.992.6827-4.7828,1.3618-9.5412,2.0459-14.3335Zm168.7275,128.8096c.0975-.595.0916-1.1194.0916-1.6439-.0007-33.7161-.0006-67.4321-.0006-101.1482,0-.2209.0101-.4424-.0023-.6626-.0231-.4092-.0593-.8177-.0908-1.2365-12.3594-7.1355-24.6823-14.2553-37.0106-21.3658-12.3247-7.1085-24.6416-14.2307-36.9682-21.3294-5.151,3.6385-10.819,5.5627-17.0573,5.6393-6.2602.0769-12.0308-1.6262-17.2465-5.1347C51.9134,27.9062,27.5477,41.9744,3.1812,56.043v104.8325c24.4734,14.1299,48.9316,28.2512,73.3787,42.366,5.2216-3.5403,10.9288-5.3212,17.1767-5.2987,6.2767.0225,11.9904,1.8783,17.1142,5.4144.4474-.1248.7694-.3431,1.1027-.5349,1.6019-.9224,3.1999-1.8515,4.8013-2.7747,4.5175-2.604,9.0374-5.2037,13.5536-7.8099,5.1373-2.9647,10.2699-5.9377,15.4077-8.9015,6.3328-3.6532,12.6704-7.2981,19.0031-10.9515,6.3565-3.6672,12.7089-7.3416,19.0664-11.0073.3153-.1818.6005-.3845.8196-.6813Zm-165.8345,22.3548c16.4626,9.481,32.8985,18.9468,49.336,28.4099.0907.0523.203.0672.4109.1329.0418-.0744.091-.1746.1513-.2676,1.3287-2.0498,2.9411-3.8569,4.7202-5.5222.1345-.1259.3254-.2246.3087-.5346-18.467-10.6585-36.9686-21.3374-55.4729-32.0115-.2313-.1334-.4492-.3258-.8497-.3158.167,1.1212.3697,2.2213.461,3.3283.0928,1.1259.3706,2.2141.5013,3.3286.1313,1.1195.28,2.237.4332,3.4519Zm-1.4102-139.0331c.4225-.0689.6922-.265.9705-.4251,1.6014-.9212,3.1957-1.8545,4.7963-2.7771,2.6997-1.5561,5.4042-3.1038,8.1032-4.6612,3.0332-1.7502,6.0604-3.5108,9.094-5.2603,3.0815-1.7772,6.1705-3.5415,9.2511-5.3202,3.7013-2.1371,7.3951-4.2873,11.0962-6.4247,4.1073-2.372,8.2192-4.736,12.329-7.1037.1626-.0937.363-.1512.3872-.4491-.9512-.9039-1.9315-1.834-2.8347-2.8378-.9195-1.0219-1.7145-2.1445-2.4769-3.2221-.1377,0-.1934-.007-.2463.0019-.0536.009-.1072.0284-.1561.0526-.1236.0612-.247.1234-.3663.1926-16.1504,9.3619-32.3005,18.7244-48.4499,28.0879-.0223.0129-.0369.0408-.0521.0638-.015.0227-.0261.0479-.0288.0532-.2452,1.6795-.5046,3.3367-.7248,4.9992-.2193,1.6555-.5075,3.303-.6916,5.0301Zm101.4014,167.5432c16.4464-9.5271,32.8289-19.0171,49.1961-28.4983.4547-3.1887.8997-6.3098,1.3438-9.424-.1194-.0294-.1861-.0694-.2189-.0505-18.271,10.5315-36.54,21.0667-54.8057,31.6075-.1809.1044-.4159.1714-.5286.5282.939.7685,1.7758,1.7098,2.6147,2.6481.8643.9667,1.6218,2.018,2.3987,3.1889Zm-5.3899-200.418c.4278.4471.9056.6137,1.3262.8592,2.3094,1.3479,4.6276,2.6808,6.9431,4.0182,2.0053,1.1583,4.0114,2.3152,6.0167,3.4736,1.9097,1.1032,3.8187,2.2075,5.7282,3.3111,2.0288,1.1726,4.0574,2.3455,6.0868,3.517,1.91,1.1026,3.8215,2.2027,5.7314,3.3054,2.0055,1.1579,4.01,2.3176,6.0149,3.4766,2.2435,1.297,4.4866,2.5945,6.7303,3.8911,2.3391,1.3518,4.6783,2.7036,7.0183,4.054,1.2655.7303,2.5325,1.4582,3.7995,2.1858.1533.088.3024.2048.5198.1692-.4471-3.2005-.8875-6.353-1.3286-9.5105-16.2761-9.3824-32.5156-18.744-48.756-28.1039-.2384-.1374-.4877-.256-.7327-.3817-.0237-.0122-.0535-.0167-.0806-.0169-.0266-.0002-.0533.0097-.1604.0318-1.3744,2.0242-2.9648,3.9499-4.8568,5.7199Zm-19.516,202.0746c.1498-.048.2349-.0596.3036-.0995,4.4823-2.5994,8.9633-5.2009,13.4437-7.8036.0211-.0123.0359-.0405.0465-.0645.011-.0247.0132-.0533.0195-.0806-.0956-.185-.2861-.2491-.4485-.347-1.0882-.6561-2.2277-1.21-3.4012-1.6948-3.0375-1.2548-6.2118-1.873-9.4853-2.0032-.825-.0328-1.6502.0247-2.477.0804-1.5449.104-3.0628.339-4.5641.7025-2.3983.5808-4.6661,1.495-6.8182,2.6968-.2236.1248-.5114.2036-.6318.5346,4.6994,2.7094,9.3748,5.405,14.0127,8.0789Zm.0664-209.5522c-4.3351,2.5051-8.6313,4.9866-12.9259,7.471-.4287.248-.8476.5132-1.27.772-.022.0135-.0418.0394-.0503.0638-.0086.0246-.0019.0546-.0019.0849.0654.1679.2247.2288.367.3063.8724.4749,1.7567.926,2.6724,1.3127,1.1183.4723,2.2571.8905,3.4384,1.1731,1.1709.2801,2.3255.6154,3.5427.711,1.0425.0818,2.0839.2264,3.1293.2349,2.0169.0164,4.0164-.1934,5.9892-.6225,2.9353-.6384,5.6851-1.7418,8.2454-3.3142.1332-.0818.3026-.1437.2904-.4328-4.4229-2.5563-8.8827-5.1339-13.4267-7.7602Z"/>
        <path class="cls-1"
              d="m184.6052,160.6961c-.2192.2968-.5043.4995-.8196.6813-6.3574,3.6657-12.7098,7.3402-19.0664,11.0073-6.3327,3.6534-12.6703,7.2983-19.0031,10.9515-5.1378,2.9638-10.2704,5.9368-15.4077,8.9015-4.5162,2.6062-9.0362,5.2059-13.5536,7.8099-1.6014.9231-3.1994,1.8522-4.8013,2.7747-.3333.1919-.6552.4101-1.1027.5349-5.1238-3.536-10.8375-5.3919-17.1142-5.4144-6.2479-.0224-11.9551,1.7584-17.1767,5.2987-24.4471-14.1148-48.9053-28.236-73.3787-42.366V56.043c24.3665-14.0686,48.7322-28.1368,73.1391-42.2287,5.2157,3.5085,10.9863,5.2116,17.2465,5.1347,6.2383-.0766,11.9063-2.0008,17.0573-5.6393,12.3266,7.0986,24.6435,14.2209,36.9682,21.3294,12.3283,7.1105,24.6512,14.2303,37.0106,21.3658.0315.4188.0678.8273.0908,1.2365.0124.2202.0023.4417.0023.6626,0,33.7161,0,67.4321.0006,101.1482,0,.5245.0059,1.0489-.0916,1.6439Zm-123.0121,7.6032c-.0047.1375.0634.1173.1466.0677-.0395-.0315-.0779-.0622-.1164-.0929-.0785-.2763-.2946-.4576-.4655-.6692-1.3008-1.61-2.6307-3.1973-3.901-4.831-4.5457-5.8463-8.6617-11.9851-12.418-18.366-.1087-.1847-.2737-.3505-.2541-.6342,6.3572-9.1215,13.1005-17.9917,20.2263-26.5947-1.3575-2.4186-2.6378-4.8281-3.8581-7.2694-1.2305-2.4617-2.363-4.9702-3.554-7.5775-6.0538,7.0191-11.7533,14.1821-17.2403,21.5164-6.1567,8.2294-15.1617,21.181-15.6939,22.6168.1599.1357.353.2902.5358.4561,3.3549,3.0464,6.8704,5.8921,10.5801,8.497,6.9363,4.8706,15.4597,9.5695,25.2201,12.7383.2584.0839.5052.2228.7925.1425Zm32.3353-123.046c9.1485,5.2786,18.2688,10.5417,27.3884,15.8138-.0331.2852-.0402.5062-.0862.7186-.4787,2.2081-.9231,4.4246-1.4544,6.6201-1.8092,7.4763-4.0374,14.8194-7.0818,21.8973-.3578,1.3811-1.0491,2.6304-1.596,3.9339-.9815,2.3394-2.0931,4.6229-3.2326,6.8914-2.9407,5.854-6.2873,11.4662-10.0068,16.8576-.1386.2009-.3343.3756-.3378.7183,3.0739,4.117,6.4266,8.0648,10.0565,11.8179.147-.1693.2636-.2864.3606-.418,1.5395-2.0889,3.0291-4.2128,4.4545-6.3813,1.6831-2.5605,3.2891-5.1684,4.8175-7.8242,1.5143-2.6313,2.9469-5.3066,4.314-8.0169,1.3757-2.7275,2.6576-5.4992,3.8767-8.2998.5142-1.1812,1.015-2.3686,1.5005-3.5619.548-1.3468,1.0912-2.6961,1.6028-4.057,2.4084-6.4059,4.4529-12.925,6.0279-19.5872.4369-1.848.8902-3.691,1.2023-5.5695.228-1.372.6033-2.7206.8207-4.0988.1199-.7603.3622-1.5041.2994-2.2882.3558-.9668.3739-1.9944.5455-2.9946.0797-.4644.0935-.9293.1313-1.3949.0415-.5096.0895-1.0347.2084-1.5259.1279-.5286.0818-1.021.0722-1.5258-14.6693-8.4719-29.2906-16.9161-43.9174-25.3635-14.6976,8.4887-29.3639,16.9594-44.0571,25.4457.1489,1.1847.1917,2.335.4173,3.4654.0815.4082.1293.8162.1119,1.2327-.0057.1356-.0254.291.0288.4055.3024.6389.3028,1.3408.4107,2.0133.6107,3.807,1.3529,7.5876,2.2517,11.3357,1.8043,7.5242,3.9632,14.7128,7.0464,22.5334.8469,2.1482,1.7239,4.2835,2.6624,6.3938,1.9292,4.3381,4.0308,8.5899,6.3263,12.7462,6.0881,11.0228,13.368,21.1858,21.9754,30.3832,4.7797,5.1073,9.8969,9.8562,15.3768,14.2093.1865.1482.4226.2536.518.5712-4.0282,4.4873-8.3813,8.6597-13.0632,12.5764-2.385-1.9785-4.6272-4.0169-6.8141-6.1164-3.2872-3.1559-5.8556-5.8799-6.251-6.617.7608-.6231,1.531-1.2477,2.2942-1.8809.7436-.617,1.4847-1.2371,2.2182-1.8661.7544-.6469,1.5147-1.2885,2.2419-1.9652.7175-.6677,1.5158-1.2562,2.1566-2.0576-.5637-.5912-1.0947-1.15-1.6277-1.707-2.807-2.9339-5.4918-5.9757-8.0584-9.1221-.132-.1618-.2335-.3793-.5267-.401-.6571.5963-1.3266,1.2127-2.006,1.818-.7008.6244-1.4066,1.2433-2.1187,1.8548-.6911.5934-1.3829,1.187-2.093,1.7573-.7195.5778-1.3894,1.2263-2.2185,1.699-.1532-.197-.2781-.3426-.3867-.4994-1.1315-1.6334-2.2807-3.2552-3.3857-4.9064-2.0729-3.0974-4.0073-6.2812-5.8475-9.5222-.0915-.1612-.1393-.372-.4775-.3904-.8317.9881-1.6242,2.0756-2.4375,3.1457-.8351,1.0989-1.6614,2.2044-2.4857,3.3115-.8077,1.0848-1.6206,2.1662-2.4079,3.2657-.7989,1.1159-1.6535,2.1942-2.3903,3.3503.1228.217.212.3863.3118.5491,2.6842,4.3801,5.5595,8.6304,8.6442,12.7388,2.9028,3.8663,5.9831,7.5862,9.228,11.1694,2.819,3.1129,5.7719,6.0931,8.9043,8.8923,3.8943,3.4801,7.9921,6.7064,12.2243,9.7637,1.073.7751,2.1574,1.5343,3.2462,2.3076.1675-.105.3104-.185.4432-.2792,1.9809-1.4054,3.9763-2.7911,5.9372-4.224,3.9491-2.8858,7.7449-5.9608,11.2721-9.3548,3.5442-3.4104,6.8887-7.0106,10.0715-10.7591,5.4239-6.3878,10.3069-13.1689,14.6916-20.3094.0985-.1604.2404-.3064.2259-.5849-1.0358-1.4304-2.0961-2.9103-3.1733-4.3778-1.0943-1.4908-2.1955-2.9767-3.3116-4.4512-1.09-1.4399-2.149-2.9053-3.3542-4.3413-1.5466,2.7486-3.1144,5.3781-4.7697,7.9542-2.978,4.6345-4.6033,6.9473-5.2722,7.5156-.1492-.1032-.313-.2024-.4611-.3211-2.3701-1.9001-4.682-3.8685-6.9213-5.9215-2.9734-2.7262-5.79-5.6067-8.4951-8.5985-3.8749-4.2856-7.4689-8.7935-10.7594-13.5425-5.9365-8.5679-10.9466-17.9334-14.8301-27.4535-.3424-.8395-.7081-1.6738-1.0426-2.5133-.3435-.8622-.7016-1.7322-.9767-2.6138-.3674-1.1775-.8572-2.3093-1.1995-3.4942-.2964-1.026-.6694-2.0297-.9852-3.0505-.3909-1.2637-.7671-2.5321-1.1331-3.8032-1.2437-4.3194-2.2839-8.6882-3.1538-13.0977-.0523-.2648-.1336-.537-.0108-.8622,9.0688-5.2356,18.1686-10.4892,27.2999-15.7609Zm29.0901,71.9289c7.0752,8.5464,13.7697,17.3515,20.0936,26.3932q.0128.6115-.3746,1.2626c-4.2626,7.1772-8.9703,14.0462-14.2263,20.5349-.7787.9614-1.5789,1.9053-2.3972,2.8911.0267.0263.0839.0827.1432.1413,4.6577-1.4603,9.1248-3.303,13.457-5.4733,4.3245-2.1665,8.4505-4.6663,12.4234-7.4252,4.1736-2.8982,10.509-8.1627,11.234-9.2571-5.0286-7.6104-10.2264-15.1196-15.7236-22.4174-7.2974-9.6877-16.0166-20.4667-17.291-21.4005-1.1054,2.4996-2.2365,4.9706-3.4492,7.4028-1.2299,2.4668-2.5264,4.8985-3.8892,7.3476Zm27.064.2526c.6151-1.6137,1.2656-3.1867,1.872-4.7814.6156-1.6191,1.2495-3.2318,1.8269-4.8653.5674-1.6053,1.124-3.2146,1.6634-4.8294.5394-1.615,1.0686-3.2338,1.5709-4.8607.5041-1.6327.9833-3.2734,1.4481-4.9178.4722-1.6705.9301-3.3455,1.3636-5.0264.4267-1.6543.8263-3.316,1.217-4.9792.3897-1.6588.7709-3.32,1.1241-4.9868.357-1.6846.7282-3.3692.9951-5.0692.2628-1.6736.6999-3.3201.8555-4.9809-1.432-.9639-20.0456-11.6366-20.6667-11.8504-.2591,1.014-.357,2.0582-.5038,3.0832-.1443,1.0076-.2967,2.0159-.4642,3.0196-.2535,1.5185-.5455,3.03-.8603,4.5386-.3196,1.5315-.6139,3.0695-.9483,4.5987-.041.1874-.1203.3686-.0248.6161,2.1081,1.2652,4.3095,2.4566,6.4399,3.7497-.0318.2576-.0393.4513-.0811.6373-1.0567,4.7066-2.2319,9.3828-3.584,14.0139-1.1901,4.0762-2.4865,8.1176-3.9117,12.1179-.1271.3568-.328.7011-.302,1.0814.5162.7268,10.7061,13.4597,10.9703,13.6912ZM23.7814,68.1516c.4072,1.5955.5591,3.2811.9034,4.9375.3524,1.6951.6528,3.4009,1.0077,5.0954.3492,1.6671.7274,3.3284,1.1129,4.9875.3866,1.664.7812,3.3264,1.203,4.9817.4202,1.6489.8617,3.2928,1.3248,4.9302.4706,1.6638.9652,3.3211,1.4749,4.9733.5037,1.6326,1.0249,3.2602,1.565,4.8811.5401,1.6211,1.1159,3.2303,1.6709,4.8464.5621,1.6367,1.1911,3.2486,1.8036,4.8665.6036,1.5943,1.2363,3.1766,1.9671,4.8394,3.5821-4.7434,7.2489-9.2897,10.9683-13.8112-1.6499-4.5752-3.1291-9.1487-4.4613-13.7701-1.5785-5.4762-3.39-12.8988-3.4009-14.0977,2.137-1.2361,4.302-2.4884,6.4272-3.7177,0-.1682.015-.2537-.0022-.3322-.2944-1.3408-.6428-2.6691-.8866-4.0217-.2298-1.2744-.5091-2.54-.7274-3.8162-.0879-.5137-.2544-1.0065-.335-1.518-.1143-.726-.2118-1.455-.2958-2.1851-.056-.4866-.1974-.953-.232-1.4506-.0584-.8391-.1464-1.6872-.3731-2.5117-.649.2235-18.7872,10.6378-20.7147,11.893Zm70.1092-1.9901c-5.7172,4.6685-11.1256,9.5692-16.3609,14.6533,1.8246,5.1792,3.8477,10.2561,6.2788,15.2827,1.1607-1.1576,2.2419-2.2494,3.3384-3.3257,1.1027-1.0825,2.2118-2.1588,3.3344-3.2207,1.1179-1.0575,2.2096-2.1451,3.436-3.1557,3.4511,3.1252,6.7582,6.3538,10.0651,9.701,2.3779-5.0277,4.4752-10.0587,6.2517-15.2812-5.2244-5.1122-10.6284-9.9815-16.3435-14.6537Z"/>
        <path class="cls-2"
              d="m93.8559,213.2176c-4.6379-2.674-9.3134-5.3696-14.0127-8.0789.1204-.331.4083-.4098.6318-.5346,2.1521-1.2018,4.4199-2.116,6.8182-2.6968,1.5013-.3636,3.0192-.5985,4.5641-.7025.8267-.0557,1.6519-.1133,2.477-.0804,3.2736.1302,6.4478.7485,9.4853,2.0032,1.1735.4848,2.313,1.0387,3.4012,1.6948.1623.0979.3529.162.4483.3472-.0062.0271-.0084.0557-.0194.0804-.0106.0239-.0254.0522-.0465.0645-4.4804,2.6027-8.9614,5.2043-13.4437,7.8036-.0687.0399-.1538.0515-.3036.0995Z"/>
        <path class="cls-2"
              d="m93.9223,3.6654c4.544,2.6263,9.0038,5.2039,13.4267,7.7602.0121.2892-.1572.351-.2904.4328-2.5603,1.5724-5.3101,2.6759-8.2454,3.3142-1.9728.4291-3.9723.6389-5.9892.6225-1.0454-.0085-2.0867-.1531-3.1293-.2349-1.2172-.0956-2.3718-.4309-3.5427-.711-1.1812-.2825-2.3201-.7007-3.4384-1.1731-.9156-.3867-1.8-.8378-2.6724-1.3127-.1423-.0774-.3016-.1384-.367-.3063,0-.0303-.0067-.0603.0019-.0849.0085-.0244.0283-.0503.0503-.0638.4225-.2588.8413-.524,1.27-.772,4.2946-2.4844,8.5908-4.966,12.9259-7.471Z"/>
        <path class="cls-4"
              d="m93.9284,45.2533c-9.1313,5.2717-18.2312,10.5253-27.2999,15.7609-.1228.3252-.0415.5973.0108.8622.8699,4.4095,1.9101,8.7783,3.1538,13.0977.366,1.2711.7422,2.5395,1.1331,3.8032.3158,1.0208.6887,2.0245.9852,3.0505.3423,1.1849.8321,2.3167,1.1995,3.4942.2751.8816.6332,1.7516.9767,2.6138.3344.8395.7001,1.6738,1.0426,2.5133,3.8834,9.5201,8.8936,18.8856,14.8301,27.4535,3.2905,4.749,6.8844,9.257,10.7594,13.5425,2.7051,2.9918,5.5218,5.8723,8.4951,8.5985,2.2392,2.0531,4.5512,4.0214,6.9213,5.9215.1481.1187.3119.2179.4611.3211.6689-.5683,2.2942-2.8811,5.2722-7.5156,1.6553-2.5761,3.2232-5.2056,4.7697-7.9542,1.2052,1.436,2.2643,2.9014,3.3542,4.3413,1.1161,1.4745,2.2174,2.9604,3.3116,4.4512,1.0772,1.4675,2.1375,2.9475,3.1733,4.3778.0145.2785-.1275.4245-.2259.5849-4.3847,7.1405-9.2677,13.9216-14.6916,20.3094-3.1828,3.7484-6.5273,7.3487-10.0715,10.7591-3.5272,3.394-7.3229,6.469-11.2721,9.3548-1.9609,1.4329-3.9563,2.8186-5.9372,4.224-.1328.0942-.2757.1743-.4432.2792-1.0888-.7733-2.1733-1.5325-3.2462-2.3076-4.2322-3.0573-8.3299-6.2836-12.2243-9.7637-3.1324-2.7992-6.0853-5.7793-8.9043-8.8923-3.2449-3.5833-6.3252-7.3032-9.228-11.1694-3.0846-4.1084-5.96-8.3588-8.6442-12.7388-.0998-.1628-.189-.3322-.3118-.5491.7368-1.1561,1.5914-2.2344,2.3903-3.3503.7873-1.0996,1.6002-2.1809,2.4079-3.2657.8242-1.1071,1.6506-2.2126,2.4857-3.3115.8133-1.0701,1.6058-2.1576,2.4375-3.1457.3382.0184.386.2292.4775.3904,1.8403,3.241,3.7746,6.4248,5.8475,9.5222,1.1051,1.6512,2.2542,3.2729,3.3857,4.9064.1086.1568.2335.3024.3867.4994.8291-.4727,1.4991-1.1212,2.2185-1.699.7101-.5703,1.4019-1.1638,2.093-1.7573.7121-.6114,1.4179-1.2304,2.1187-1.8548.6794-.6053,1.349-1.2217,2.006-1.818.2932.0217.3947.2392.5267.401,2.5666,3.1464,5.2514,6.1882,8.0584,9.1221.5329.557,1.064,1.1157,1.6277,1.707-.6407.8014-1.4391,1.3898-2.1566,2.0576-.7272.6768-1.4875,1.3183-2.2419,1.9652-.7335.629-1.4746,1.2491-2.2182,1.8661-.7631.6332-1.5334,1.2577-2.2942,1.8809.3954.7371,2.9638,3.461,6.251,6.617,2.1869,2.0995,4.4291,4.1379,6.8141,6.1164,4.6819-3.9166,9.035-8.0891,13.0632-12.5764-.0954-.3176-.3315-.4231-.518-.5712-5.4799-4.3531-10.5972-9.102-15.3768-14.2093-8.6074-9.1974-15.8874-19.3604-21.9754-30.3832-2.2955-4.1562-4.3972-8.408-6.3263-12.7462-.9385-2.1103-1.8155-4.2456-2.6624-6.3938-3.0832-7.8205-5.242-15.0091-7.0464-22.5334-.8988-3.7481-1.641-7.5288-2.2517-11.3357-.1079-.6725-.1083-1.3744-.4107-2.0133-.0542-.1144-.0345-.2698-.0288-.4055.0174-.4165-.0304-.8246-.1119-1.2327-.2256-1.1304-.2684-2.2807-.4173-3.4654,14.6932-8.4862,29.3595-16.9569,44.0571-25.4457,14.6269,8.4474,29.2481,16.8916,43.9174,25.3635.0096.5048.0557.9971-.0722,1.5258-.1189.4912-.1669,1.0163-.2084,1.5259-.0379.4656-.0517.9306-.1313,1.3949-.1716,1.0002-.1897,2.0278-.5455,2.9946.0628.7841-.1795,1.528-.2994,2.2882-.2174,1.3782-.5927,2.7268-.8207,4.0988-.3122,1.8785-.7654,3.7215-1.2023,5.5695-1.575,6.6622-3.6195,13.1813-6.0279,19.5872-.5116,1.3609-1.0549,2.7102-1.6028,4.057-.4855,1.1933-.9863,2.3807-1.5005,3.5619-1.2191,2.8006-2.501,5.5723-3.8767,8.2998-1.3671,2.7103-2.7997,5.3856-4.314,8.0169-1.5284,2.6558-3.1345,5.2637-4.8175,7.8242-1.4254,2.1686-2.915,4.2924-4.4545,6.3813-.097.1316-.2136.2486-.3606.418-3.6299-3.7532-6.9826-7.701-10.0565-11.8179.0035-.3427.1992-.5174.3378-.7183,3.7195-5.3914,7.0661-11.0035,10.0068-16.8576,1.1395-2.2685,2.2511-4.5521,3.2326-6.8914.5469-1.3035,1.2382-2.5527,1.596-3.9339,3.0445-7.0779,5.2727-14.421,7.0818-21.8973.5313-2.1955.9756-4.412,1.4544-6.6201.0461-.2125.0531-.4334.0862-.7186-9.1196-5.2721-18.2399-10.5352-27.3884-15.8138Z"/>
        <path class="cls-4"
              d="m123.0185,117.1822c1.3628-2.449,2.6593-4.8808,3.8892-7.3476,1.2127-2.4322,2.3439-4.9033,3.4492-7.4028,1.2744.9337,9.9936,11.7128,17.291,21.4005,5.4972,7.2978,10.695,14.8069,15.7236,22.4174-.7251,1.0944-7.0605,6.3589-11.234,9.2571-3.9729,2.7589-8.0989,5.2587-12.4234,7.4252-4.3322,2.1703-8.7993,4.013-13.457,5.4733-.0593-.0585-.1165-.1149-.1432-.1413.8183-.9858,1.6185-1.9297,2.3972-2.8911,5.2559-6.4887,9.9636-13.3578,14.2263-20.5349q.3869-.6514.3746-1.2626c-6.3239-9.0417-13.0184-17.8468-20.0936-26.3932Z"/>
        <path class="cls-4"
              d="m61.5931,168.2993c-.2872.0802-.5341-.0586-.7925-.1425-9.7604-3.1687-18.2838-7.8677-25.2201-12.7383-3.7098-2.6049-7.2252-5.4507-10.5801-8.497-.1827-.1659-.3758-.3204-.5358-.4561.5322-1.4357,9.5372-14.3874,15.6939-22.6168,5.487-7.3343,11.1865-14.4973,17.2403-21.5164,1.191,2.6073,2.3235,5.1158,3.554,7.5775,1.2203,2.4413,2.5007,4.8508,3.8581,7.2694-7.1258,8.603-13.8691,17.4732-20.2263,26.5947-.0196.2837.1454.4495.2541.6342,3.7562,6.3809,7.8723,12.5197,12.418,18.366,1.2703,1.6337,2.6002,3.221,3.901,4.831.1709.2115.3871.3929.4655.6692l-.0302.0252Z"/>
        <path class="cls-4"
              d="m150.0826,117.4349c-.2642-.2314-10.4542-12.9644-10.9703-13.6912-.026-.3802.1748-.7246.302-1.0814,1.4252-4.0003,2.7216-8.0417,3.9117-12.1179,1.3521-4.6312,2.5273-9.3074,3.584-14.0139.0417-.186.0493-.3797.0811-.6373-2.1305-1.2931-4.3318-2.4845-6.4399-3.7497-.0955-.2475-.0162-.4287.0248-.6161.3344-1.5292.6287-3.0672.9483-4.5987.3148-1.5086.6068-3.0201.8603-4.5386.1676-1.0037.3199-2.012.4642-3.0196.1468-1.025.2447-2.0692.5038-3.0832.6212.2138,19.2347,10.8865,20.6667,11.8504-.1555,1.6608-.5926,3.3074-.8555,4.9809-.267,1.7-.6381,3.3845-.9951,5.0692-.3532,1.6669-.7344,3.328-1.1241,4.9868-.3908,1.6633-.7903,3.3249-1.217,4.9792-.4336,1.6809-.8914,3.3559-1.3636,5.0264-.4648,1.6444-.944,3.2851-1.4481,4.9178-.5023,1.6268-1.0315,3.2457-1.5709,4.8607-.5394,1.6149-1.096,3.2242-1.6634,4.8294-.5774,1.6335-1.2113,3.2462-1.8269,4.8653-.6063,1.5946-1.2569,3.1676-1.872,4.7814Z"/>
        <path class="cls-4"
              d="m23.7814,68.1516c1.9275-1.2552,20.0657-11.6695,20.7147-11.893.2267.8245.3146,1.6726.3731,2.5117.0347.4976.1761.9641.232,1.4506.084.7301.1815,1.4592.2958,2.1851.0805.5115.2471,1.0043.335,1.518.2183,1.2762.4976,2.5418.7274,3.8162.2439,1.3525.5923,2.6809.8866,4.0217.0172.0785.0022.164.0022.3322-2.1252,1.2293-4.2902,2.4816-6.4272,3.7177.0109,1.1988,1.8223,8.6215,3.4009,14.0977,1.3322,4.6214,2.8114,9.195,4.4613,13.7701-3.7195,4.5215-7.3862,9.0677-10.9683,13.8112-.7307-1.6628-1.3635-3.2451-1.9671-4.8394-.6125-1.6179-1.2415-3.2298-1.8036-4.8665-.5551-1.6161-1.1308-3.2253-1.6709-4.8464-.5401-1.6209-1.0614-3.2485-1.565-4.8811-.5097-1.6522-1.0043-3.3096-1.4749-4.9733-.4631-1.6373-.9046-3.2813-1.3248-4.9302-.4218-1.6553-.8165-3.3178-1.203-4.9817-.3855-1.6592-.7637-3.3205-1.1129-4.9875-.3549-1.6945-.6553-3.4004-1.0077-5.0954-.3443-1.6563-.4963-3.342-.9034-4.9375Z"/>
        <path class="cls-4"
              d="m93.8906,66.1615c5.7151,4.6722,11.1191,9.5415,16.3435,14.6537-1.7765,5.2224-3.8738,10.2535-6.2517,15.2812-3.307-3.3472-6.614-6.5758-10.0651-9.701-1.2264,1.0106-2.318,2.0982-3.436,3.1557-1.1226,1.0619-2.2316,2.1382-3.3344,3.2207-1.0965,1.0763-2.1777,2.1681-3.3384,3.3257-2.4311-5.0265-4.4542-10.1034-6.2788-15.2827,5.2353-5.0841,10.6436-9.9848,16.3609-14.6533Z"/>
        <path class="cls-4"
              d="m61.6232,168.2741c.0385.0307.0769.0614.1164.0929-.0832.0496-.1513.0698-.1466-.0677l.0302-.0252Z"/>
    </g>
</svg>
