<?xml version="1.0" encoding="UTF-8"?>
<svg id="Layer_1" data-name="Layer 1" xmlns="http://www.w3.org/2000/svg" viewBox="0 0 363.4156 213.3357">
    <defs>
        <style>
            .cls-1 {
            fill: #7b4181;
            }

            .cls-1, .cls-2, .cls-3, .cls-4 {
            stroke-width: 0px;
            }

            .cls-2 {
            fill: #ac9c7e;
            }

            .cls-3 {
            fill: #161716;
            }

            .cls-4 {
            fill: #151616;
            }
        </style>
    </defs>
    <g>
        <path class="cls-2"
              d="m0,53.2913c4.4951-2.5954,8.9821-5.1862,13.525-7.8092.6653-4.6474,1.3354-9.329,2.0176-14.0948C32.963,21.3096,50.4094,11.2167,67.9333,1.0791c1.8792,3.4212,4.1895,6.3604,7.317,8.7769,5.6505-3.2659,11.2983-6.5303,17.0522-9.856,5.3426,3.0752,10.7246,6.1732,16.1667,9.3058,1.4859-1.1007,2.6702-2.4337,3.7978-3.8187,1.1302-1.3881,2.0007-2.9547,2.9702-4.5642,17.6125,10.1527,35.1597,20.2679,52.8027,30.4382.6192,4.4495,1.2467,8.9588,1.8703,13.4408,4.976,2.8746,9.868,5.7007,14.7479,8.5199v106.7067c-4.8287,2.7902-9.7159,5.6143-14.7204,8.5061-.6303,4.4247-1.2702,8.9165-1.9159,13.4494-17.4193,10.0805-34.8406,20.1622-52.3468,30.293-.9892-1.5939-1.858-3.1599-2.9991-4.5365-1.1436-1.3795-2.3234-2.7249-3.9198-3.8707-5.4518,3.1344-10.9413,6.2905-16.4644,9.4658-5.6028-3.2237-11.1759-6.4304-16.7799-9.6547-3.0109,2.4387-5.2971,5.3555-7.1394,8.779-17.6738-10.1884-35.2706-20.3325-52.8449-30.4636-.6691-4.7256-1.3259-9.364-1.9965-14.0997-4.4722-2.5836-8.9821-5.189-13.5311-7.8169V53.2913Zm3.1287,1.8253v103.1028c24.0869,13.9069,48.1288,27.7878,72.0471,41.5974,11.4341-6.9232,22.6673-6.8275,33.954.1712,24.0776-13.8953,48.2347-27.8366,72.3821-41.7723V55.1104c-24.2943-14.0221-48.5494-28.0215-72.6948-41.9576-11.2533,7.1633-22.4736,7.3693-33.8636.4935C51.0538,27.4455,27.1163,41.2666,3.1287,55.1166Zm69.4781,146.8597c-18.5706-10.7179-37.0209-21.3665-55.4711-32.015l-.1774.1609c.6386,3.3062.9365,6.6634,1.5165,9.9513,16.3,9.3898,32.5372,18.7433,48.7915,28.1067,1.5102-2.3058,3.2346-4.2959,5.3405-6.2039Zm-.2849-190.4587c-1.0865-.9589-2.0654-1.8809-2.955-2.9026-.9049-1.0393-1.6835-2.1731-2.5668-3.3133-16.1202,9.3368-32.2016,18.6511-48.3492,28.0037-.6042,3.2943-.9156,6.638-1.499,10.157,18.5586-10.7071,36.9317-21.3071,55.3699-31.9448Zm92.8389,21.8071c-16.2777-9.3766-32.5201-18.7329-48.8345-28.1306-1.4376,2.1348-3.0498,3.9972-4.9502,5.8192,18.3714,10.611,36.6281,21.1557,55.0732,31.8093-.4452-3.2816-.8607-6.3445-1.2885-9.4979Zm1.2543,137.5717c-.0864-.0537-.1727-.1073-.2591-.161-18.1299,10.4669-36.2598,20.9339-54.4781,31.4519,2.002,1.7832,3.6282,3.7289,5.0896,5.8875,16.1921-9.3791,32.3054-18.7127,48.3809-28.0243.4307-3.1125.8487-6.1334,1.2667-9.1542ZM92.3105,3.6273c-4.745,2.7449-9.4297,5.455-14.2061,8.2181,5.6659,3.2077,11.567,4.4367,17.8912,3.3015,3.4323-.6161,6.656-1.7857,9.6836-3.7985-4.5371-2.6204-8.9251-5.1547-13.3688-7.7211Zm.0035,206.0809c4.5689-2.6419,9.0702-5.2447,13.6231-7.8773-7.3488-5.0032-19.5291-5.4129-27.5209-.1434,4.6298,2.672,9.2392,5.3322,13.8977,8.0208Z"/>
        <path class="cls-4"
              d="m3.1287,55.1166c23.9876-13.85,47.9252-27.6711,71.8247-41.4703,11.39,6.8758,22.6103,6.6698,33.8636-.4935,24.1454,13.9361,48.4005,27.9356,72.6948,41.9576v103.1053c-24.1474,13.9356-48.3045,27.8769-72.3821,41.7723-11.2868-6.9987-22.52-7.0943-33.954-.1712-23.9183-13.8096-47.9601-27.6904-72.0471-41.5974V55.1166Zm48.4027,34.2751c-1.0287.2545-1.8609.8663-2.7031,1.4675-.762.544-1.3926,1.2391-2.2094,1.9892.0122-1.4198.0447-2.6498.1391-3.8937.2473-3.2589.7768-6.4627,1.561-9.6292.893-3.6056,2.1543-7.0816,3.8347-10.3918,1.757-3.4611,4.0193-6.5791,6.5441-9.5282,2.8737-3.3566,6.0718-6.3587,9.4978-9.1324,3.2293-2.6144,6.6417-4.9646,10.2774-6.9736,3.2141-1.7761,6.4516-3.5053,9.9277-4.7509,5.0681-1.816,10.2775-2.9729,15.6199-3.5821.4864-.0555,1.023-.0506,1.4683-.2868-.0625-.2385-.1975-.2295-.3172-.2554-1.8724-.4062-3.7796-.6539-5.6806-.6984-3.0126-.0704-6.0288-.1461-9.047.1028-2.7253.2248-5.4099.6608-8.0656,1.261-7.0255,1.5876-13.5003,4.4651-19.4841,8.4656-5.454,3.6463-10.4222,7.8566-14.9417,12.6176-3.0553,3.2185-5.8618,6.6372-8.5994,10.1204-.5225.6648-1.0584,1.3203-1.7692,1.8121-1.5268,1.0565-2.884.6091-3.4453-1.1481-.1062-.3324-.1611-.6649-.1802-1.0141-.0786-1.4357.2457-2.798.6701-4.154.1965-.628.6202-1.1687.677-1.8443.0838-.0328.1711-.0644.0588-.1672-.0317.0447-.0629.0886-.094.1324-1.0814.7778-1.8579,1.8504-2.6744,2.8671-4.4821,5.5807-6.3566,12.0698-6.5606,19.1247-.0617,2.1343.1286,4.2517.3322,6.376.2936,3.0639.7999,6.0818,1.5525,9.0618,1.452,5.7497,3.6094,11.214,6.5605,16.3664.6037,1.054,1.404,2.0172,1.6589,3.2574.1111.5405.1913,1.0535-.2632,1.486-.9195.2013-1.5867-.3216-2.2378-.7988-1.5862-1.1627-2.9098-2.5856-3.9946-4.227-.3569-.54-.6972-1.091-1.1052-1.7315-.2115,1.8353.2315,3.4689.6425,5.0863,1.2709,5.0012,3.7929,9.3586,7.1807,13.1952,3.9981,4.5277,8.6602,8.2068,14.2936,10.5399,4.468,1.8505,9.108,2.9362,13.9527,3.0677,2.5767.0699,5.1432-.0065,7.685-.5329.9409-.1949,1.9072-.398,2.8684-.1758.5713.9334.4093,1.7679-.5395,2.5622-1.4735,1.2334-3.1533,2.0211-5.0655,2.3301-.6069.0981-1.2352.1186-1.8342.3199,2.3917.8489,4.8721,1.1434,7.3546,1.332,1.7504.133,3.4894-.2339,5.2125-.5407,4.7189-.84,8.8769-2.8833,12.4585-6.0445,4.3377-3.8285,7.0781-8.6827,8.7657-14.1591.29-.9409.624-1.9012.6171-2.9069-1.8548-1.7923-3.2307-3.8334-4.0105-6.3276.5351-.0027.6927.3537.9266.5773,2.4489,2.341,5.4629,3.452,8.7478,3.6919,1.6899.1234,3.1302.5845,4.4149,1.6006,2.0386,1.6122,3.3314,3.7005,3.5126,6.3157.3355,4.8437-1.6893,8.8279-4.9367,12.1952-2.2825,2.3668-5.2007,3.786-8.3636,4.7096-1.3644.3984-2.7716.5952-4.1951.9691,1.6841,1.2896,3.5755,1.9548,5.6275,2.5255-.225.1484-.323.2209-.4281.2812-3.0618,1.7536-6.2929,3.122-9.6321,4.2486-4.7206,1.5927-9.5608,2.5301-14.5451,2.7016-3.5904.1235-7.1363-.2834-10.6465-.974-5.7752-1.1362-11.3368-2.9577-16.6745-5.4404-3.307-1.5381-6.4584-3.3538-9.5745-5.2558-6.0648-3.7019-11.0938-8.5085-15.5115-14.0117-.9608-1.1968-1.9102-2.4028-2.8648-3.6045-.0361-.0455-.0722-.091-.1092-.1375-.1043.0955-.0441.1517.0468.2008-.0345.4256.1435.806.2983,1.1763.6049,1.4474,1.188,2.9073,1.8714,4.3179,2.6774,5.5263,6.1641,10.5023,10.3825,14.9574,2.8174,2.9755,5.9392,5.6065,9.3387,7.8982,5.241,3.5332,10.9361,6.1487,16.8742,8.2544,6.9364,2.4597,14.1061,3.9174,21.3823,4.9108,1.2051.1645,2.4301.3025,3.4647,1.066,1.0092.7448,1.1939,1.9109.3911,2.8656-.4662.5545-1.0037,1.0291-1.6682,1.3622-1.7809.893-3.6808,1.2767-5.7739,1.3607.2524.1139.3843.2009.5285.2345,2.1309.495,4.2561.9973,6.4657,1.0401,2.8013.0543,5.5773-.0455,8.3236-.6915,4.3421-1.0214,8.2225-3.05,11.9508-5.4053,4.897-3.0935,9.1756-6.9092,12.9935-11.2566,2.9326-3.3393,5.5253-6.9144,7.681-10.8056.4536-.8189.8438-1.6915,1.6012-2.3102.4252-.3473.8403-.6711,1.4221-.4653.3952.3432.3686.796.3741,1.2341.0342,2.7138-.8361,5.174-2.1162,7.5184-.1356.2482-.3793.4665-.257.8649,2.3686-1.4337,4.3239-3.2343,5.9949-5.3372,4.735-5.9586,7.1407-12.858,7.8031-20.3461.2665-3.0132.234-6.0802-.2792-9.1164-.6049-3.5791-1.6308-7.0144-3.1309-10.3102-1.5456-3.3957-3.5404-6.5032-6.0248-9.2962-.4251-.4779-.9208-.9661-.8786-1.7077.3219-.5536.8104-.7486,1.4195-.7732.6838-.0276,1.3004.1723,1.9017.4578,1.6243.7711,2.931,1.9282,4.0377,3.3278.2045.2586.3485.5825.7068.6973.0985-.2508.0299-.4582-.0306-.6713-1.5459-5.4435-4.4296-10.0123-8.8378-13.6-4.7883-3.897-10.3216-5.6918-16.4321-5.8625-1.8814-.0526-3.7592.1096-5.6131.3967-1.8508.2866-3.6916.6732-5.4528,1.3993-.6796,2.5878-1.8179,4.9154-3.6999,6.8437.1099-.873.3606-1.7141.437-2.5707.2621-2.9377-.1626-5.7603-1.586-8.3883-.3155-.5825-.5798-1.2036-.6397-1.8599-.342-3.7446.8961-6.798,4.0743-8.929,1.89-1.2673,4.0185-1.8035,6.2752-2.0606,2.3874-.272,4.6981-.089,6.9643.6385,3.758,1.2065,6.7616,3.5258,9.3302,6.462.3953.4519.7919.9026,1.2612,1.4374.0602-2.1162.1329-4.0808-.5846-6.0482.2442.0569.3412.0616.4206.1015.2244.1128.4488.2288.6606.3633,5.1809,3.2901,9.8074,7.2047,13.7464,11.9395,4.4406,5.3377,7.2995,11.4549,9.198,18.0724.9334,3.2536,1.6279,6.5549,2.1339,9.9056.3795,2.5128.6807,5.0362.6774,7.5629-.0043,3.2922.0858,6.5841-.1184,9.8843-.1889,3.0541-.6678,6.0329-1.3492,8.9943-.973,4.229-2.4329,8.2964-4.1541,12.2744-.1046.2418-.3425.4825-.1264.7851.2696.0276.3887-.1821.5213-.3468,2.4289-3.017,4.5789-6.2186,6.3767-9.6529,1.957-3.7384,3.4895-7.6448,4.6282-11.7062,1.0089-3.5982,1.7608-7.2641,1.9224-10.9871.1683-3.8765.1557-7.7638-.2713-11.649-.2636-2.3987-.5551-4.785-.9782-7.1581-1.0541-5.9123-2.8144-11.6227-4.9285-17.2317-.7738-2.0532-1.6614-4.0631-2.3244-6.1587-.3013-.9524-.1219-1.8074.5329-2.5296.66-.7279,1.5011-.6701,2.3563-.3993,1.4553.4608,2.5827,1.4052,3.5898,2.4982.6336.6876,1.194,1.4426,1.8093,2.1944.0958-.2087.046-.3258.0087-.4455-.8325-2.6723-1.8315-5.2679-3.2531-7.6978-1.9652-3.359-4.5104-6.1844-7.6103-8.5171-3.3309-2.5065-6.9625-4.4928-10.7874-6.1294-3.7275-1.5949-7.5804-2.7979-11.556-3.6015-2.086-.4217-4.1711-.8014-6.3032-.9812-1.4315-.1207-2.8526-.3506-4.2983-.3322-1.5418.0196-3.0841-.0048-4.6261.0089-.7799.0069-1.465-.3039-2.1482-.6046-.3625-.1595-.5991-.4646-.471-.9768.1915-.3025.4883-.5671.8546-.772,1.4962-.8372,3.1106-1.3054,4.7856-1.6286,1.2574-.2427,2.5309-.1422,3.9615-.2401-1.0074-.7206-2.0055-1.085-2.991-1.4418-2.8211-1.0213-5.717-1.622-8.7449-1.5275-2.1299.0665-4.2719-.1055-6.387.2378-3.0052.4877-5.9386,1.2481-8.7878,2.3473-4.5385,1.7508-8.6357,4.2148-12.1786,7.5433-4.7462,4.459-8.3458,9.69-10.4386,15.9053-.2148.6379-.414,1.33-1.0332,1.7231-1.1186-.099-1.8097-.7818-1.9279-2.0643-.1743-1.8912-.0724-3.7652.6847-5.5513.1705-.4022.3683-.7971.4339-1.2371.1066-.0753.2448-.1455.0297-.2881-.0231.0956-.0429.1777-.0627.2598-.2978-.0196-.4464.2109-.6114.3887-.5338.5755-1.0705,1.1498-1.5742,1.7512-1.4787,1.7655-2.7074,3.6907-3.6711,5.7861-1.2146,2.6408-2.0051,5.3868-2.2889,8.2919-.2578,2.6392-.1913,5.2426.3566,7.8432.9087,4.3135,2.7578,8.185,5.3816,11.7037,1.3367,1.7926,2.8473,3.424,4.5965,4.9557,1.3127-.4099,2.684-.5788,4.0532-.5349,1.3474.0432,2.7223-.1098,4.1673.348-1.1883.3463-2.2878.5917-3.3089,1.0759-2.5118,1.1911-4.4513,3.0215-5.977,5.3167-.4735.7123-1.004,1.3612-1.727,1.842-3.3064,2.1991-7.1198,2.2671-10.6023-.0338-2.0383-1.3467-3.4893-3.2306-4.7205-5.2986-1.5406-2.5875-2.2734-5.4114-2.3651-8.406-.0599-1.9578.4415-3.8406.8287-5.7378.2506-1.2278.8709-2.3457,1.0517-3.5928.077.001.1087-.0271.0928-.0939-.0313.0366-.0587.0687-.0861.1007Zm95.8549,63.6901c-.0767-.105-.1467-.0531-.2113.0131-.0055.0057.016.0556.0343.0637.0829.0366.1535.0301.1769-.0769Zm-6.2483-47.0407l-.0303.063.05.0041-.0197-.0671Zm-117.4688,23.5225l.0275-.0498-.0423-.0053.0147.055Z"/>
        <path class="cls-3"
              d="m92.3105,3.6273c4.4437,2.5665,8.8317,5.1007,13.3688,7.7211-3.0277,2.0128-6.2514,3.1824-9.6836,3.7985-6.3242,1.1351-12.2254-.0938-17.8912-3.3015,4.7764-2.7631,9.4611-5.4732,14.2061-8.2181Z"/>
        <path class="cls-3"
              d="m92.314,209.7082c-4.6585-2.6886-9.2679-5.3488-13.8977-8.0208,7.9918-5.2694,20.172-4.8598,27.5209.1434-4.5529,2.6326-9.0542,5.2355-13.6231,7.8773Z"/>
        <path class="cls-1"
              d="m23.977,129.9677c.9546,1.2017,1.9041,2.4077,2.8648,3.6045,4.4177,5.5031,9.4467,10.3097,15.5115,14.0117,3.1161,1.902,6.2675,3.7177,9.5745,5.2558,5.3377,2.4826,10.8993,4.3042,16.6745,5.4404,3.5102.6906,7.0562,1.0975,10.6465.974,4.9843-.1715,9.8245-1.1089,14.5451-2.7016,3.3392-1.1266,6.5703-2.495,9.6321-4.2486.1051-.0602.2031-.1328.4281-.2812-2.052-.5707-3.9434-1.2359-5.6275-2.5255,1.4235-.3739,2.8307-.5706,4.1951-.9691,3.1629-.9236,6.081-2.3428,8.3636-4.7096,3.2474-3.3673,5.2721-7.3515,4.9367-12.1952-.1811-2.6152-1.474-4.7035-3.5126-6.3157-1.2847-1.016-2.725-1.4772-4.4149-1.6006-3.2849-.2399-6.2989-1.3508-8.7478-3.6919-.2339-.2237-.3915-.58-.9266-.5773.7798,2.4942,2.1557,4.5353,4.0105,6.3276.0069,1.0057-.3271,1.966-.6171,2.9069-1.6876,5.4764-4.4281,10.3306-8.7657,14.1591-3.5815,3.1612-7.7395,5.2044-12.4585,6.0445-1.723.3067-3.4621.6736-5.2125.5407-2.4826-.1886-4.9629-.4831-7.3546-1.332.599-.2013,1.2273-.2218,1.8342-.3199,1.9122-.309,3.592-1.0967,5.0655-2.3301.9489-.7942,1.1108-1.6288.5395-2.5622-.9612-.2222-1.9275-.0191-2.8684.1758-2.5417.5264-5.1083.6028-7.685.5329-4.8446-.1315-9.4847-1.2172-13.9527-3.0677-5.6333-2.3331-10.2955-6.0122-14.2936-10.5399-3.3879-3.8367-5.9098-8.1941-7.1807-13.1952-.411-1.6174-.854-3.251-.6425-5.0863.408.6404.7483,1.1914,1.1052,1.7315,1.0848,1.6414,2.4084,3.0643,3.9946,4.227.6511.4773,1.3183,1.0001,2.2378.7988.4545-.4325.3743-.9455.2632-1.486-.2549-1.2402-1.0552-2.2034-1.6589-3.2574-2.9512-5.1524-5.1085-10.6167-6.5605-16.3664-.7526-2.98-1.2589-5.9978-1.5525-9.0618-.2036-2.1244-.3939-4.2418-.3322-6.376.2039-7.0549,2.0784-13.544,6.5606-19.1247.8165-1.0167,1.5931-2.0893,2.6744-2.8671l.0352.0348c-.0568.6756-.4805,1.2164-.677,1.8443-.4243,1.356-.7487,2.7183-.6701,4.154.0191.3493.074.6818.1802,1.0141.5613,1.7572,1.9185,2.2046,3.4453,1.1481.7107-.4918,1.2467-1.1473,1.7692-1.8121,2.7377-3.4832,5.5442-6.9018,8.5994-10.1204,4.5195-4.761,9.4876-8.9713,14.9417-12.6176,5.9838-4.0005,12.4586-6.8779,19.4841-8.4656,2.6557-.6002,5.3403-1.0362,8.0656-1.261,3.0182-.2489,6.0344-.1732,9.047-.1028,1.901.0444,3.8082.2921,5.6806.6984.1197.026.2547.0169.3172.2554-.4453.2362-.982.2314-1.4683.2868-5.3424.6091-10.5518,1.766-15.6199,3.5821-3.4761,1.2456-6.7136,2.9748-9.9277,4.7509-3.6357,2.009-7.0481,4.3592-10.2774,6.9736-3.426,2.7737-6.6241,5.7759-9.4978,9.1324-2.5248,2.949-4.7872,6.0671-6.5441,9.5282-1.6804,3.3103-2.9417,6.7862-3.8347,10.3918-.7842,3.1665-1.3137,6.3703-1.561,9.6292-.0944,1.2439-.1268,2.4739-.1391,3.8937.8168-.7502,1.4474-1.4453,2.2094-1.9892.8422-.6012,1.6745-1.213,2.7031-1.4675l-.0067-.0068c-.1808,1.2471-.8011,2.365-1.0517,3.5928-.3872,1.8972-.8886,3.7801-.8287,5.7378.0917,2.9947.8245,5.8185,2.3651,8.406,1.2313,2.0679,2.6823,3.9519,4.7205,5.2986,3.4825,2.3008,7.2959,2.2329,10.6023.0338.723-.4809,1.2534-1.1297,1.727-1.842,1.5257-2.2952,3.4653-4.1256,5.977-5.3167,1.0211-.4842,2.1206-.7296,3.3089-1.0759-1.445-.4577-2.8199-.3048-4.1673-.348-1.3692-.0439-2.7405.125-4.0532.5349-1.7492-1.5317-3.2598-3.1631-4.5965-4.9557-2.6239-3.5187-4.4729-7.3902-5.3816-11.7037-.5479-2.6005-.6144-5.2039-.3566-7.8432.2838-2.9051,1.0743-5.6511,2.2889-8.2919.9637-2.0954,2.1924-4.0206,3.6711-5.7861.5037-.6014,1.0405-1.1757,1.5742-1.7512.1649-.1778.3135-.4083.6114-.3887l.033.0283c-.0656.44-.2634.8349-.4339,1.2371-.7571,1.7861-.859,3.6601-.6847,5.5513.1182,1.2825.8093,1.9653,1.9279,2.0643.6193-.3931.8184-1.0852,1.0332-1.7231,2.0929-6.2153,5.6925-11.4463,10.4386-15.9053,3.5429-3.3286,7.6402-5.7925,12.1786-7.5433,2.8492-1.0992,5.7826-1.8596,8.7878-2.3473,2.115-.3433,4.257-.1713,6.387-.2378,3.0279-.0945,5.9238.5062,8.7449,1.5275.9854.3568,1.9836.7212,2.991,1.4418-1.4306.0979-2.7041-.0025-3.9615.2401-1.675.3233-3.2894.7914-4.7856,1.6286-.3662.2049-.6631.4695-.8546.772-.1281.5122.1086.8173.471.9768.6833.3007,1.3684.6115,2.1482.6046,1.5419-.0137,3.0843.0107,4.6261-.0089,1.4457-.0183,2.8667.2116,4.2983.3322,2.1321.1797,4.2172.5595,6.3032.9812,3.9756.8036,7.8285,2.0066,11.556,3.6015,3.825,1.6366,7.4566,3.6229,10.7874,6.1294,3.0999,2.3327,5.6451,5.1581,7.6103,8.5171,1.4217,2.4299,2.4206,5.0255,3.2531,7.6978.0373.1197.0871.2368-.0087.4455-.6153-.7518-1.1758-1.5068-1.8093-2.1944-1.007-1.093-2.1344-2.0373-3.5898-2.4982-.8552-.2708-1.6964-.3286-2.3563.3993-.6548.7222-.8342,1.5772-.5329,2.5296.663,2.0956,1.5505,4.1055,2.3244,6.1587,2.114,5.609,3.8744,11.3194,4.9285,17.2317.4231,2.3731.7146,4.7594.9782,7.1581.427,3.8852.4396,7.7724.2713,11.649-.1616,3.723-.9136,7.389-1.9224,10.9871-1.1387,4.0615-2.6713,7.9679-4.6282,11.7062-1.7977,3.4343-3.9478,6.6359-6.3767,9.6529-.1326.1647-.2517.3744-.5213.3468-.2161-.3025.0218-.5433.1264-.7851,1.7212-3.9779,3.181-8.0453,4.1541-12.2744.6814-2.9614,1.1603-5.9402,1.3492-8.9943.2042-3.3003.1141-6.5921.1184-9.8843.0033-2.5267-.2979-5.0501-.6774-7.5629-.506-3.3507-1.2004-6.652-2.1339-9.9056-1.8985-6.6174-4.7574-12.7347-9.198-18.0724-3.939-4.7348-8.5655-8.6494-13.7464-11.9395-.2118-.1345-.4361-.2505-.6606-.3633-.0794-.0399-.1764-.0446-.4206-.1015.7175,1.9674.6448,3.932.5846,6.0482-.4693-.5348-.8659-.9856-1.2612-1.4374-2.5686-2.9361-5.5722-5.2555-9.3302-6.462-2.2661-.7275-4.5768-.9104-6.9643-.6385-2.2567.2571-4.3852.7933-6.2752,2.0606-3.1782,2.131-4.4163,5.1844-4.0743,8.929.0599.6563.3242,1.2773.6397,1.8599,1.4234,2.628,1.8482,5.4506,1.586,8.3883-.0764.8566-.3271,1.6977-.437,2.5707,1.882-1.9283,3.0203-4.256,3.6999-6.8437,1.7612-.726,3.602-1.1126,5.4528-1.3993,1.8539-.2871,3.7317-.4493,5.6131-.3967,6.1105.1707,11.6438,1.9654,16.4321,5.8625,4.4082,3.5877,7.2919,8.1566,8.8378,13.6.0605.2131.1291.4205.0306.6713-.3583-.1149-.5023-.4387-.7068-.6973-1.1067-1.3995-2.4133-2.5567-4.0377-3.3278-.6013-.2855-1.2178-.4854-1.9017-.4578-.6091.0246-1.0976.2196-1.4195.7732-.0422.7416.4535,1.2299.8786,1.7077,2.4844,2.793,4.4792,5.9005,6.0248,9.2962,1.5001,3.2958,2.526,6.7311,3.1309,10.3102.5132,3.0362.5457,6.1032.2792,9.1164-.6624,7.4881-3.0681,14.3875-7.8031,20.3461-1.6711,2.1029-3.6263,3.9036-5.9949,5.3372-.1222-.3985.1215-.6167.257-.8649,1.2801-2.3444,2.1504-4.8046,2.1162-7.5184-.0055-.4382.0212-.8909-.3741-1.2341-.5818-.2058-.9969.118-1.4221.4653-.7575.6187-1.1476,1.4913-1.6012,2.3102-2.1557,3.8912-4.7484,7.4663-7.681,10.8056-3.818,4.3474-8.0965,8.1631-12.9935,11.2566-3.7283,2.3553-7.6087,4.3839-11.9508,5.4053-2.7463.646-5.5223.7458-8.3236.6915-2.2095-.0428-4.3347-.5451-6.4657-1.0401-.1443-.0335-.2762-.1205-.5285-.2345,2.0931-.0839,3.993-.4677,5.7739-1.3607.6645-.3332,1.202-.8078,1.6682-1.3622.8028-.9547.6181-2.1207-.3911-2.8656-1.0346-.7635-2.2596-.9015-3.4647-1.066-7.2762-.9934-14.4458-2.4511-21.3823-4.9108-5.9381-2.1057-11.6332-4.7212-16.8742-8.2544-3.3996-2.2918-6.5213-4.9227-9.3387-7.8982-4.2184-4.4551-7.7051-9.4312-10.3825-14.9574-.6834-1.4106-1.2666-2.8705-1.8714-4.3179-.1547-.3703-.3328-.7507-.2983-1.1763l.0624-.0633Zm74.1483-10.8175c-.0133-.0204-.0265-.0407-.0398-.0611-.0176.0167-.0472.0321-.0493.0506-.0022.0185.0231.0403.0364.0606.0176-.0167.0352-.0334.0528-.0501Z"/>
        <path class="cls-1"
              d="m67.9354,63.6858c.0198-.0821.0397-.1642.0627-.2598.2151.1426.0768.2128-.0297.2881l-.033-.0283Z"/>
        <path class="cls-1"
              d="m147.3862,153.0819c-.0235.1069-.0941.1134-.177.0768-.0183-.0081-.0399-.058-.0343-.0637.0646-.0662.1346-.1181.2113-.013Z"/>
        <path class="cls-1"
              d="m35.2705,59.9099c.0311-.0439.0623-.0877.094-.1324.1124.1029.025.1344-.0588.1672l-.0352-.0348Z"/>
        <path class="cls-1"
              d="m51.5313,89.3917c.0274-.0321.0548-.0641.0861-.1007.0159.0669-.0159.0949-.0928.0939l.0067.0068Z"/>
        <polygon class="cls-1" points="141.1379 106.0411 141.1576 106.1082 141.1076 106.1041 141.1379 106.0411"/>
        <polygon class="cls-1" points="23.6691 129.5636 23.6544 129.5086 23.6966 129.5138 23.6691 129.5636"/>
        <path class="cls-1"
              d="m23.9146,130.031c-.0909-.0491-.1511-.1053-.0468-.2008.0369.0465.073.092.1092.1375l-.0624.0633Z"/>
        <path class="cls-4"
              d="m98.1253,119.1501c-.0176.0167-.0352.0334-.0528.0501-.0132-.0203-.0385-.0421-.0364-.0606.0022-.0185.0318-.0339.0493-.0506.0133.0204.0265.0407.0398.0611Z"/>
    </g>
    <path class="cls-1"
          d="m226.2957,129.9677c.9546,1.2017,1.9041,2.4077,2.8648,3.6045,4.4177,5.5031,9.4467,10.3097,15.5115,14.0117,3.1161,1.902,6.2675,3.7177,9.5745,5.2558,5.3377,2.4826,10.8993,4.3042,16.6745,5.4404,3.5102.6906,7.0562,1.0975,10.6465.974,4.9843-.1715,9.8245-1.1089,14.5451-2.7016,3.3392-1.1266,6.5703-2.495,9.6321-4.2486.1051-.0602.2031-.1328.4281-.2812-2.052-.5707-3.9434-1.2359-5.6275-2.5255,1.4235-.3739,2.8307-.5706,4.1951-.9691,3.1629-.9236,6.081-2.3428,8.3636-4.7096,3.2474-3.3673,5.2721-7.3515,4.9367-12.1952-.1811-2.6152-1.474-4.7035-3.5126-6.3157-1.2847-1.016-2.725-1.4772-4.4149-1.6006-3.2849-.2399-6.2989-1.3508-8.7478-3.6919-.2339-.2237-.3915-.58-.9266-.5773.7798,2.4942,2.1557,4.5353,4.0105,6.3276.0069,1.0057-.3271,1.966-.6171,2.9069-1.6876,5.4764-4.4281,10.3306-8.7657,14.1591-3.5815,3.1612-7.7395,5.2044-12.4585,6.0445-1.723.3067-3.4621.6736-5.2125.5407-2.4826-.1886-4.9629-.4831-7.3546-1.332.599-.2013,1.2273-.2218,1.8342-.3199,1.9122-.309,3.592-1.0967,5.0655-2.3301.9489-.7942,1.1108-1.6288.5395-2.5622-.9612-.2222-1.9275-.0191-2.8684.1758-2.5417.5264-5.1083.6028-7.685.5329-4.8446-.1315-9.4847-1.2172-13.9527-3.0677-5.6333-2.3331-10.2955-6.0122-14.2936-10.5399-3.3879-3.8367-5.9098-8.1941-7.1807-13.1952-.411-1.6174-.854-3.251-.6425-5.0863.408.6404.7483,1.1914,1.1052,1.7315,1.0848,1.6414,2.4084,3.0643,3.9946,4.227.6511.4773,1.3183,1.0001,2.2378.7988.4545-.4325.3743-.9455.2632-1.486-.2549-1.2402-1.0552-2.2034-1.6589-3.2574-2.9512-5.1524-5.1085-10.6167-6.5605-16.3664-.7526-2.98-1.2589-5.9978-1.5525-9.0618-.2036-2.1244-.3939-4.2418-.3322-6.376.2039-7.0549,2.0784-13.544,6.5606-19.1247.8165-1.0167,1.5931-2.0893,2.6744-2.8671l.0352.0348c-.0568.6756-.4805,1.2164-.677,1.8443-.4243,1.356-.7487,2.7183-.6701,4.154.0191.3493.074.6818.1802,1.0141.5613,1.7572,1.9185,2.2046,3.4453,1.1481.7107-.4918,1.2467-1.1473,1.7692-1.8121,2.7377-3.4832,5.5442-6.9018,8.5994-10.1204,4.5195-4.761,9.4876-8.9713,14.9417-12.6176,5.9838-4.0005,12.4586-6.8779,19.4841-8.4656,2.6557-.6002,5.3403-1.0362,8.0656-1.261,3.0182-.2489,6.0344-.1732,9.047-.1028,1.901.0444,3.8082.2921,5.6806.6984.1197.026.2547.0169.3172.2554-.4453.2362-.982.2314-1.4683.2868-5.3424.6091-10.5518,1.766-15.6199,3.5821-3.4761,1.2456-6.7136,2.9748-9.9277,4.7509-3.6357,2.009-7.0481,4.3592-10.2774,6.9736-3.426,2.7737-6.6241,5.7759-9.4978,9.1324-2.5248,2.949-4.7872,6.0671-6.5441,9.5282-1.6804,3.3103-2.9417,6.7862-3.8347,10.3918-.7842,3.1665-1.3137,6.3703-1.561,9.6292-.0944,1.2439-.1268,2.4739-.1391,3.8937.8168-.7502,1.4474-1.4453,2.2094-1.9892.8422-.6012,1.6745-1.213,2.7031-1.4675l-.0067-.0068c-.1808,1.2471-.8011,2.365-1.0517,3.5928-.3872,1.8972-.8886,3.7801-.8287,5.7378.0917,2.9947.8245,5.8185,2.3651,8.406,1.2313,2.0679,2.6823,3.9519,4.7205,5.2986,3.4825,2.3008,7.2959,2.2329,10.6023.0338.723-.4809,1.2534-1.1297,1.727-1.842,1.5257-2.2952,3.4653-4.1256,5.977-5.3167,1.0211-.4842,2.1206-.7296,3.3089-1.0759-1.445-.4577-2.8199-.3048-4.1673-.348-1.3692-.0439-2.7405.125-4.0532.5349-1.7492-1.5317-3.2598-3.1631-4.5965-4.9557-2.6239-3.5187-4.4729-7.3902-5.3816-11.7037-.5479-2.6005-.6144-5.2039-.3566-7.8432.2838-2.9051,1.0743-5.6511,2.2889-8.2919.9637-2.0954,2.1924-4.0206,3.6711-5.7861.5037-.6014,1.0405-1.1757,1.5742-1.7512.1649-.1778.3135-.4083.6114-.3887l.033.0283c-.0656.44-.2634.8349-.4339,1.2371-.7571,1.7861-.859,3.6601-.6847,5.5513.1182,1.2825.8093,1.9653,1.9279,2.0643.6193-.3931.8184-1.0852,1.0332-1.7231,2.0929-6.2153,5.6925-11.4463,10.4386-15.9053,3.5429-3.3286,7.6402-5.7925,12.1786-7.5433,2.8492-1.0992,5.7826-1.8596,8.7878-2.3473,2.115-.3433,4.257-.1713,6.387-.2378,3.0279-.0945,5.9238.5062,8.7449,1.5275.9854.3568,1.9836.7212,2.991,1.4418-1.4306.0979-2.7041-.0025-3.9615.2401-1.675.3233-3.2894.7914-4.7856,1.6286-.3662.2049-.6631.4695-.8546.772-.1281.5122.1086.8173.471.9768.6833.3007,1.3684.6115,2.1482.6046,1.5419-.0137,3.0843.0107,4.6261-.0089,1.4457-.0183,2.8667.2116,4.2983.3322,2.1321.1797,4.2172.5595,6.3032.9812,3.9756.8036,7.8285,2.0066,11.556,3.6015,3.825,1.6366,7.4566,3.6229,10.7874,6.1294,3.0999,2.3327,5.6451,5.1581,7.6103,8.5171,1.4217,2.4299,2.4206,5.0255,3.2531,7.6978.0373.1197.0871.2368-.0087.4455-.6153-.7518-1.1758-1.5068-1.8093-2.1944-1.007-1.093-2.1344-2.0373-3.5898-2.4982-.8552-.2708-1.6964-.3286-2.3563.3993-.6548.7222-.8342,1.5772-.5329,2.5296.663,2.0956,1.5505,4.1055,2.3244,6.1587,2.114,5.609,3.8744,11.3194,4.9285,17.2317.4231,2.3731.7146,4.7594.9782,7.1581.427,3.8852.4396,7.7724.2713,11.649-.1616,3.723-.9136,7.389-1.9224,10.9871-1.1387,4.0615-2.6713,7.9679-4.6282,11.7062-1.7977,3.4343-3.9478,6.6359-6.3767,9.6529-.1326.1647-.2517.3744-.5213.3468-.2161-.3025.0218-.5433.1264-.7851,1.7212-3.9779,3.181-8.0453,4.1541-12.2744.6814-2.9614,1.1603-5.9402,1.3492-8.9943.2042-3.3003.1141-6.5921.1184-9.8843.0033-2.5267-.2979-5.0501-.6774-7.5629-.506-3.3507-1.2004-6.652-2.1339-9.9056-1.8985-6.6174-4.7574-12.7347-9.198-18.0724-3.939-4.7348-8.5655-8.6494-13.7464-11.9395-.2118-.1345-.4361-.2505-.6606-.3633-.0794-.0399-.1764-.0446-.4206-.1015.7175,1.9674.6448,3.932.5846,6.0482-.4693-.5348-.8659-.9856-1.2612-1.4374-2.5686-2.9361-5.5722-5.2555-9.3302-6.462-2.2661-.7275-4.5768-.9104-6.9643-.6385-2.2567.2571-4.3852.7933-6.2752,2.0606-3.1782,2.131-4.4163,5.1844-4.0743,8.929.0599.6563.3242,1.2773.6397,1.8599,1.4234,2.628,1.8482,5.4506,1.586,8.3883-.0764.8566-.3271,1.6977-.437,2.5707,1.882-1.9283,3.0203-4.256,3.6999-6.8437,1.7612-.726,3.602-1.1126,5.4528-1.3993,1.8539-.2871,3.7317-.4493,5.6131-.3967,6.1105.1707,11.6438,1.9654,16.4321,5.8625,4.4082,3.5877,7.2919,8.1566,8.8378,13.6.0605.2131.1291.4205.0306.6713-.3583-.1149-.5023-.4387-.7068-.6973-1.1067-1.3995-2.4133-2.5567-4.0377-3.3278-.6013-.2855-1.2178-.4854-1.9017-.4578-.6091.0246-1.0976.2196-1.4195.7732-.0422.7416.4535,1.2299.8786,1.7077,2.4844,2.793,4.4792,5.9005,6.0248,9.2962,1.5001,3.2958,2.526,6.7311,3.1309,10.3102.5132,3.0362.5457,6.1032.2792,9.1164-.6624,7.4881-3.0681,14.3875-7.8031,20.3461-1.6711,2.1029-3.6263,3.9036-5.9949,5.3372-.1222-.3985.1215-.6167.257-.8649,1.2801-2.3444,2.1504-4.8046,2.1162-7.5184-.0055-.4382.0212-.8909-.3741-1.2341-.5818-.2058-.9969.118-1.4221.4653-.7575.6187-1.1476,1.4913-1.6012,2.3102-2.1557,3.8912-4.7484,7.4663-7.681,10.8056-3.818,4.3474-8.0965,8.1631-12.9935,11.2566-3.7283,2.3553-7.6087,4.3839-11.9508,5.4053-2.7463.646-5.5223.7458-8.3236.6915-2.2095-.0428-4.3347-.5451-6.4657-1.0401-.1443-.0335-.2762-.1205-.5285-.2345,2.0931-.0839,3.993-.4677,5.7739-1.3607.6645-.3332,1.202-.8078,1.6682-1.3622.8028-.9547.6181-2.1207-.3911-2.8656-1.0346-.7635-2.2596-.9015-3.4647-1.066-7.2762-.9934-14.4458-2.4511-21.3823-4.9108-5.9381-2.1057-11.6332-4.7212-16.8742-8.2544-3.3996-2.2918-6.5213-4.9227-9.3387-7.8982-4.2184-4.4551-7.7051-9.4312-10.3825-14.9574-.6834-1.4106-1.2666-2.8705-1.8714-4.3179-.1547-.3703-.3328-.7507-.2983-1.1763l.0624-.0633Zm74.1483-10.8175c-.0133-.0204-.0265-.0407-.0398-.0611-.0176.0167-.0472.0321-.0493.0506-.0022.0185.0231.0403.0364.0606.0176-.0167.0352-.0334.0528-.0501Z"/>
</svg>
