<?xml version="1.0" encoding="UTF-8"?>
<svg id="Layer_1" data-name="Layer 1" xmlns="http://www.w3.org/2000/svg" viewBox="0 0 349.5947 215.3827">
    <defs>
        <style>
            .cls-1 {
            fill: #329044;
            }

            .cls-1, .cls-2, .cls-3, .cls-4, .cls-5, .cls-6 {
            stroke-width: 0px;
            }

            .cls-2 {
            fill: #161717;
            }

            .cls-3 {
            fill: #ad9d7e;
            }

            .cls-4 {
            fill: #1b2d1f;
            }

            .cls-5 {
            fill: #328f44;
            }

            .cls-6 {
            fill: #151616;
            }
        </style>
    </defs>
    <g>
        <path class="cls-3"
              d="m186.5871,161.5697c-4.9904,2.8823-9.9674,5.7567-14.8689,8.5877-.2286,1.6077-.4468,3.1099-.6548,4.6136-.2043,1.4767-.3265,2.9691-.6166,4.4283-.2964,1.4912-.237,3.0322-.6653,4.54-17.5857,10.1777-35.1722,20.3559-52.7878,30.5509-.4506-.3989-.6606-.9452-.9441-1.4265-1.2749-2.1639-2.8142-4.113-4.6379-5.8364-.4348-.4109-.9058-.7835-1.4002-1.208-1.9106,1.0168-3.7258,2.1333-5.5796,3.1796-1.8365,1.0366-3.6572,2.1012-5.4841,3.1547-1.8492,1.0663-3.6975,2.134-5.5947,3.229-2.8594-1.5879-5.6589-3.2457-8.4798-4.8656-2.8016-1.6088-5.6015-3.2206-8.3704-4.8129-.4005.0773-.6341.3117-.8765.5297-2.4042,2.162-4.4298,4.6275-5.9923,7.4656-.1422.2583-.3117.5015-.4911.7878-17.813-10.2692-35.5796-20.5116-53.2698-30.7101-.3501-1.2433-.3589-2.426-.583-3.5736-.23-1.1779-.2468-2.3832-.4903-3.5584-.1094-.5282-.2038-1.0596-.3017-1.5902-.0197-.1065-.0336-.2156-.0346-.3237-.0108-1.1802-.2457-2.3283-.4592-3.483-.1034-.5595-.0327-1.1489-.2743-1.7848-4.5031-2.6012-9.0773-5.2435-13.6285-7.8725-.0282-.0505-.0427-.0736-.0544-.0981-.0117-.0244-.0295-.0502-.0295-.0754C.0118,126.0908.0074,90.7638.0031,55.4367c0-.1646-.0098-.3302.0057-.4934.0361-.3795.085-.7578.1364-1.2038,4.5218-2.6119,9.0696-5.2388,13.6195-7.8668.3498-2.3899.6956-4.7503,1.0406-7.1109.3435-2.3508.6861-4.7018,1.0426-7.1457C33.403,21.452,51.0128,11.2736,68.533,1.1351c.3502.0605.4102.261.5023.4224.8432,1.4775,1.7747,2.8946,2.8505,4.215,1.0938,1.3425,2.3225,2.5516,3.6329,3.6794.163.1403.3632.2373.5465.3546.7033-.1655,1.244-.6073,1.8315-.9431,2.8059-1.6038,5.5981-3.2314,8.3949-4.8511,2.2041-1.2765,4.4075-2.5542,6.6121-3.83.1166-.0675.2407-.1221.3604-.1823.3836.0455.674.2675.9776.4414,1.8534,1.0622,3.6992,2.1378,5.5489,3.2064,1.9922,1.1509,3.9858,2.2994,5.9791,3.4483,1.0678.6155,2.1355,1.2312,3.2051,1.8434.2129.1218.4346.2283.673.3526.5387-.2935.9679-.7145,1.4006-1.1231,1.9896-1.8787,3.584-4.0624,4.9277-6.437.1212-.2142.2459-.4265.3768-.6348.0262-.0416.0879-.0609.1642-.1106.0795.0145.2005.0065.2879.0569,17.6547,10.1732,35.3069,20.3505,52.8939,30.4899.2013.344.2782.6345.2726.9399-.0198,1.0737.3462,2.093.4357,3.1509.099,1.1704.4361,2.3148.3961,3.4991-.0106.3148.1571.5709.1949.8724.1936,1.5448.4255,3.0847.637,4.6273.0266.1937.0696.3758.2207.6398,4.8486,2.7996,9.7793,5.6466,14.6865,8.4801.1123.6654.1563,106.2589.0449,107.8268ZM75.8755,13.6587C51.6446,27.6496,27.4461,41.6218,3.2794,55.5756v104.1708c24.264,14.0098,48.5093,28.0088,72.8258,42.0489,5.1272-3.463,10.8318-5.2905,17.0943-5.2561,6.2533.0343,11.9426,1.8912,17.0555,5.4338,24.4582-14.1136,48.853-28.1883,73.2012-42.2434.1201-2.3311.0657-103.4861-.0556-104.1885-24.4706-14.124-48.9556-28.2563-73.4449-42.3911-2.0236,1.4313-4.1187,2.6131-6.3733,3.4988-2.2688.8913-4.6103,1.4788-7.0249,1.8462-2.3952.3645-4.7802.3028-7.1701.0993-2.4343-.2072-4.7872-.814-7.0803-1.6411-2.2751-.8206-4.4005-1.9486-6.4318-3.2944Zm-7.8414,196.4966c.4772-.6611.8657-1.2214,1.2777-1.7637.3974-.523.8061-1.0387,1.2339-1.5371.4459-.5194.9333-1.0031,1.3788-1.5228.4378-.5107,1.0543-.8468,1.4686-1.4597-18.6265-10.7375-37.2031-21.4464-55.7807-32.1536-.0193-.0111-.0532-.0009-.0792.0046-.0247.0052-.0479.0173-.0788.029-.1117.2635-.0466.5405-.0118.8052.1458,1.1065.2867,2.2147.4789,3.3136.2158,1.2344.3138,2.4833.4684,3.7237.0915.7341.3129,1.4265.4022,2.1935,16.3944,9.4445,32.787,18.888,49.242,28.3674ZM17.271,43.5978c.1466.009.2365.0411.303.0145.4992-.1997,55.0455-31.7489,55.4953-32.1017-1.0358-.9016-2.0032-1.8542-2.9063-2.8758-.9058-1.0246-1.6764-2.151-2.5132-3.2309-.1494.0296-.2695.0241-.3571.0748-16.1798,9.365-32.3572,18.734-48.4892,28.0764-.4119,1.7265-.3992,3.4425-.8847,5.0714-.0644,1.6693-.5033,3.2949-.6476,4.9713ZM112.5902,11.0682c18.545,10.6919,36.9523,21.3044,55.3617,31.9131.0344.0198.1012-.0169.2231-.0413-.3963-2.9897-.7921-5.9846-1.1929-8.9788-.0217-.162-.0848-.3181-.2184-.4477-16.358-9.4233-32.7269-18.8529-49.1841-28.3334-1.4115,2.1665-3.0346,4.0783-4.9894,5.888Zm55.5346,161.3221c-.2124-.0468-.325.0488-.4388.1146-18.1907,10.5054-36.38,21.0133-54.5685,31.5225-.0199.0115-.0312.0429-.0399.0673-.0088.0247-.0094.0522-.0241.1443,1.8875,1.701,3.5423,3.6599,4.9949,5.8191,16.3172-9.4515,32.5712-18.8662,48.8531-28.2972.4259-2.8843.6849-5.7752,1.2453-8.6211.0459-.2331.0894-.4874-.0218-.7495Zm-74.7163,39.3247c.4212-.2423.8242-.4732,1.2263-.7056,3.9621-2.2898,7.9243-4.5795,11.8854-6.8709.1839-.1064.4143-.1675.4665-.4218-7.3385-4.9866-19.074-5.6284-27.653-.1048.5198.3708,13.3164,7.7456,14.0748,8.1031Zm.0105-208.1066c-1.2433.5709-13.7573,7.8619-14.2387,8.2862,3.0873,2.1217,9.061,4.1786,15.823,3.6264,3.6105-.2948,9.9982-2.4323,11.8005-4.1758-4.4635-2.589-8.9152-5.1559-13.3848-7.7368Z"/>
        <path class="cls-6"
              d="m75.8755,13.6587c2.0313,1.3458,4.1567,2.4738,6.4318,3.2944,2.2931.8271,4.6459,1.4338,7.0803,1.6411,2.3899.2035,4.7749.2652,7.1701-.0993,2.4146-.3674,4.7561-.955,7.0249-1.8462,2.2545-.8857,4.3496-2.0675,6.3733-3.4988,24.4893,14.1348,48.9742,28.2671,73.4449,42.3911.1213.7024.1757,101.8575.0556,104.1885-24.3482,14.0551-48.743,28.1298-73.2012,42.2434-5.1129-3.5426-10.8022-5.3994-17.0555-5.4338-6.2625-.0344-11.9671,1.7931-17.0943,5.2561-24.3165-14.0401-48.5618-28.0391-72.8258-42.0489V55.5756c24.1667-13.9538,48.3652-27.926,72.596-41.9168Zm-26.0336,149.3021c.0092.0713.0391.098.0896.0801.0119-.0526-.0181-.0793-.0898-.0801.0189-.1461-.0443-.261-.1264-.3765-.2534-.3567-.499-.7188-.7483-1.0784-1.6301-2.3512-2.9605-4.8632-3.8539-7.5802-.6549-1.9919-1.2617-4.0006-1.5746-6.0914-.2306-1.5409-.4674-3.0744-.447-4.6354.0132-1.0102-.0108-2.0172.1291-3.0294.0892-.6451.1422-1.3043.2582-1.9447.3021-1.6681.81-3.28,1.429-4.86.7229-1.8452,1.7033-3.551,2.7997-5.1877.9432-1.408,2.0043-2.7301,3.1224-4.0088,1.3002-1.4869,2.6724-2.8928,4.1767-4.1753,1.6722-1.4257,3.4841-2.6399,5.3964-3.7127.1115-.0625.2651-.1006.2332-.3378-.3435-.0936-.705-.201-1.0709-.2903-1.86-.4537-3.739-.7705-5.6614-.7644-.6031.0019-1.2067.0158-1.8091-.005-1.4016-.0482-2.787.1302-4.1526.3866-2.9188.548-5.6805,1.5897-8.307,2.9561-2.283,1.1877-4.4328,2.5869-6.3987,4.271-1.6119,1.3808-3.0262,2.9281-4.2654,4.639-1.1422,1.577-2.1108,3.2549-2.8457,5.0663-.6892,1.6987-1.2724,3.4271-1.6344,5.2265-.215,1.0686-.4127,2.1366-.5216,3.2257-.1331,1.3313-.2567,2.6609-.2837,3.9985-.0066.3288.0175.6591-.0043.9867-.0817,1.2237.4204,2.181,1.3403,2.9388.2935.2418.6227.4449.9521.6374,1.1333.662,2.275,1.3096,3.4116,1.966,1.7047.9845,3.4084,1.9709,5.1115,2.9583,1.2063.6994,2.4103,1.4027,3.6161,2.1028,1.8444,1.0709,3.6899,2.1399,5.5342,3.2111,1.5604.9063,3.1112,1.8295,4.6843,2.7132.4944.2777.9198.6973,1.5105.7939Zm57.9299-52.005c-.0101-.0713-.0403-.0977-.0906-.0791-.0102.052.0207.0778.0925.0773-.0264.3274.2496.467.4212.668.5857.6857,1.1946,1.3523,1.7635,2.0515.9142,1.1238,1.8037,2.2676,2.7031,3.4034.9501,1.1999,1.8993,2.4006,2.8493,3.6007.9331,1.1787,1.8602,2.3622,2.8016,3.5343,1.01,1.2576,2.0298,2.5073,3.0519,3.7551.9352,1.1417,1.8245,2.3278,2.8348,3.3992.9924,1.0525,1.9284,2.1576,3.0192,3.1268,1.2679,1.1267,2.5205,2.2662,3.8522,3.3197,2.2158,1.753,4.5858,3.2647,7.0678,4.6057,1.6629.8984,3.387,1.6674,5.1576,2.3239,1.7914.6641,3.6142,1.2282,5.4914,1.6118,1.3893.2839,2.7775.5461,4.1927.6814,1.1676.1116,2.3301.27,3.5053.2792.5208.0041,1.0418,0,1.5626.0015,1.5006.0041,2.8369-.4999,4.0677-1.322.616-.4114.8904-1.0165.9356-1.7379.012-.1912.0023-.3837.0023-.5756,0-6.5795-.0088-13.1591.0091-19.7386.0028-1.0418-.1308-2.0714-.157-3.1088-.0009-.0385-.0658-.0754-.1297-.144-.5106.2133-1.0352.4346-1.5614.6518-2.1255.8771-4.3186,1.5289-6.5758,1.9653-1.0967.212-2.1946.4003-3.3093.5154-1.4405.1487-2.8801.2689-4.3274.2876-1.4496.0187-2.8862-.1524-4.3271-.2865-1.1972-.1114-2.3774-.2993-3.5582-.5097-3.1478-.5609-6.2245-1.4001-9.2542-2.4053-2.3586-.7826-4.6798-1.6696-6.9802-2.616-2.6573-1.0933-5.2571-2.3078-7.8424-3.5549-1.3305-.6418-2.6324-1.3439-3.9374-2.0373-.9175-.4876-1.8169-1.0092-2.728-1.5092-.1887-.1036-.3662-.2486-.6027-.2346Zm-84.1005,13.9981c.0289.033.0577.066.0869.099.0275-.0344.0551-.0688.0826-.1032.8485-1.3792,1.8566-2.6412,2.9462-3.8296,1.1843-1.2916,2.4607-2.4891,3.84-3.5833,2.0017-1.588,4.1312-2.9639,6.4034-4.1247.9506-.4857,1.9119-.9471,2.8929-1.3712,1.4581-.6303,2.9547-1.1484,4.482-1.5712,1.4453-.4001,2.9103-.7084,4.4087-.8673,1.1126-.118,2.2193-.2814,3.3411-.284,1.0392-.0024,2.0738.0452,3.1123.1204,1.1738.085,2.3439.2042,3.4918.4218,2.1442.4065,4.2485.9765,6.3028,1.7377,2.4722.9161,4.8419,2.0428,7.1016,3.3873,1.8556,1.1041,3.6831,2.2601,5.4219,3.5474,1.3202.9774,2.6004,2.0054,3.7805,3.1475,1.0625,1.0282,2.1036,2.0772,3.0817,3.1919,1.0829,1.2343,2.1559,2.4733,3.1447,3.7845.0961.1273.174.2846.3606.3111.0194-.0481.0598-.0975.0534-.1398-.2258-1.4869-.639-2.9248-1.1037-4.353-.5072-1.559-1.0324-3.1112-1.605-4.647-.7546-2.0238-1.5631-4.0259-2.4941-5.9762-.6953-1.4566-1.3788-2.9171-2.1489-4.339-1.0692-1.974-2.1894-3.9145-3.3991-5.805-1.2244-1.9136-2.5367-3.7655-3.9562-5.5375-.9401-1.1735-1.904-2.3332-2.9292-3.4318-1.4573-1.5616-2.9933-3.0436-4.6525-4.4007-1.6979-1.3888-3.4568-2.6737-5.3613-3.7682-1.8822-1.0817-3.84-1.9787-5.912-2.6202-1.7026-.5271-3.4306-.9049-5.2335-.8185-.7094.034-1.4147.0649-2.1235.1456-.8696.099-1.7345.2262-2.5821.4169-3.6629.8242-7.0561,2.3009-10.2094,4.3339-2.0944,1.3503-4.1149,2.7955-5.9567,4.4853-1.2488,1.1457-2.5285,2.2554-3.6747,3.5098-.6822.7466-1.0041,1.591-1.0027,2.605.0121,8.7755.0085,17.551.0096,26.3265Zm45.0024-39.4617c.0434.2036.1883.2991.314.3971,1.3208,1.0293,2.5104,2.2005,3.7039,3.3704,1.4493,1.4208,2.8229,2.9104,4.1018,4.4834,1.0345,1.2723,2.0328,2.5732,2.9863,3.9106,1.9881,2.7885,3.8189,5.6749,5.4292,8.6943,1.1205,2.101,2.1897,4.2304,3.1544,6.4113.9846,2.2259,1.8986,4.4787,2.7103,6.7722.9295,2.6261,1.7831,5.2787,2.4818,7.9752.5058,1.9519.9512,3.9215,1.3532,5.8975.342,1.6811.647,3.3711.8717,5.0749.1176.8918.2058,1.789.3458,2.6752.2003,1.268.2717,2.5474.4311,3.8185.1764,1.407.2532,2.8306.3102,4.2449.0607,1.5028.2329,3.0015.2033,4.5087-.0146.7401.0222,1.4812.0065,2.2212-.0471,2.2164.0825,4.4336-.1283,6.6509-.1213,1.276-.067,2.5662-.174,3.8509-.0814.9781-.2607,1.9541-.2096,2.943.0028.054-.0033.1111-.0179.1631-.2159.7696-.1388,1.5718-.2725,2.3549-.1832,1.0737-.2365,2.1688-.3897,3.2485-.1797,1.267-.41,2.5268-.6124,3.7907-.2241,1.3991-.4774,2.7924-.7835,4.1763-.3238,1.464-.6144,2.9353-1.008,4.3834-.0387.1423-.0995.3255.1787.469,19.5466-11.2873,39.1322-22.5968,58.7172-33.9072.5674-.3277,1.1301-.6636,1.6933-.9987.0143-.0085.0077-.0521.0149-.1145-.3895-.0619-.7808-.1665-1.1749-.179-1.4518-.046-2.8799-.2944-4.2968-.5617-1.9293-.3639-3.8345-.8602-5.6957-1.4925-2.0724-.7041-4.0937-1.5429-6.0506-2.5252-1.7126-.8596-3.3714-1.8181-4.968-2.8791-1.5948-1.0598-3.1635-2.154-4.6291-3.3941-.8566-.7248-1.6967-1.4671-2.5455-2.1998-1.2278-1.0597-2.3662-2.2086-3.456-3.3991-1.2177-1.3302-2.3981-2.6972-3.5258-4.1085-1.2974-1.6235-2.6452-3.2068-3.943-4.83-1.3145-1.6441-2.5866-3.3219-3.8917-4.9736-1.7631-2.2313-3.5637-4.4333-5.3042-6.6819-1.7928-2.3162-3.642-4.5888-5.6548-6.7102-1.5809-1.6662-3.1189-3.3754-4.8138-4.9408-1.9508-1.8018-3.823-3.6898-5.8252-5.4383-.9686-.8459-1.9071-1.7292-2.91-2.5323-1.7281-1.3839-3.468-2.7523-5.2739-4.0387-3.4411-2.4512-7.0241-4.654-10.8521-6.4489-.1664-.078-.3226-.2211-.6007-.132Zm-7.0487,36.4538c-2.1722,1.25-4.1033,2.6747-5.889,4.2878-.9127.8245-1.7794,1.7031-2.5538,2.6712-.9436,1.1797-1.7873,2.422-2.496,3.7521-.7226,1.3562-1.2292,2.8024-1.6312,4.2819-.2648.9744-.4612,1.9773-.504,2.9793-.1074,2.5146-.1025,5.0238.4439,7.5123.5884,2.6802,1.3997,5.2778,2.5564,7.7638.7048,1.5148,1.4848,2.9912,2.3743,4.4086,1.4591,2.3252,3.1016,4.509,5.0492,6.4469.7351.7315,1.5479,1.3867,2.3421,2.0567,1.7994,1.5178,3.7019,2.9007,5.6418,4.2309,2.0755,1.4233,4.1784,2.8062,6.3286,4.1149,2.1961,1.3366,4.3906,2.6764,6.6037,3.9845,2.4021,1.4197,4.8236,2.8068,7.2401,4.2021.3516.203.7228.3722,1.0681.5485.2162-.1979.2699-.4059.3166-.6206.197-.9054.3993-1.8096.5975-2.7147.3498-1.5978.64-3.2067.8863-4.8234.1273-.8353.219-1.6763.36-2.5092.2095-1.2374.3491-2.4818.485-3.7288.0711-.6526.0561-1.3204.1843-1.9538.1808-.8929.0956-1.7959.2485-2.6908.1459-.854.1054-1.7418.1626-2.6145.1109-1.6914.0745-3.3909.1761-5.0869.1378-2.2994-.1366-4.5961-.1427-6.8961-.0004-.1359.0065-.2752-.1265-.4094-.334-.0093-.6657.1283-1.0018.2182-1.347.3605-2.7185.6436-4.1027.7094-1.6633.0791-3.3321.1211-5.0027-.1013-1.4942-.1989-2.9587-.4911-4.3926-.9379-2.4742-.771-4.7636-1.9182-6.8715-3.4289-1.8177-1.3028-3.4097-2.8483-4.7528-4.6244-1.6324-2.1587-2.8038-4.5632-3.46-7.1999-.4426-1.7784-.7729-3.576-.7418-5.4199.0257-1.531-.0776-3.0633.154-4.5924.1059-.6992.2151-1.3999.304-2.1012.0674-.5313.3396-1.0489.1459-1.7149Zm31.9131-36.3658c.085-.2528.1811-.5025.253-.7591.2427-.8667.448-1.7448.719-2.6024,1.2379-3.9176,2.738-7.725,4.719-11.3371,1.1593-2.1137,2.4059-4.167,3.7983-6.1352,1.5989-2.2601,3.3667-4.3793,5.2706-6.3848,1.2073-1.2717,2.5189-2.4335,3.8543-3.5706,1.2725-1.0834,2.5963-2.0929,3.9893-3.0156.3341-.2213.7051-.4048,1.0293-.7686-.638-.3881-1.2922-.6506-1.9115-.9771-.6294-.3319-1.2603-.6614-1.8811-1.0087-.6444-.3605-1.2854-.7284-1.9132-1.1168-.6045-.3739-1.1987-.7661-1.7818-1.1726-.5831-.4064-1.1532-.8323-1.7174-1.2648-.564-.4323-1.12-.8755-1.6676-1.3284-.5478-.4531-1.0939-.9098-1.6169-1.3909-.5244-.4824-1.0239-.9924-1.5262-1.4983-.5215-.5253-1.0492-1.0459-1.5449-1.595-.4759-.5271-.9189-1.0842-1.3676-1.6352-.4487-.5511-.8977-1.1027-1.3261-1.6696-.4284-.5669-.8421-1.1456-1.2426-1.7327-.4004-.587-.776-1.1908-1.1629-1.787-.4023-.62-.7522-1.2707-1.1268-1.9067-.3623-.6152-.6671-1.2572-1.0034-1.884-.3262-.6081-.5758-1.2588-.9981-1.9348-5.027,10.8337-12.8523,18.7601-23.5819,23.8201.0662.087.0994.1717.1606.205.8922.4863,1.692,1.1093,2.5179,1.6935,1.3186.9326,2.5932,1.9301,3.7705,3.0286,2.4841,2.3178,4.8491,4.7486,6.8914,7.4839,1.9039,2.5499,3.5824,5.2339,5.075,8.0386.9522,1.7892,1.7704,3.6428,2.5082,5.5276.6766,1.7284,1.28,3.4843,1.788,5.2739.3182,1.1208.6063,2.2481,1.0254,3.4046Zm13.1268-16.325c.2004.1322.4263.0858.6404.0755,2.0286-.0969,4.0496.0988,6.072.1844.6746.0285,1.3595.1022,2.037.1809.7847.0912,1.5696.1815,2.3539.2763.6762.0818,1.3543.1531,2.0268.2591.7263.1144,1.4475.2617,2.1702.3983,1.0439.1972,2.0917.3766,3.1297.6014,1.9224.4165,3.7956,1.0014,5.6528,1.6509,1.8615.651,3.674,1.4138,5.4489,2.264,3.0682,1.4697,5.9613,3.2395,8.6985,5.2563,2.0722,1.5267,4.0483,3.1708,5.8809,4.9856,1.9085,1.8898,3.7598,3.827,5.4346,5.9325,1.1762,1.4786,2.2938,2.9994,3.3322,4.5732,1.0993,1.6661,2.1502,3.367,3.0356,5.1619.0586.1187.1067.2567.3208.2467.029-.6767-.0436-1.3392-.1247-2.0152-.2254-1.8787-.681-3.7008-1.2324-5.5001-.6496-2.1193-1.4931-4.1683-2.426-6.1768-1.2929-2.7839-2.795-5.4552-4.4636-8.0314-1.7563-2.7116-3.676-5.3002-5.7553-7.776-1.1806-1.4057-2.4256-2.7497-3.675-4.09-.8769-.9408-1.8147-1.8233-2.7732-2.6862-.9966-.8973-1.989-1.7967-3.0123-2.6649-1.5247-1.2936-3.1294-2.4775-4.7639-3.6239-2.4717-1.7335-5.09-3.2137-7.8295-4.4777-.7421-.3424-1.5103-.628-2.2575-.9359-.1604.0571-.2908.0946-.4138.1486-1.0771.473-2.1353.9786-3.1677,1.5496-2.8952,1.6011-5.4666,3.6262-7.8511,5.898-1.3488,1.2851-2.5488,2.7084-3.7219,4.1559-.949,1.1709-1.8158,2.3972-2.6425,3.6547-.1079.1641-.2255.315-.124.5243Zm56.1856,45.7812c.1018-.2738.0173-.4738-.0561-.6828-.3077-.8758-.6025-1.7562-.9076-2.633-.6202-1.7821-1.3436-3.5251-2.1392-5.2327-1.6086-3.4529-3.472-6.7626-5.7214-9.8474-1.0961-1.5033-2.2211-2.9883-3.4867-4.3469-2.0155-2.1636-4.1228-4.2333-6.469-6.0555-2.2306-1.7325-4.5602-3.3053-7.0334-4.6607-1.9683-1.0787-4.01-2.01-6.1109-2.8038-.2659-.1005-.5292-.2933-.9055-.1975.0948.1413.1608.253.2394.3549.3839.4977.7904.9793,1.1542,1.4912,2.2169,3.1195,3.9444,6.4901,5.1388,10.1282.5959,1.8153,1.0858,3.6566,1.3739,5.5512.1146.7541.2133,1.511.3344,2.2618.166,1.0296.146,2.0671.2519,3.0979.0884.8616-.021,1.742-.0804,2.6161-.0946,1.3935-.2725,2.7673-.5434,4.1316-.4268,2.1491-1.073,4.2322-1.99,6.2242-.3867.8401-.8265,1.6557-1.2394,2.4769.0579.1226.1715.1297.2746.1541.901.2133,1.7982.4456,2.7044.6342,1.3331.2776,2.6743.5079,4.0211.7183,1.2148.1898,2.4376.3496,3.6532.3972,1.9917.0779,3.9887.1317,5.9877-.0906,1.4953-.1663,2.9722-.409,4.4268-.7574,1.9967-.4783,3.9126-1.2159,5.7484-2.1356.4789-.2399.9905-.4589,1.3741-.7941Z"/>
        <path class="cls-2"
              d="m93.4085,211.715c-.7584-.3576-13.5551-7.7323-14.0748-8.1031,8.5791-5.5235,20.3146-4.8817,27.653.1048-.0522.2542-.2826.3154-.4665.4218-3.9612,2.2914-7.9233,4.5811-11.8854,6.8709-.4021.2324-.8051.4633-1.2263.7056Z"/>
        <path class="cls-2"
              d="m93.419,3.6084c4.4696,2.5808,8.9213,5.1478,13.3848,7.7368-1.8023,1.7435-8.19,3.881-11.8005,4.1758-6.7621.5521-12.7357-1.5048-15.823-3.6264.4814-.4242,12.9954-7.7153,14.2387-8.2862Z"/>
        <path class="cls-1"
              d="m68.6737,85.4922c.2781-.0891.4344.054.6007.132,3.828,1.7949,7.411,3.9977,10.8521,6.4489,1.8059,1.2864,3.5458,2.6548,5.2739,4.0387,1.0028.8031,1.9413,1.6864,2.91,2.5323,2.0023,1.7485,3.8744,3.6365,5.8252,5.4383,1.6949,1.5654,3.233,3.2746,4.8138,4.9408,2.0128,2.1214,3.862,4.394,5.6548,6.7102,1.7405,2.2486,3.5412,4.4506,5.3042,6.6819,1.3051,1.6517,2.5772,3.3295,3.8917,4.9736,1.2978,1.6232,2.6456,3.2065,3.943,4.83,1.1278,1.4113,2.3082,2.7783,3.5258,4.1085,1.0898,1.1905,2.2282,2.3393,3.456,3.3991.8488.7326,1.6889,1.475,2.5455,2.1998,1.4656,1.2401,3.0343,2.3343,4.6291,3.3941,1.5966,1.061,3.2554,2.0194,4.968,2.8791,1.9569.9823,3.9781,1.8211,6.0506,2.5252,1.8612.6323,3.7664,1.1287,5.6957,1.4925,1.4169.2672,2.845.5156,4.2968.5617.3941.0125.7854.1171,1.1749.179-.0072.0624-.0006.106-.0149.1145-.5631.3351-1.1258.671-1.6933.9987-19.5851,11.3104-39.1706,22.62-58.7172,33.9072-.2782-.1435-.2174-.3267-.1787-.469.3936-1.4481.6842-2.9195,1.008-4.3834.3061-1.3839.5594-2.7771.7835-4.1763.2024-1.2639.4327-2.5237.6124-3.7907.1531-1.0797.2064-2.1749.3897-3.2485.1337-.7831.0566-1.5853.2725-2.3549.0146-.0521.0207-.1091.0179-.1631-.0511-.9889.1282-1.9649.2096-2.943.107-1.2847.0527-2.5749.174-3.8509.2108-2.2173.0811-4.4344.1283-6.6509.0157-.74-.021-1.4812-.0065-2.2212.0296-1.5072-.1426-3.0059-.2033-4.5087-.0571-1.4143-.1338-2.8378-.3102-4.2449-.1594-1.271-.2308-2.5504-.4311-3.8185-.14-.8862-.2282-1.7834-.3458-2.6752-.2247-1.7039-.5297-3.3939-.8717-5.0749-.402-1.976-.8474-3.9456-1.3532-5.8975-.6987-2.6965-1.5523-5.3491-2.4818-7.9752-.8118-2.2935-1.7257-4.5463-2.7103-6.7722-.9647-2.1809-2.0339-4.3104-3.1544-6.4113-1.6103-3.0194-3.4411-5.9058-5.4292-8.6943-.9535-1.3373-1.9518-2.6383-2.9863-3.9106-1.279-1.573-2.6525-3.0625-4.1018-4.4834-1.1935-1.17-2.3831-2.3411-3.7039-3.3704-.1257-.0979-.2706-.1935-.314-.3971Z"/>
        <path class="cls-1"
              d="m23.6712,124.954c-.0011-8.7755.0026-17.551-.0096-26.3265-.0014-1.014.3205-1.8584,1.0027-2.605,1.1462-1.2544,2.4259-2.3641,3.6747-3.5098,1.8418-1.6898,3.8623-3.1349,5.9567-4.4853,3.1533-2.033,6.5465-3.5097,10.2094-4.3339.8475-.1907,1.7124-.3179,2.5821-.4169.7088-.0807,1.414-.1116,2.1235-.1456,1.803-.0864,3.531.2914,5.2335.8185,2.072.6415,4.0298,1.5385,5.912,2.6202,1.9045,1.0945,3.6634,2.3794,5.3613,3.7682,1.6592,1.3571,3.1952,2.8392,4.6525,4.4007,1.0253,1.0986,1.9892,2.2583,2.9292,3.4318,1.4195,1.772,2.7317,3.6239,3.9562,5.5375,1.2097,1.8905,2.3299,3.831,3.3991,5.805.7701,1.4219,1.4537,2.8825,2.1489,4.339.931,1.9503,1.7395,3.9524,2.4941,5.9762.5726,1.5358,1.0978,3.088,1.605,4.647.4647,1.4282.878,2.866,1.1037,4.353.0064.0423-.034.0918-.0534.1398-.1867-.0265-.2646-.1838-.3606-.3111-.9888-1.3111-2.0618-2.5502-3.1447-3.7845-.978-1.1148-2.0191-2.1637-3.0817-3.1919-1.1802-1.1421-2.4604-2.1701-3.7805-3.1475-1.7388-1.2873-3.5663-2.4433-5.4219-3.5474-2.2596-1.3445-4.6294-2.4712-7.1016-3.3873-2.0543-.7612-4.1586-1.3312-6.3028-1.7377-1.148-.2177-2.3181-.3368-3.4918-.4218-1.0384-.0752-2.0731-.1227-3.1123-.1204-1.1218.0026-2.2285.166-3.3411.284-1.4984.159-2.9634.4672-4.4087.8673-1.5273.4228-3.0238.9409-4.482,1.5712-.981.424-1.9423.8855-2.8929,1.3712-2.2722,1.1608-4.4017,2.5367-6.4034,4.1247-1.3792,1.0942-2.6557,2.2917-3.84,3.5833-1.0896,1.1883-2.0977,2.4504-2.9462,3.8296-.0565.0014-.113.0028-.1695.0042Z"/>
        <path class="cls-1"
              d="m61.625,121.946c.1938.666-.0785,1.1836-.1459,1.7149-.0889.7013-.1981,1.402-.304,2.1012-.2316,1.5291-.1282,3.0614-.154,4.5924-.031,1.8438.2993,3.6414.7418,5.4199.6562,2.6367,1.8276,5.0412,3.46,7.1999,1.3432,1.7761,2.9351,3.3216,4.7528,4.6244,2.1078,1.5107,4.3973,2.6579,6.8715,3.4289,1.4339.4468,2.8984.7389,4.3926.9379,1.6706.2224,3.3394.1804,5.0027.1013,1.3842-.0658,2.7556-.3488,4.1027-.7094.3361-.0899.6678-.2275,1.0018-.2182.1329.1342.1261.2736.1265.4094.006,2.2999.2805,4.5967.1427,6.8961-.1017,1.696-.0653,3.3955-.1761,5.0869-.0572.8727-.0167,1.7605-.1626,2.6145-.1529.8949-.0678,1.7979-.2485,2.6908-.1283.6334-.1132,1.3012-.1843,1.9538-.1359,1.247-.2755,2.4914-.485,3.7288-.141.8328-.2327,1.6738-.36,2.5092-.2463,1.6167-.5365,3.2256-.8863,4.8234-.1982.9051-.4005,1.8093-.5975,2.7147-.0467.2147-.1004.4227-.3166.6206-.3453-.1763-.7165-.3455-1.0681-.5485-2.4165-1.3953-4.838-2.7823-7.2401-4.2021-2.2131-1.3081-4.4076-2.6479-6.6037-3.9845-2.1502-1.3086-4.253-2.6916-6.3286-4.1149-1.9399-1.3302-3.8423-2.7132-5.6418-4.2309-.7943-.6699-1.607-1.3252-2.3421-2.0567-1.9475-1.9379-3.59-4.1217-5.0492-6.4469-.8895-1.4174-1.6695-2.8938-2.3743-4.4086-1.1568-2.4861-1.9681-5.0837-2.5564-7.7638-.5463-2.4886-.5513-4.9977-.4439-7.5123.0428-1.002.2392-2.0049.504-2.9793.402-1.4794.9086-2.9257,1.6312-4.2819.7087-1.3301,1.5523-2.5725,2.496-3.7521.7744-.9681,1.641-1.8466,2.5538-2.6712,1.7857-1.6131,3.7168-3.0378,5.889-4.2878Z"/>
        <path class="cls-1"
              d="m93.5381,85.5802c-.4191-1.1565-.7072-2.2837-1.0254-3.4046-.508-1.7896-1.1114-3.5455-1.788-5.2739-.7378-1.8848-1.5561-3.7384-2.5082-5.5276-1.4926-2.8047-3.1711-5.4886-5.075-8.0386-2.0423-2.7353-4.4073-5.1661-6.8914-7.4839-1.1773-1.0985-2.4519-2.096-3.7705-3.0286-.8259-.5841-1.6257-1.2071-2.5179-1.6935-.0612-.0334-.0944-.118-.1606-.205,10.7296-5.06,18.5549-12.9865,23.5819-23.8201.4222.676.6719,1.3267.9981,1.9348.3363.6269.641,1.2688,1.0034,1.884.3745.6359.7245,1.2867,1.1268,1.9067.3869.5962.7626,1.2001,1.1629,1.787.4004.587.8142,1.1658,1.2426,1.7327.4284.5669.8773,1.1184,1.3261,1.6696.4487.5511.8918,1.1082,1.3676,1.6352.4957.5491,1.0234,1.0697,1.5449,1.595.5023.5059,1.0017,1.0159,1.5262,1.4983.523.4811,1.0691.9379,1.6169,1.3909.5476.4529,1.1036.8961,1.6676,1.3284.5642.4325,1.1343.8584,1.7174,1.2648.5832.4065,1.1773.7986,1.7818,1.1726.6278.3884,1.2688.7562,1.9132,1.1168.6208.3474,1.2517.6769,1.8811,1.0087.6193.3266,1.2735.589,1.9115.9771-.3242.3638-.6952.5473-1.0293.7686-1.393.9227-2.7168,1.9321-3.9893,3.0156-1.3354,1.137-2.647,2.2988-3.8543,3.5706-1.9039,2.0056-3.6717,4.1247-5.2706,6.3848-1.3924,1.9682-2.6391,4.0214-3.7983,6.1352-1.981,3.612-3.4811,7.4194-4.719,11.3371-.271.8575-.4763,1.7357-.719,2.6024-.0718.2565-.168.5062-.253.7591Z"/>
        <path class="cls-1"
              d="m107.7717,110.9558c.2365-.014.4139.131.6027.2346.911.5,1.8104,1.0216,2.728,1.5092,1.3049.6934,2.6069,1.3955,3.9374,2.0373,2.5853,1.2471,5.1851,2.4616,7.8424,3.5549,2.3005.9465,4.6216,1.8335,6.9802,2.616,3.0297,1.0052,6.1064,1.8444,9.2542,2.4053,1.1808.2104,2.3611.3983,3.5582.5097,1.4409.1341,2.8775.3052,4.3271.2865,1.4473-.0187,2.8869-.1389,4.3274-.2876,1.1147-.1151,2.2126-.3034,3.3093-.5154,2.2572-.4364,4.4503-1.0882,6.5758-1.9653.5263-.2172,1.0508-.4385,1.5614-.6518.0639.0687.1287.1055.1297.144.0261,1.0374.1598,2.067.157,3.1088-.0178,6.5795-.009,13.1591-.0091,19.7386,0,.1919.0097.3844-.0023.5756-.0452.7214-.3196,1.3265-.9356,1.7379-1.2308.8221-2.5672,1.3261-4.0677,1.322-.5209-.0014-1.0418.0026-1.5626-.0015-1.1752-.0092-2.3378-.1676-3.5053-.2792-1.4153-.1353-2.8034-.3975-4.1927-.6814-1.8772-.3835-3.7-.9476-5.4914-1.6118-1.7706-.6564-3.4948-1.4255-5.1576-2.3239-2.482-1.341-4.852-2.8527-7.0678-4.6057-1.3316-1.0536-2.5842-2.1931-3.8522-3.3197-1.0908-.9693-2.0268-2.0744-3.0192-3.1268-1.0103-1.0715-1.8996-2.2576-2.8348-3.3992-1.0221-1.2478-2.042-2.4975-3.0519-3.7551-.9413-1.1721-1.8685-2.3556-2.8016-3.5343-.9499-1.2001-1.8992-2.4007-2.8493-3.6007-.8994-1.1358-1.7889-2.2796-2.7031-3.4034-.5688-.6993-1.1778-1.3658-1.7635-2.0515-.1716-.201-.4477-.3406-.4212-.668l-.0019.0018Z"/>
        <path class="cls-5"
              d="m49.8418,162.9608c-.5907-.0966-1.0161-.5162-1.5105-.7939-1.5731-.8837-3.1239-1.8069-4.6843-2.7132-1.8442-1.0712-3.6898-2.1402-5.5342-3.2111-1.2058-.7002-2.4098-1.4034-3.6161-2.1028-1.7031-.9874-3.4067-1.9738-5.1115-2.9583-1.1366-.6564-2.2783-1.304-3.4116-1.966-.3295-.1924-.6587-.3956-.9521-.6374-.9198-.7578-1.422-1.7151-1.3403-2.9388.0219-.3275-.0023-.6578.0043-.9867.027-1.3377.1506-2.6672.2837-3.9985.1089-1.0891.3067-2.1571.5216-3.2257.362-1.7995.9451-3.5278,1.6344-5.2265.735-1.8114,1.7035-3.4893,2.8457-5.0663,1.2392-1.7109,2.6535-3.2582,4.2654-4.639,1.9659-1.6841,4.1157-3.0833,6.3987-4.271,2.6265-1.3664,5.3881-2.4081,8.307-2.9561,1.3656-.2564,2.751-.4349,4.1526-.3866.6024.0207,1.206.0069,1.8091.005,1.9225-.0061,3.8014.3106,5.6614.7644.3659.0893.7274.1967,1.0709.2903.0319.2372-.1217.2752-.2332.3378-1.9123,1.0727-3.7242,2.2869-5.3964,3.7127-1.5043,1.2826-2.8766,2.6884-4.1767,4.1753-1.118,1.2787-2.1791,2.6008-3.1224,4.0088-1.0965,1.6367-2.0769,3.3425-2.7997,5.1877-.619,1.58-1.1269,3.192-1.429,4.86-.116.6404-.169,1.2996-.2582,1.9447-.1399,1.0123-.1159,2.0192-.1291,3.0294-.0204,1.561.2164,3.0945.447,4.6354.3129,2.0908.9197,4.0995,1.5746,6.0914.8934,2.7171,2.2238,5.229,3.8539,7.5802.2493.3596.4949.7217.7483,1.0784.0821.1155.1452.2304.1264.3765h.0002Z"/>
        <path class="cls-5"
              d="m106.6652,69.255c-.1018-.2091.0158-.36.1237-.5241.8267-1.2575,1.6936-2.4837,2.6425-3.6547,1.173-1.4474,2.3731-2.8708,3.7219-4.1559,2.3844-2.2718,4.9558-4.2969,7.8511-5.898,1.0324-.5709,2.0906-1.0766,3.1677-1.5496.1231-.054.2534-.0915.4138-.1486.7471.3079,1.5154.5935,2.2575.9359,2.7396,1.264,5.3579,2.7442,7.8295,4.4777,1.6345,1.1464,3.2392,2.3302,4.7639,3.6239,1.0233.8682,2.0156,1.7676,3.0123,2.6649.9585.863,1.8963,1.7454,2.7732,2.6862,1.2494,1.3404,2.4944,2.6843,3.675,4.09,2.0793,2.4758,3.999,5.0645,5.7553,7.776,1.6686,2.5762,3.1707,5.2475,4.4636,8.0314.9329,2.0085,1.7764,4.0575,2.426,6.1768.5515,1.7993,1.007,3.6214,1.2324,5.5001.0811.676.1536,1.3384.1247,2.0152-.2142.01-.2623-.128-.3208-.2467-.8854-1.7949-1.9363-3.4958-3.0356-5.1619-1.0385-1.5738-2.156-3.0946-3.3322-4.5732-1.6748-2.1055-3.5261-4.0426-5.4346-5.9325-1.8326-1.8147-3.8087-3.4588-5.8809-4.9856-2.7372-2.0167-5.6302-3.7866-8.6985-5.2563-1.7749-.8502-3.5875-1.6131-5.4489-2.264-1.8572-.6495-3.7304-1.2344-5.6528-1.6509-1.038-.2249-2.0858-.4042-3.1297-.6014-.7227-.1366-1.4439-.2838-2.1702-.3983-.6725-.106-1.3506-.1773-2.0268-.2591-.7843-.0949-1.5691-.1851-2.3539-.2763-.6776-.0788-1.3625-.1524-2.037-.1809-2.0224-.0855-4.0434-.2813-6.072-.1844-.2141.0102-.44.0566-.6401-.0758Z"/>
        <path class="cls-5"
              d="m162.8505,115.0363c-.3836.3352-.8952.5542-1.3741.7941-1.8358.9197-3.7517,1.6573-5.7484,2.1356-1.4545.3484-2.9315.5911-4.4268.7574-1.999.2223-3.996.1685-5.9877.0906-1.2156-.0475-2.4384-.2074-3.6532-.3972-1.3468-.2104-2.688-.4408-4.0211-.7183-.9062-.1887-1.8033-.4209-2.7044-.6342-.1031-.0244-.2166-.0316-.2746-.1541.4129-.8212.8527-1.6368,1.2394-2.4769.917-1.992,1.5632-4.0751,1.99-6.2242.2709-1.3643.4488-2.7381.5434-4.1316.0594-.8741.1689-1.7545.0804-2.6161-.1058-1.0308-.0859-2.0683-.2519-3.0979-.121-.7508-.2197-1.5077-.3344-2.2618-.2881-1.8946-.7779-3.7359-1.3739-5.5512-1.1943-3.6381-2.9219-7.0087-5.1388-10.1282-.3638-.5119-.7703-.9934-1.1542-1.4912-.0786-.1019-.1447-.2136-.2394-.3549.3763-.0958.6396.0971.9055.1975,2.1009.7937,4.1426,1.725,6.1109,2.8038,2.4731,1.3554,4.8028,2.9282,7.0334,4.6607,2.3461,1.8222,4.4535,3.8919,6.469,6.0555,1.2656,1.3586,2.3905,2.8436,3.4867,4.3469,2.2493,3.0848,4.1127,6.3945,5.7214,9.8474.7955,1.7076,1.519,3.4506,2.1392,5.2327.3051.8768.5999,1.7571.9076,2.633.0734.209.1578.409.0561.6828Z"/>
        <path class="cls-1"
              d="m107.7736,110.954c-.0719.0005-.1027-.0253-.0925-.0773.0503-.0186.0806.0078.0906.0791l.0019-.0018Z"/>
        <path class="cls-4"
              d="m23.6712,124.954c.0565-.0014.113-.0028.1695-.0042-.0275.0344-.0551.0688-.0828.1032-.029-.033-.0579-.066-.0867-.099Z"/>
        <path class="cls-5"
              d="m49.8416,162.9608c.0717.0009.1017.0276.0898.0801-.0505.0178-.0803-.0089-.0896-.0801h-.0002Z"/>
    </g>
    <g>
        <path class="cls-1"
              d="m255.2058,85.4922c.2781-.0891.4344.054.6007.132,3.828,1.7949,7.411,3.9977,10.8521,6.4489,1.8059,1.2864,3.5458,2.6548,5.2739,4.0387,1.0028.8031,1.9413,1.6864,2.91,2.5323,2.0023,1.7485,3.8744,3.6365,5.8252,5.4383,1.6949,1.5654,3.233,3.2746,4.8138,4.9408,2.0128,2.1214,3.862,4.394,5.6548,6.7102,1.7405,2.2486,3.5412,4.4506,5.3042,6.6819,1.3051,1.6517,2.5772,3.3295,3.8917,4.9736,1.2978,1.6232,2.6456,3.2065,3.943,4.83,1.1278,1.4113,2.3082,2.7783,3.5258,4.1085,1.0898,1.1905,2.2282,2.3393,3.456,3.3991.8488.7326,1.6889,1.475,2.5455,2.1998,1.4656,1.2401,3.0343,2.3343,4.6291,3.3941,1.5966,1.061,3.2554,2.0194,4.968,2.8791,1.9569.9823,3.9781,1.8211,6.0506,2.5252,1.8612.6323,3.7664,1.1287,5.6957,1.4925,1.4169.2672,2.845.5156,4.2968.5617.3941.0125.7854.1171,1.1749.179-.0072.0624-.0006.106-.0149.1145-.5631.3351-1.1258.671-1.6933.9987-19.5851,11.3104-39.1706,22.62-58.7172,33.9072-.2782-.1435-.2174-.3267-.1787-.469.3936-1.4481.6842-2.9195,1.008-4.3834.3061-1.3839.5594-2.7771.7835-4.1763.2024-1.2639.4327-2.5237.6124-3.7907.1531-1.0797.2064-2.1749.3897-3.2485.1337-.7831.0566-1.5853.2725-2.3549.0146-.0521.0207-.1091.0179-.1631-.0511-.9889.1282-1.9649.2096-2.943.107-1.2847.0527-2.5749.174-3.8509.2108-2.2173.0811-4.4344.1283-6.6509.0157-.74-.021-1.4812-.0065-2.2212.0296-1.5072-.1426-3.0059-.2033-4.5087-.0571-1.4143-.1338-2.8378-.3102-4.2449-.1594-1.271-.2308-2.5504-.4311-3.8185-.14-.8862-.2282-1.7834-.3458-2.6752-.2247-1.7039-.5297-3.3939-.8717-5.0749-.402-1.976-.8474-3.9456-1.3532-5.8975-.6987-2.6965-1.5523-5.3491-2.4818-7.9752-.8118-2.2935-1.7257-4.5463-2.7103-6.7722-.9647-2.1809-2.0339-4.3104-3.1544-6.4113-1.6103-3.0194-3.4411-5.9058-5.4292-8.6943-.9535-1.3373-1.9518-2.6383-2.9863-3.9106-1.279-1.573-2.6525-3.0625-4.1018-4.4834-1.1935-1.17-2.3831-2.3411-3.7039-3.3704-.1257-.0979-.2706-.1935-.314-.3971Z"/>
        <path class="cls-1"
              d="m210.2033,124.954c-.0011-8.7755.0026-17.551-.0096-26.3265-.0014-1.014.3205-1.8584,1.0027-2.605,1.1462-1.2544,2.4259-2.3641,3.6747-3.5098,1.8418-1.6898,3.8623-3.1349,5.9567-4.4853,3.1533-2.033,6.5465-3.5097,10.2094-4.3339.8475-.1907,1.7124-.3179,2.5821-.4169.7088-.0807,1.414-.1116,2.1235-.1456,1.803-.0864,3.531.2914,5.2335.8185,2.072.6415,4.0298,1.5385,5.912,2.6202,1.9045,1.0945,3.6634,2.3794,5.3613,3.7682,1.6592,1.3571,3.1952,2.8392,4.6525,4.4007,1.0253,1.0986,1.9892,2.2583,2.9292,3.4318,1.4195,1.772,2.7317,3.6239,3.9562,5.5375,1.2097,1.8905,2.3299,3.831,3.3991,5.805.7701,1.4219,1.4537,2.8825,2.1489,4.339.931,1.9503,1.7395,3.9524,2.4941,5.9762.5726,1.5358,1.0978,3.088,1.605,4.647.4647,1.4282.878,2.866,1.1037,4.353.0064.0423-.034.0918-.0534.1398-.1867-.0265-.2646-.1838-.3606-.3111-.9888-1.3111-2.0618-2.5502-3.1447-3.7845-.978-1.1148-2.0191-2.1637-3.0817-3.1919-1.1802-1.1421-2.4604-2.1701-3.7805-3.1475-1.7388-1.2873-3.5663-2.4433-5.4219-3.5474-2.2596-1.3445-4.6294-2.4712-7.1016-3.3873-2.0543-.7612-4.1586-1.3312-6.3028-1.7377-1.148-.2177-2.3181-.3368-3.4918-.4218-1.0384-.0752-2.0731-.1227-3.1123-.1204-1.1218.0026-2.2285.166-3.3411.284-1.4984.159-2.9634.4672-4.4087.8673-1.5273.4228-3.0238.9409-4.482,1.5712-.981.424-1.9423.8855-2.8929,1.3712-2.2722,1.1608-4.4017,2.5367-6.4034,4.1247-1.3792,1.0942-2.6557,2.2917-3.84,3.5833-1.0896,1.1883-2.0977,2.4504-2.9462,3.8296-.0565.0014-.113.0028-.1695.0042Z"/>
        <path class="cls-1"
              d="m248.1571,121.946c.1938.666-.0785,1.1836-.1459,1.7149-.0889.7013-.1981,1.402-.304,2.1012-.2316,1.5291-.1282,3.0614-.154,4.5924-.031,1.8438.2993,3.6414.7418,5.4199.6562,2.6367,1.8276,5.0412,3.46,7.1999,1.3432,1.7761,2.9351,3.3216,4.7528,4.6244,2.1078,1.5107,4.3973,2.6579,6.8715,3.4289,1.4339.4468,2.8984.7389,4.3926.9379,1.6706.2224,3.3394.1804,5.0027.1013,1.3842-.0658,2.7556-.3488,4.1027-.7094.3361-.0899.6678-.2275,1.0018-.2182.1329.1342.1261.2736.1265.4094.006,2.2999.2805,4.5967.1427,6.8961-.1017,1.696-.0653,3.3955-.1761,5.0869-.0572.8727-.0167,1.7605-.1626,2.6145-.1529.8949-.0678,1.7979-.2485,2.6908-.1283.6334-.1132,1.3012-.1843,1.9538-.1359,1.247-.2755,2.4914-.485,3.7288-.141.8328-.2327,1.6738-.36,2.5092-.2463,1.6167-.5365,3.2256-.8863,4.8234-.1982.9051-.4005,1.8093-.5975,2.7147-.0467.2147-.1004.4227-.3166.6206-.3453-.1763-.7165-.3455-1.0681-.5485-2.4165-1.3953-4.838-2.7823-7.2401-4.2021-2.2131-1.3081-4.4076-2.6479-6.6037-3.9845-2.1502-1.3086-4.253-2.6916-6.3286-4.1149-1.9399-1.3302-3.8423-2.7132-5.6418-4.2309-.7943-.6699-1.607-1.3252-2.3421-2.0567-1.9475-1.9379-3.59-4.1217-5.0492-6.4469-.8895-1.4174-1.6695-2.8938-2.3743-4.4086-1.1568-2.4861-1.9681-5.0837-2.5564-7.7638-.5463-2.4886-.5513-4.9977-.4439-7.5123.0428-1.002.2392-2.0049.504-2.9793.402-1.4794.9086-2.9257,1.6312-4.2819.7087-1.3301,1.5523-2.5725,2.496-3.7521.7744-.9681,1.641-1.8466,2.5538-2.6712,1.7857-1.6131,3.7168-3.0378,5.889-4.2878Z"/>
        <path class="cls-1"
              d="m280.0702,85.5802c-.4191-1.1565-.7072-2.2837-1.0254-3.4046-.508-1.7896-1.1114-3.5455-1.788-5.2739-.7378-1.8848-1.5561-3.7384-2.5082-5.5276-1.4926-2.8047-3.1711-5.4886-5.075-8.0386-2.0423-2.7353-4.4073-5.1661-6.8914-7.4839-1.1773-1.0985-2.4519-2.096-3.7705-3.0286-.8259-.5841-1.6257-1.2071-2.5179-1.6935-.0612-.0334-.0944-.118-.1606-.205,10.7296-5.06,18.5549-12.9865,23.5819-23.8201.4222.676.6719,1.3267.9981,1.9348.3363.6269.641,1.2688,1.0034,1.884.3745.6359.7245,1.2867,1.1268,1.9067.3869.5962.7626,1.2001,1.1629,1.787.4004.587.8142,1.1658,1.2426,1.7327.4284.5669.8773,1.1184,1.3261,1.6696.4487.5511.8918,1.1082,1.3676,1.6352.4957.5491,1.0234,1.0697,1.5449,1.595.5023.5059,1.0017,1.0159,1.5262,1.4983.523.4811,1.0691.9379,1.6169,1.3909.5476.4529,1.1036.8961,1.6676,1.3284.5642.4325,1.1343.8584,1.7174,1.2648.5832.4065,1.1773.7986,1.7818,1.1726.6278.3884,1.2688.7562,1.9132,1.1168.6208.3474,1.2517.6769,1.8811,1.0087.6193.3266,1.2735.589,1.9115.9771-.3242.3638-.6952.5473-1.0293.7686-1.393.9227-2.7168,1.9321-3.9893,3.0156-1.3354,1.137-2.647,2.2988-3.8543,3.5706-1.9039,2.0056-3.6717,4.1247-5.2706,6.3848-1.3924,1.9682-2.6391,4.0214-3.7983,6.1352-1.981,3.612-3.4811,7.4194-4.719,11.3371-.271.8575-.4763,1.7357-.719,2.6024-.0718.2565-.168.5062-.253.7591Z"/>
        <path class="cls-1"
              d="m294.3038,110.9558c.2365-.014.4139.131.6027.2346.911.5,1.8104,1.0216,2.728,1.5092,1.3049.6934,2.6069,1.3955,3.9374,2.0373,2.5853,1.2471,5.1851,2.4616,7.8424,3.5549,2.3005.9465,4.6216,1.8335,6.9802,2.616,3.0297,1.0052,6.1064,1.8444,9.2542,2.4053,1.1808.2104,2.3611.3983,3.5582.5097,1.4409.1341,2.8775.3052,4.3271.2865,1.4473-.0187,2.8869-.1389,4.3274-.2876,1.1147-.1151,2.2126-.3034,3.3093-.5154,2.2572-.4364,4.4503-1.0882,6.5758-1.9653.5263-.2172,1.0508-.4385,1.5614-.6518.0639.0687.1287.1055.1297.144.0261,1.0374.1598,2.067.157,3.1088-.0178,6.5795-.009,13.1591-.0091,19.7386,0,.1919.0097.3844-.0023.5756-.0452.7214-.3196,1.3265-.9356,1.7379-1.2308.8221-2.5672,1.3261-4.0677,1.322-.5209-.0014-1.0418.0026-1.5626-.0015-1.1752-.0092-2.3378-.1676-3.5053-.2792-1.4153-.1353-2.8034-.3975-4.1927-.6814-1.8772-.3835-3.7-.9476-5.4914-1.6118-1.7706-.6564-3.4948-1.4255-5.1576-2.3239-2.482-1.341-4.852-2.8527-7.0678-4.6057-1.3316-1.0536-2.5842-2.1931-3.8522-3.3197-1.0908-.9693-2.0268-2.0744-3.0192-3.1268-1.0103-1.0715-1.8996-2.2576-2.8348-3.3992-1.0221-1.2478-2.042-2.4975-3.0519-3.7551-.9413-1.1721-1.8685-2.3556-2.8016-3.5343-.9499-1.2001-1.8992-2.4007-2.8493-3.6007-.8994-1.1358-1.7889-2.2796-2.7031-3.4034-.5688-.6993-1.1778-1.3658-1.7635-2.0515-.1716-.201-.4477-.3406-.4212-.668l-.0019.0018Z"/>
        <path class="cls-5"
              d="m236.3739,162.9608c-.5907-.0966-1.0161-.5162-1.5105-.7939-1.5731-.8837-3.1239-1.8069-4.6843-2.7132-1.8442-1.0712-3.6898-2.1402-5.5342-3.2111-1.2058-.7002-2.4098-1.4034-3.6161-2.1028-1.7031-.9874-3.4067-1.9738-5.1115-2.9583-1.1366-.6564-2.2783-1.304-3.4116-1.966-.3295-.1924-.6587-.3956-.9521-.6374-.9198-.7578-1.422-1.7151-1.3403-2.9388.0219-.3275-.0023-.6578.0043-.9867.027-1.3377.1506-2.6672.2837-3.9985.1089-1.0891.3067-2.1571.5216-3.2257.362-1.7995.9451-3.5278,1.6344-5.2265.735-1.8114,1.7035-3.4893,2.8457-5.0663,1.2392-1.7109,2.6535-3.2582,4.2654-4.639,1.9659-1.6841,4.1157-3.0833,6.3987-4.271,2.6265-1.3664,5.3881-2.4081,8.307-2.9561,1.3656-.2564,2.751-.4349,4.1526-.3866.6024.0207,1.206.0069,1.8091.005,1.9225-.0061,3.8014.3106,5.6614.7644.3659.0893.7274.1967,1.0709.2903.0319.2372-.1217.2752-.2332.3378-1.9123,1.0727-3.7242,2.2869-5.3964,3.7127-1.5043,1.2826-2.8766,2.6884-4.1767,4.1753-1.118,1.2787-2.1791,2.6008-3.1224,4.0088-1.0965,1.6367-2.0769,3.3425-2.7997,5.1877-.619,1.58-1.1269,3.192-1.429,4.86-.116.6404-.169,1.2996-.2582,1.9447-.1399,1.0123-.1159,2.0192-.1291,3.0294-.0204,1.561.2164,3.0945.447,4.6354.3129,2.0908.9197,4.0995,1.5746,6.0914.8934,2.7171,2.2238,5.229,3.8539,7.5802.2493.3596.4949.7217.7483,1.0784.0821.1155.1452.2304.1264.3765h.0002Z"/>
        <path class="cls-5"
              d="m293.1973,69.255c-.1018-.2091.0158-.36.1237-.5241.8267-1.2575,1.6936-2.4837,2.6425-3.6547,1.173-1.4474,2.3731-2.8708,3.7219-4.1559,2.3844-2.2718,4.9558-4.2969,7.8511-5.898,1.0324-.5709,2.0906-1.0766,3.1677-1.5496.1231-.054.2534-.0915.4138-.1486.7471.3079,1.5154.5935,2.2575.9359,2.7396,1.264,5.3579,2.7442,7.8295,4.4777,1.6345,1.1464,3.2392,2.3302,4.7639,3.6239,1.0233.8682,2.0156,1.7676,3.0123,2.6649.9585.863,1.8963,1.7454,2.7732,2.6862,1.2494,1.3404,2.4944,2.6843,3.675,4.09,2.0793,2.4758,3.999,5.0645,5.7553,7.776,1.6686,2.5762,3.1707,5.2475,4.4636,8.0314.9329,2.0085,1.7764,4.0575,2.426,6.1768.5515,1.7993,1.007,3.6214,1.2324,5.5001.0811.676.1536,1.3384.1247,2.0152-.2142.01-.2623-.128-.3208-.2467-.8854-1.7949-1.9363-3.4958-3.0356-5.1619-1.0385-1.5738-2.156-3.0946-3.3322-4.5732-1.6748-2.1055-3.5261-4.0426-5.4346-5.9325-1.8326-1.8147-3.8087-3.4588-5.8809-4.9856-2.7372-2.0167-5.6302-3.7866-8.6985-5.2563-1.7749-.8502-3.5875-1.6131-5.4489-2.264-1.8572-.6495-3.7304-1.2344-5.6528-1.6509-1.038-.2249-2.0858-.4042-3.1297-.6014-.7227-.1366-1.4439-.2838-2.1702-.3983-.6725-.106-1.3506-.1773-2.0268-.2591-.7843-.0949-1.5691-.1851-2.3539-.2763-.6776-.0788-1.3625-.1524-2.037-.1809-2.0224-.0855-4.0434-.2813-6.072-.1844-.2141.0102-.44.0566-.6401-.0758Z"/>
        <path class="cls-5"
              d="m349.3826,115.0363c-.3836.3352-.8952.5542-1.3741.7941-1.8358.9197-3.7517,1.6573-5.7484,2.1356-1.4545.3484-2.9315.5911-4.4268.7574-1.999.2223-3.996.1685-5.9877.0906-1.2156-.0475-2.4384-.2074-3.6532-.3972-1.3468-.2104-2.688-.4408-4.0211-.7183-.9062-.1887-1.8033-.4209-2.7044-.6342-.1031-.0244-.2166-.0316-.2746-.1541.4129-.8212.8527-1.6368,1.2394-2.4769.917-1.992,1.5632-4.0751,1.99-6.2242.2709-1.3643.4488-2.7381.5434-4.1316.0594-.8741.1689-1.7545.0804-2.6161-.1058-1.0308-.0859-2.0683-.2519-3.0979-.121-.7508-.2197-1.5077-.3344-2.2618-.2881-1.8946-.7779-3.7359-1.3739-5.5512-1.1943-3.6381-2.9219-7.0087-5.1388-10.1282-.3638-.5119-.7703-.9934-1.1542-1.4912-.0786-.1019-.1447-.2136-.2394-.3549.3763-.0958.6396.0971.9055.1975,2.1009.7937,4.1426,1.725,6.1109,2.8038,2.4731,1.3554,4.8028,2.9282,7.0334,4.6607,2.3461,1.8222,4.4535,3.8919,6.469,6.0555,1.2656,1.3586,2.3905,2.8436,3.4867,4.3469,2.2493,3.0848,4.1127,6.3945,5.7214,9.8474.7955,1.7076,1.519,3.4506,2.1392,5.2327.3051.8768.5999,1.7571.9076,2.633.0734.209.1578.409.0561.6828Z"/>
    </g>
</svg>
