<?xml version="1.0" encoding="UTF-8"?>
<svg id="Layer_1" data-name="Layer 1" xmlns="http://www.w3.org/2000/svg" viewBox="0 0 351.6748 211.7743">
    <defs>
        <style>
            .cls-1 {
            fill: #d40037;
            }

            .cls-1, .cls-2, .cls-3, .cls-4, .cls-5, .cls-6, .cls-7, .cls-8, .cls-9, .cls-10 {
            stroke-width: 0px;
            }

            .cls-2 {
            fill: #6a0c24;
            }

            .cls-3 {
            fill: #d50037;
            }

            .cls-4 {
            fill: #161717;
            }

            .cls-5 {
            fill: #ad9d7e;
            }

            .cls-6 {
            fill: #9a062d;
            }

            .cls-7 {
            fill: #880929;
            }

            .cls-8 {
            fill: #770b27;
            }

            .cls-9 {
            fill: #590e21;
            }

            .cls-10 {
            fill: #151616;
            }
        </style>
    </defs>
    <g>
        <path class="cls-5"
              d="m183.4912,158.86c-4.8391,2.7938-9.6654,5.5801-14.4639,8.3504-.3235.6302-.197,1.3096-.3929,1.9243-.2387.7486-.0912,1.5535-.3278,2.2997-.2298.7247-.1362,1.4879-.3059,2.2228-.2098.9086-.2813,1.8412-.3734,2.7702-.09.9079-.2555,1.8082-.3847,2.7124-.038.266-.0686.5332-.0963.8005-.0253.2443-.0908.4742-.2553.7622-17.2306,9.9721-34.5234,19.9803-51.8374,30.0007-.4383-.4093-.6518-.9414-.9323-1.417-1.2545-2.1272-2.7691-4.0432-4.5635-5.7368-.4274-.4034-.8907-.7689-1.381-1.1891-5.4811,3.1174-10.8889,6.2858-16.3841,9.4142-5.5558-3.1538-11.0568-6.3795-16.5671-9.519-.3862.0898-.6179.317-.8569.5322-2.3633,2.1269-4.3549,4.5516-5.8887,7.344-.1288.2345-.2792.4572-.4036.6595-.0607.0212-.0842.0338-.1089.0368-.026.0032-.0555.0035-.0792-.0058-.05-.0197-.0987-.0438-.1454-.0707-17.3122-9.9823-34.6241-19.9649-51.9352-29.9491-.0687-.0396-.1243-.1019-.2284-.1891-.121-.8037-.3423-1.6246-.3942-2.4861-.0515-.856-.2049-1.7066-.3284-2.5575-.1389-.9568-.2521-1.9202-.4549-2.8638-.1867-.869-.1523-1.7565-.3218-2.6253-.1074-.5505-.1768-1.1091-.2867-1.6616-.1043-.5243-.0242-1.0761-.2009-1.5946-.0172-.0505-.0368-.1001-.0736-.2001-4.4625-2.5776-8.96-5.1754-13.5063-7.8014,0-8.8142,0-17.6296,0-26.445,0-8.8463,0-17.6927,0-26.539,0-8.8194-.0146-17.6388.0046-26.4581.0193-8.8156-.0974-17.6319.0976-26.515,2.1956-1.3231,4.4478-2.5807,6.6764-3.8778,2.2342-1.3004,4.478-2.5844,6.7364-3.8864.3838-1.5078.4415-3.0668.6962-4.5948.2605-1.5628.4458-3.1381.6722-4.7068.2225-1.5413.4553-3.0812.6836-4.6217.0127-.0234.0236-.0479.0386-.0697.0152-.0221.0306-.0479.0525-.061.647-.3864,1.2908-.7782,1.9431-1.1555C34.1655,20.318,50.7179,10.7456,67.2709,1.1743c.0453-.0262.1016-.0344.1535-.0479.0258-.0067.0536-.0094.0803-.0083.026.001.0517.0091.147.0275.6553.985,1.2523,2.067,1.964,3.0752.7323,1.0374,1.5467,2.0037,2.4061,2.9341.8409.9103,1.7613,1.7323,2.7125,2.4558.4701-.0239.7731-.2691,1.0935-.4539,3.0096-1.7356,6.0139-3.4805,9.02-5.2223,2.1671-1.2557,4.3345-2.5109,6.5022-3.7655.1151-.0666.2349-.125.306-.1626.3222-.0408.5194.1237.7252.2407,1.2645.7184,2.5243,1.445,3.7841,2.1716,2.2629,1.3052,4.5251,2.6118,6.787,3.9188,1.2126.7007,2.4228,1.4057,3.6366,2.1044.4165.2397.8404.4664,1.2789.709,2.8734-2.2456,4.9024-5.1035,6.5746-8.1534.329-.0852.5051.0427.6927.1513,3.8928,2.253,7.7847,4.5074,11.6814,6.7536,3.3834,1.9504,6.7744,3.8875,10.1583,5.837,2.9637,1.7074,5.9206,3.4265,8.8835,5.1354,2.6364,1.5206,5.2785,3.0314,7.9148,4.5521,2.9861,1.7225,5.9677,3.4528,8.9531,5.1765,1.2363.7138,2.4779,1.4184,3.7159,2.1293.1626.0934.3181.1991.4928.3091.2965.6474.2609,1.3619.3752,2.0442.173,1.0327.3028,2.0727.4438,3.1106.1339.9852.2559,1.9719.3883,2.9573.1216.9053.249,1.8098.3761,2.7144.0859.6117.1825,1.222.2604,1.8346.0307.2415.0324.4856.2641.8063,4.7353,2.7342,9.5837,5.5337,14.4077,8.3191.106.6579.1461,104.5726.0409,106.0318Zm-3.0692-104.2286c-24.1253-13.9247-48.2014-27.8211-72.2846-41.7215-1.987,1.4025-4.0456,2.5672-6.2624,3.438-2.2341.8776-4.5412,1.4488-6.9171,1.8199-2.3623.369-4.7124.2889-7.0672.0924-2.3938-.1998-4.7068-.8032-6.9613-1.6167-2.2358-.8068-4.3216-1.9225-6.2764-3.2089-1.0787.5866-71.0139,40.8813-71.4153,41.2826v102.3486c23.7058,13.6884,47.3885,27.3636,71.0721,41.0372.1392.0804.2903.1401.4365.2083.0242.0113.051.0206.0773.0228.0259.0021.0526-.006.199-.0263,4.9604-3.341,10.5329-5.0905,16.6348-5.0621,6.1303.0285,11.7062,1.842,16.7238,5.3133.9765-.4934,71.5717-41.1704,72.0407-41.6078V54.6314Zm-108.1743,145.8726c-18.3516-10.589-36.5906-21.1132-54.8315-31.6338-.0609-.0351-.1512-.0192-.2275-.027-.1279.2753-.0604.5485-.0263.8082.143,1.0881.2825,2.1777.4706,3.2585.2113,1.2139.3084,2.442.4603,3.6617.0899.722.3113,1.4031.3914,2.1557.814.4739,1.6246.9507,2.4397,1.4194,3.759,2.1613,7.5212,4.3171,11.2787,6.4812,3.3605,1.9355,6.7141,3.883,10.0748,5.8183,3.7576,2.1639,7.5223,4.3157,11.2793,6.4807,4.3168,2.4877,8.6287,4.984,12.9424,7.4772.1413.0817.2811.1613.5233.0903,1.4504-2.1409,3.1049-4.1836,5.2249-5.9905ZM66.5427,5.2719c-.1988.0536-.313.0603-.4015.1116-15.8932,9.2029-31.7845,18.4089-47.6175,27.5811-.2599.7224-.2458,1.4054-.3802,2.0631-.1341.6565-.1698,1.3324-.2754,1.9956-.1001.629-.2564,1.2494-.3484,1.8793-.0967.6624-.1726,1.3301-.2094,1.9982-.0362.6578-.3621,1.277-.2926,1.9304.2594.101.4079-.0246.5715-.1192,1.8886-1.0916,3.7786-2.1807,5.6693-3.2688,2.6376-1.518,5.2778-3.0316,7.9137-4.5526,2.9623-1.7094,5.9191-3.4282,8.8819-5.1368,3.0096-1.7357,6.026-3.4596,9.035-5.1965,3.9885-2.3022,7.9709-4.6149,11.9592-6.9175,3.2887-1.8987,6.5845-3.7851,9.8695-5.6901.3121-.181.6655-.326.9639-.6545-2.1133-1.7356-3.7894-3.7976-5.3389-6.0235Zm97.519,27.6903c-16.0841-9.2573-32.1632-18.5118-48.243-27.7653-.0214-.0123-.0521-.0098-.0786-.0117-.0268-.0018-.0539-.0004-.111-.0004-.0789.0829-.187.168-.2593.2769-1.244,1.871-2.6951,3.5658-4.327,5.108-.0956.0904-.2024.1833-.1249.389.9005.5137,1.8379,1.0421,2.7692,1.5811,3.2396,1.8748,6.4748,3.7573,9.716,5.6293,3.0082,1.7374,6.0244,3.461,9.0326,5.1984,4.0341,2.33,8.0624,4.6701,12.0961,7.0007,3.241,1.8725,6.4888,3.7335,9.7296,5.6064,3.5439,2.0481,7.0833,4.1039,10.6246,6.1564.1375.0797.2717.1792.5047.0302-.3867-2.8907-.7762-5.8131-1.1725-8.7346-.021-.1549-.1002-.3019-.1564-.4645Zm1.2835,136.5371c-.0584-.011-.0875-.0257-.1109-.0193-.0762.0212-.1567.0386-.2241.0775-17.9137,10.3404-35.8264,20.6824-53.7387,31.0252-.0224.013-.043.0347-.0558.0573-.0128.0227-.0148.0515-.0378.1402.8472.8854,1.7796,1.7366,2.598,2.7.8192.9644,1.5418,1.9994,2.3354,3.049,16.0042-9.27,31.9851-18.5264,47.8846-27.7357.2343-.3086.2266-.5822.2556-.8501.1063-.9834.1867-1.9713.3406-2.9474.1823-1.1557.42-2.3021.4748-3.4753.006-.1277.0942-.2496.1146-.3789.0858-.5457.3109-1.0815.1637-1.6424Zm-73.5266,38.7048c4.4713-2.5894,8.8724-5.1377,13.2711-7.6903.0608-.0353.0903-.1246.1341-.1883-3.0033-2.2081-8.4852-4.0492-14.1423-3.9789-4.3865.0544-11.0572,2.0335-12.9506,3.8655.0472.0577.0837.1368.1453.1724,4.4958,2.5989,8.9935,5.1943,13.5425,7.8196ZM77.7763,11.6168c1.6146,1.1877,5.5109,3.0028,10.2973,3.5509,4.2614.488,8.4124-.0586,12.4242-1.5981,2.0177-.7743,3.9997-1.8458,4.4775-2.4177-.9412-.6661-12.619-7.3752-13.2541-7.6037-4.6024,2.663-9.2352,5.3436-13.9449,8.0686Z"/>
        <path class="cls-10"
              d="m180.422,54.6314v102.3198c-.469.4374-71.0642,41.1144-72.0407,41.6078-5.0177-3.4713-10.5935-5.2848-16.7238-5.3133-6.102-.0284-11.6744,1.7211-16.6348,5.0621-.1463.0203-.1731.0284-.199.0263-.0263-.0022-.0531-.0115-.0773-.0228-.1461-.0682-.2973-.1279-.4365-.2083-23.6836-13.6736-47.3663-27.3488-71.0721-41.0372V54.7172c.4014-.4014,70.3366-40.696,71.4153-41.2826,1.9548,1.2865,4.0406,2.4022,6.2764,3.2089,2.2545.8135,4.5674,1.417,6.9613,1.6167,2.3548.1965,4.7048.2767,7.0672-.0924,2.3759-.3712,4.683-.9423,6.9171-1.8199,2.2168-.8708,4.2754-2.0355,6.2624-3.438,24.0831,13.9004,48.1593,27.7968,72.2846,41.7215ZM20.0681,127.0656c.124-.003.2479-.006.3147-.1388.0427-.0352.1255-.0392.1003-.1277-.086-.0353-.1091.0342-.1438.0842-.1307-.0086-.2418.0207-.2988.1546-.0362.033-.155.0297-.054.123.0272-.0318.0544-.0635.0816-.0953Zm62.9175,44.7891c-.0952.0055-.1903.0112-.2433.1151.1236.1021.2175.0589.2974-.059.0632-.0464.1264-.0928.1896-.1391.2604-.0129.4426-.1822.6404-.3203,1.0822-.7554,2.176-1.495,3.2443-2.2697,1.9623-1.4232,3.9307-2.8393,5.858-4.3089,2.7852-2.1238,5.5053-4.3296,8.1596-6.6172,1.8989-1.6366,3.7799-3.2933,5.5912-5.0243,2.7288-2.608,5.4224-5.2535,7.9521-8.059,1.1008-1.2209,2.2183-2.428,3.2828-3.6799,1.9546-2.2986,3.8482-4.6477,5.6518-7.0678,2.1421-2.8741,4.1703-5.8264,6.0726-8.8647.1055-.1685.2896-.3286.1748-.6116-1.3102-.0363-2.6165.1758-3.9304.2354-.5101.0231-1.0305.0264-1.5251.1351-.7599.167-1.5347.1373-2.299.2513-.6573.098-1.3362.0763-2.0077.1448-1.7925.1827-3.5775.4119-5.3618.6591-2.2368.3099-4.4598.6883-6.6748,1.1274-4.3835.869-8.6937,2.0064-12.9347,3.4136-3.2958,1.0935-6.5374,2.3333-9.7777,3.5776-3.3918,1.3025-6.7607,2.6623-10.1132,4.0621-3.0556,1.2758-6.089,2.6032-9.1136,3.9517-3.4931,1.5574-6.9567,3.177-10.3973,4.8453-3.879,1.8809-7.7061,3.8644-11.4684,5.9696-1.6215.9074-3.2119,1.8704-4.8145,2.8116-.119.0699-.3018.1116-.2407.3484.2148.0352.3691-.0936.5281-.1718,2.6347-1.2949,5.2927-2.5382,7.9899-3.6991,3.4129-1.469,6.8728-2.8157,10.3775-4.0473,3.3503-1.1774,6.7415-2.2237,10.1689-3.1548,4.4091-1.1978,8.8633-2.1791,13.3882-2.8226,1.0363-.1474,2.0657-.3849,3.1248-.3262.079.0044.1625-.006.2388-.0274.7837-.2198,1.5974-.2245,2.3954-.2605,1.4535-.0655,2.9114-.0311,4.3675-.0357.1885-.0006.3939-.0312.5625.0307.6652.2443,1.3729.1113,2.0559.2628.4324.0959.9063.1038,1.3449.2203.9914.2633,1.9605.5868,2.7779,1.2475.6833.5524,1.1092,1.2597,1.1587,2.1317.0259.4554.0471.9034.1662,1.2962-.0273.2897-.2033.4877-.1683.748.1078.8007-.154,1.546-.3865,2.2895-.7623,2.4373-1.9877,4.6478-3.3616,6.7824-2.1362,3.3191-4.6486,6.3427-7.3262,9.2306-1.5768,1.7007-3.2413,3.3174-4.9078,4.9306-.1918.1857-.4214.339-.5467.5876-.0834.0239-.1418.0728-.1606.1611Zm-45.2956-14.5466c-.0817.0168-.1968-.0343-.2218.1058.125.0727.1834.0008.2307-.097.0436-.0289.1807-.0046.0692-.1216-.026.0376-.0521.0752-.0781.1128Zm1.1243-.656c-.0968.0137-.1937.0274-.2905.0411-.1885.0925-.471.0912-.464.4584.2162-.032.3495-.1027.4453-.2456.1099-.078.2822-.0669.3312-.2319.0596-.0173.1457-.0072.1202-.1138-.0961-.0421-.1288.0101-.1421.0918Zm-21.3271-8.0533c.2527,0,.4816-.0515.6254-.288.0431-.0514.0863-.1027.1294-.1541-.0415-.0211-.083-.0421-.1245-.0632-.2549.1097-.5255.1965-.6739.4617-.0341.0296-.0994.0833-.0979.0852.0779.1.1045.0113.1416-.0415Zm74.7494,35.583c.4164.0256.7193-.1824.9804-.4765.7291-.4065,1.4636-.8036,2.1863-1.2211,3.2418-1.8727,6.478-3.7551,9.7205-5.6266,3.3826-1.9524,6.7724-3.8926,10.1549-5.8451,4.0357-2.3295,8.0668-4.6669,12.1004-7.0001,2.3081-1.3351,4.6168-2.6695,6.926-4.0029,2.5658-1.4817,5.1321-2.9626,7.699-4.4425,2.6135-1.5068,5.2286-3.0108,7.8419-4.518,2.6599-1.534,5.3194-3.0687,7.977-4.6067.7416-.4292,1.4759-.8709,2.1911-1.2936v-78.8493c-.1066-.0761-.1887-.1456-.2803-.1985-22.4615-12.9723-44.9236-25.9434-67.3862-38.9137-.1631-.0942-.333-.1768-.5007-.2629-.0226-.0116-.0511-.0136-.0773-.0162-.0267-.0027-.0538-.0006-.0965-.0006-.2246.1235-.4633.2487-.6962.3837-1.841,1.067-3.6786,2.1397-5.5216,3.2032-3.0095,1.7366-6.024,3.4645-9.033,5.2018-3.6155,2.0875-7.2259,4.1839-10.8415,6.2714-3.0091,1.7373-6.0245,3.4637-9.0334,5.2014-3.2421,1.8724-6.4776,3.7562-9.7202,5.6277-3.3827,1.9523-6.7728,3.8917-10.1554,5.8442-4.0822,2.3562-8.16,4.7201-12.2397,7.0807-.2194.1-.4816.1461-.6059.4248.2996.0904.461-.0252.5914-.2144.1297-.0362.2639-.0611.3885-.1102,4.5065-1.778,9.0611-3.4224,13.6802-4.8836,2.3332-.7381,4.6671-1.4783,7.0211-2.1451,3.077-.8716,6.1749-1.6673,9.2915-2.3911,2.6186-.6082,5.2471-1.1698,7.8897-1.6529,2.716-.4965,5.4478-.9119,8.1799-1.3131,1.804-.2649,3.6228-.4273,5.4313-.6639,1.2504-.1636,2.5177-.1014,3.7641-.3198.3401-.0596.7174.0597,1.0462-.025.9505-.2449,1.925-.1514,2.8848-.2577,1.2545-.139,2.5286-.142,3.791-.1646,3.8528-.0688,7.7054-.0998,11.561.051,2.3376.0915,4.6614.3689,7,.4043.2139.0032.4268.0617.6409.0682.7764.0235,1.5259.257,2.3131.2437.5682-.0096,1.1392.1398,1.7566.2248-.1597.5805-.3942,1.0613-.6246,1.5418-1.4798,3.0859-3.0439,6.1264-4.7507,9.0953-2.6616,4.6297-5.5897,9.085-8.7201,13.4068-3.4789,4.803-7.2097,9.4076-11.1103,13.874-2.2161,2.5376-4.4879,5.0265-6.8213,7.4556-3.7362,3.8894-7.5714,7.6808-11.5114,11.3648-.7481.6995-1.4938,1.4021-2.2566,2.0854-2.549,2.283-5.0878,4.5781-7.7033,6.7856-2.1413,1.8072-4.2679,3.6329-6.441,5.4012-3.5939,2.9243-7.2351,5.7893-10.9332,8.5821-5.3969,4.0758-10.8879,8.0192-16.4894,11.8084-1.5618,1.0565-3.1467,2.0788-4.7117,3.1307-.1874.1259-.4854.1844-.5054.5191.2859.0054.4791-.1506.689-.2557,3.3962-1.7005,6.7979-3.3898,10.2522-4.9704,2.6934-1.2324,5.3774-2.4869,8.0902-3.6754,4.8072-2.1061,9.6489-4.13,14.5398-6.0374,5.0399-1.9656,10.1139-3.8361,15.2378-5.5683,2.8537-.9647,5.7252-1.8795,8.604-2.7669,2.6976-.8315,5.4067-1.6286,8.1264-2.3846,3.8329-1.0653,7.6912-2.0365,11.5733-2.9065,2.3073-.5171,4.6188-1.022,6.9419-1.461,2.5828-.488,5.1804-.8981,7.7727-1.335.8211-.1384,1.6562-.2081,2.472-.3507,1.4301-.25,2.8703-.4126,4.3078-.5815,1.3553-.1592,2.7142-.334,4.0835-.3585.0539-.001.1127.0082.1608-.0098.7213-.2693,1.4904-.1909,2.2324-.2667,1.739-.1775,3.4891-.2559,5.2364-.3379,1.7487-.0821,3.5009-.0311,5.2508-.1395.9375-.0581,1.8835.0433,2.8232.0588,2.6136.0432,5.2246.1176,7.8248.3788.7444.0747,1.489.1299,2.2335.1942.0368.0032.0685.0659.142.1415-.4836,1.0799-.9579,2.1907-1.4742,3.2817-1.1868,2.5077-2.3952,5.0046-3.7001,7.4545-1.1654,2.1879-2.362,4.3584-3.6189,6.4942-2.3646,4.0183-4.9007,7.9271-7.6013,11.7283-2.8882,4.0653-5.9489,7.9955-9.1852,11.7906-2.3265,2.7283-4.7256,5.3896-7.2044,7.9795-.6898.7208-1.3952,1.4268-2.0963,2.1366-2.4066,2.4365-4.8508,4.8352-7.3839,7.14-1.7936,1.6319-3.6187,3.2296-5.449,4.8204-1.1588,1.0072-2.3517,1.9751-3.5314,2.958-.9305.7753-1.8644,1.5466-2.7967,2.3197-.3145.161-.6237.3285-.801.6569-.042.0288-.1749.0134-.0583.1196.0214-.0379.0428-.0759.0642-.1138ZM30.5743,80.433c.7483-.2172,1.4955-.4384,2.2452-.6507,2.4312-.6884,4.8782-1.3091,7.3602-1.7921,1.6358-.3183,3.2735-.6106,4.9264-.8323,1.4671-.1968,2.9355-.3925,4.4127-.421,1.6355-.0316,3.2725-.1415,4.9113.1177.626.099,1.284.0689,1.9208.1848,1.4116.257,2.7904.6245,4.0167,1.3948,1.5621.9812,2.3615,2.2795,1.9857,4.3758-.2544,1.419-.7296,2.7535-1.3395,4.0462-1.3631,2.8894-3.1513,5.5165-5.0585,8.0633-2.2796,3.0439-4.7782,5.9067-7.3906,8.6664-1.8714,1.9768-3.8106,3.8876-5.8007,5.7484-2.6585,2.4857-5.3921,4.8822-8.2118,7.1819-2.2338,1.8219-4.5086,3.5915-6.8548,5.2662-1.885,1.3455-3.7951,2.6556-5.6941,3.9815q-.7105.37-.969.8354c.4634-.1929.862-.3156,1.1577-.6449.2415-.1177.4891-.2246.7236-.3548,3.604-2.0009,7.1163-4.154,10.5755-6.3943,3.3686-2.1816,6.6901-4.4331,9.9706-6.745,3.2583-2.2962,6.4756-4.6485,9.6591-7.0476,2.9254-2.2046,5.834-4.4307,8.6833-6.733,2.053-1.6589,4.0897-3.3378,6.1387-5.0016,1.9666-1.597,3.8829-3.2538,5.7239-4.9919,2.6071-2.4613,5.1242-5.0121,7.4826-7.7186,1.7175-1.971,3.3869-3.9802,4.9828-6.0491,2.7646-3.5842,5.3397-7.3046,7.8639-11.0605.1311-.195.3181-.3694.2883-.6738-.1579-.0094-.3202-.0507-.4694-.0225-.6942.1311-1.3961.0943-2.0949.1192-1.4253.0509-2.8472.1428-4.2656.2973-.5315.0579-1.0639.1115-1.5941.1687-.6379.0688-1.2843.1189-1.9261.1555-1.4765.0842-2.9181.408-4.3848.5613-1.5158.1584-3.0133.4899-4.5199.7393-2.838.4697-5.6436,1.0932-8.4401,1.7614-2.7982.6686-5.5663,1.444-8.325,2.2609-4.4917,1.3302-8.9001,2.8953-13.2664,4.5842-2.5351.9806-5.0425,2.0306-7.5285,3.1287-2.3147,1.0225-4.6229,2.061-6.8892,3.189-.4039.0977-.7874.2315-1.0474.5989.3602-.0648.7389-.0401,1.0414-.293Zm-13.543,68.3793l.0395.0255.0058-.0385-.0453.013Zm3.764-22.2178c-.0834.0294-.0864.0641-.0109.0955.0116.0048.0385-.027.0583-.0419-.0164-.0186-.0329-.0371-.0475-.0536Z"/>
        <path class="cls-4"
              d="m91.8185,208.2041c-4.5489-2.6253-9.0467-5.2208-13.5425-7.8196-.0616-.0356-.098-.1147-.1453-.1724,1.8934-1.832,8.5641-3.811,12.9506-3.8655,5.6571-.0703,11.139,1.7709,14.1423,3.9789-.0438.0637-.0733.153-.1341.1883-4.3986,2.5526-8.7998,5.1009-13.2711,7.6903Z"/>
        <path class="cls-4"
              d="m77.7763,11.6168c4.7096-2.725,9.3424-5.4056,13.9449-8.0686.6351.2286,12.3129,6.9377,13.2541,7.6037-.4777.5719-2.4597,1.6434-4.4775,2.4177-4.0118,1.5395-8.1628,2.0861-12.4242,1.5981-4.7864-.5481-8.6827-2.3632-10.2973-3.5509Z"/>
        <path class="cls-3"
              d="m24.4319,65.7217c4.0797-2.3606,8.1575-4.7245,12.2397-7.0807,3.3826-1.9524,6.7727-3.8919,10.1554-5.8442,3.2426-1.8715,6.4781-3.7553,9.7202-5.6277,3.0089-1.7377,6.0243-3.4641,9.0334-5.2014,3.6156-2.0874,7.226-4.1838,10.8415-6.2714,3.009-1.7374,6.0236-3.4652,9.033-5.2018,1.843-1.0635,3.6806-2.1362,5.5216-3.2032.233-.135.4716-.2602.6962-.3837.0428,0,.0699-.0021.0965.0006.0262.0026.0546.0046.0773.0162.1677.086.3376.1687.5007.2629,22.4626,12.9703,44.9247,25.9415,67.3862,38.9137.0916.0529.1737.1224.2803.1985v78.8493c-.7152.4227-1.4495.8644-2.1911,1.2936-2.6576,1.538-5.3171,3.0727-7.977,4.6067-2.6133,1.5071-5.2284,3.0112-7.8419,4.518-2.5669,1.4799-5.1331,2.9608-7.699,4.4425-2.3092,1.3334-4.6178,2.6677-6.926,4.0029-4.0336,2.3332-8.0647,4.6706-12.1004,7.0001-3.3826,1.9525-6.7723,3.8927-10.1549,5.8451-3.2425,1.8715-6.4787,3.7539-9.7205,5.6266-.7227.4175-1.4572.8146-2.1863,1.2211-.0618-.0621-.1235-.1241-.1853-.1862.9324-.7731,1.8662-1.5444,2.7967-2.3197,1.1798-.9829,2.3727-1.9508,3.5314-2.958,1.8303-1.5908,3.6554-3.1885,5.449-4.8204,2.5331-2.3047,4.9772-4.7035,7.3839-7.14.7012-.7099,1.4065-1.4159,2.0963-2.1366,2.4787-2.5899,4.8779-5.2512,7.2044-7.9795,3.2362-3.7951,6.2969-7.7253,9.1852-11.7906,2.7007-3.8012,5.2367-7.7101,7.6013-11.7283,1.2568-2.1358,2.4534-4.3063,3.6189-6.4942,1.3049-2.4498,2.5134-4.9468,3.7001-7.4545.5163-1.091.9906-2.2018,1.4742-3.2817-.0735-.0755-.1052-.1383-.142-.1415-.7445-.0643-1.4892-.1194-2.2335-.1942-2.6001-.2611-5.2112-.3355-7.8248-.3788-.9397-.0155-1.8857-.1169-2.8232-.0588-1.7499.1084-3.5021.0574-5.2508.1395-1.7473.082-3.4975.1603-5.2364.3379-.7421.0758-1.5111-.0026-2.2324.2667-.0481.018-.1069.0088-.1608.0098-1.3693.0245-2.7281.1993-4.0835.3585-1.4374.1689-2.8776.3315-4.3078.5815-.8158.1426-1.651.2124-2.472.3507-2.5924.4369-5.1899.847-7.7727,1.335-2.3231.4389-4.6346.9439-6.9419,1.461-3.8822.87-7.7405,1.8411-11.5733,2.9065-2.7197.7559-5.4289,1.553-8.1264,2.3846-2.8788.8874-5.7503,1.8022-8.604,2.7669-5.1239,1.7322-10.1979,3.6028-15.2378,5.5683-4.8909,1.9074-9.7326,3.9313-14.5398,6.0374-2.7128,1.1885-5.3968,2.4429-8.0902,3.6754-3.4543,1.5806-6.8559,3.2699-10.2522,4.9704-.2099.1051-.4031.261-.689.2557.0201-.3348.3181-.3932.5054-.5191,1.565-1.0519,3.1499-2.0742,4.7117-3.1307,5.6015-3.7892,11.0925-7.7327,16.4894-11.8084,3.6981-2.7928,7.3393-5.6578,10.9332-8.5821,2.1732-1.7683,4.2997-3.594,6.441-5.4012,2.6155-2.2075,5.1542-4.5025,7.7033-6.7856.7628-.6832,1.5085-1.3859,2.2566-2.0854,3.94-3.684,7.7752-7.4754,11.5114-11.3648,2.3335-2.4291,4.6052-4.9181,6.8213-7.4556,3.9006-4.4664,7.6313-9.0711,11.1103-13.874,3.1304-4.3218,6.0584-8.7771,8.7201-13.4068,1.7068-2.9688,3.2708-6.0094,4.7507-9.0953.2304-.4805.4649-.9612.6246-1.5418-.6175-.085-1.1884-.2344-1.7566-.2248-.7872.0133-1.5367-.2202-2.3131-.2437-.2141-.0065-.427-.065-.6409-.0682-2.3386-.0355-4.6624-.3129-7-.4043-3.8556-.1508-7.7082-.1198-11.561-.051-1.2624.0226-2.5365.0256-3.791.1646-.9598.1064-1.9343.0128-2.8848.2577-.3288.0847-.7061-.0346-1.0462.025-1.2464.2184-2.5137.1562-3.7641.3198-1.8085.2366-3.6273.399-5.4313.6639-2.7321.4012-5.4639.8166-8.1799,1.3131-2.6426.4831-5.2711,1.0447-7.8897,1.6529-3.1167.7239-6.2145,1.5195-9.2915,2.3911-2.3541.6668-4.6879,1.407-7.0211,2.1451-4.6192,1.4613-9.1737,3.1056-13.6802,4.8836-.1246.0492-.2588.074-.3885.1102.0048-.0701.0097-.1403.0145-.2104Z"/>
        <path class="cls-1"
              d="m22.0032,125.7637c1.899-1.3258,3.8092-2.636,5.6941-3.9815,2.3462-1.6747,4.621-3.4443,6.8548-5.2662,2.8197-2.2997,5.5533-4.6962,8.2118-7.1819,1.9901-1.8608,3.9293-3.7715,5.8007-5.7484,2.6125-2.7597,5.111-5.6225,7.3906-8.6664,1.9072-2.5467,3.6954-5.1739,5.0585-8.0633.6099-1.2927,1.0851-2.6271,1.3395-4.0462.3758-2.0964-.4236-3.3946-1.9857-4.3758-1.2263-.7703-2.6051-1.1377-4.0167-1.3948-.6368-.116-1.2948-.0858-1.9208-.1848-1.6388-.2592-3.2758-.1493-4.9113-.1177-1.4772.0285-2.9456.2242-4.4127.421-1.6528.2217-3.2906.514-4.9264.8323-2.482.483-4.9291,1.1038-7.3602,1.7921-.7497.2123-1.4969.4335-2.2452.6507.002-.102.004-.2039.006-.3059,2.2663-1.128,4.5746-2.1666,6.8892-3.189,2.486-1.0982,4.9934-2.1481,7.5285-3.1287,4.3663-1.6888,8.7746-3.254,13.2664-4.5842,2.7587-.8169,5.5268-1.5923,8.325-2.2609,2.7965-.6682,5.6021-1.2917,8.4401-1.7614,1.5066-.2494,3.0041-.5809,4.5199-.7393,1.4667-.1533,2.9083-.4771,4.3848-.5613.6418-.0366,1.2882-.0866,1.9261-.1555.5301-.0572,1.0626-.1108,1.5941-.1687,1.4184-.1545,2.8403-.2464,4.2656-.2973.6988-.0249,1.4007.0119,2.0949-.1192.1492-.0282.3115.0131.4694.0225.0298.3043-.1572.4787-.2883.6738-2.5242,3.7559-5.0993,7.4763-7.8639,11.0605-1.5958,2.0689-3.2653,4.0781-4.9828,6.0491-2.3584,2.7065-4.8754,5.2573-7.4826,7.7186-1.841,1.738-3.7573,3.3949-5.7239,4.9919-2.049,1.6638-4.0857,3.3428-6.1387,5.0016-2.8493,2.3023-5.7578,4.5284-8.6833,6.733-3.1835,2.3991-6.4008,4.7514-9.6591,7.0476-3.2805,2.3119-6.602,4.5634-9.9706,6.745-3.4592,2.2403-6.9715,4.3934-10.5755,6.3943-.2346.1302-.4821.2371-.7236.3548-.0629-.0635-.1258-.127-.1887-.1904Z"/>
        <path class="cls-1"
              d="m83.1463,171.6936c.1253-.2486.3548-.4018.5467-.5876,1.6665-1.6132,3.331-3.23,4.9078-4.9306,2.6776-2.8879,5.19-5.9115,7.3262-9.2306,1.3739-2.1346,2.5992-4.3451,3.3616-6.7824.2326-.7436.4943-1.4888.3865-2.2895-.035-.2602.141-.4583.1683-.748-.1191-.3928-.1403-.8409-.1662-1.2962-.0496-.872-.4754-1.5794-1.1587-2.1317-.8174-.6607-1.7865-.9842-2.7779-1.2475-.4386-.1165-.9125-.1243-1.3449-.2203-.6831-.1515-1.3907-.0186-2.0559-.2628-.1687-.0619-.374-.0313-.5625-.0307-1.4561.0046-2.9141-.0299-4.3675.0357-.798.036-1.6117.0407-2.3954.2605-.0764.0214-.1598.0318-.2388.0274-1.0591-.0587-2.0884.1788-3.1248.3262-4.5249.6435-8.9791,1.6248-13.3882,2.8226-3.4274.9311-6.8186,1.9774-10.1689,3.1548-3.5047,1.2317-6.9646,2.5783-10.3775,4.0473-2.6972,1.1609-5.3552,2.4042-7.9899,3.6991-.1591.0782-.3133.207-.5281.1718-.0611-.2367.1217-.2785.2407-.3484,1.6025-.9412,3.1929-1.9043,4.8145-2.8116,3.7623-2.1052,7.5894-4.0887,11.4684-5.9696,3.4406-1.6683,6.9042-3.2879,10.3973-4.8453,3.0246-1.3485,6.0579-2.6759,9.1136-3.9517,3.3525-1.3998,6.7214-2.7596,10.1132-4.0621,3.2403-1.2443,6.482-2.484,9.7777-3.5776,4.241-1.4072,8.5512-2.5445,12.9347-3.4136,2.215-.4392,4.438-.8175,6.6748-1.1274,1.7844-.2472,3.5693-.4764,5.3618-.6591.6715-.0685,1.3504-.0468,2.0077-.1448.7643-.114,1.5392-.0843,2.299-.2513.4946-.1087,1.015-.1119,1.5251-.1351,1.3139-.0596,2.6202-.2717,3.9304-.2354.1147.283-.0693.4431-.1748.6116-1.9023,3.0383-3.9305,5.9906-6.0726,8.8647-1.8037,2.42-3.6972,4.7692-5.6518,7.0678-1.0646,1.2519-2.182,2.4591-3.2828,3.6799-2.5297,2.8055-5.2232,5.451-7.9521,8.059-1.8113,1.7311-3.6923,3.3877-5.5912,5.0243-2.6543,2.2877-5.3743,4.4934-8.1596,6.6172-1.9273,1.4696-3.8957,2.8858-5.858,4.3089-1.0683.7747-2.162,1.5143-3.2443,2.2697-.1978.1381-.38.3074-.6404.3203-.028-.0257-.0557-.0517-.083-.078Z"/>
        <path class="cls-7"
              d="m30.5803,80.1272c-.002.102-.004.2039-.006.3059-.3025.2529-.6811.2282-1.0414.293.26-.3674.6435-.5012,1.0474-.5989Z"/>
        <path class="cls-6"
              d="m22.0032,125.7637c.0629.0635.1258.127.1887.1904-.2957.3294-.6943.452-1.1577.6449q.2586-.4654.969-.8354Z"/>
        <path class="cls-6"
              d="m93.0318,183.5191c.0618.0621.1235.1241.1853.1862-.2611.2941-.5639.5021-.9804.4765l-.0059-.0058c.1773-.3284.4865-.4959.801-.6569Z"/>
        <path class="cls-8"
              d="m24.4319,65.7217c-.0048.0701-.0097.1403-.0145.2104-.1304.1892-.2918.3048-.5914.2144.1244-.2788.3865-.3249.6059-.4248Z"/>
        <path class="cls-2"
              d="m17.4437,148.5551c.1484-.2652.4191-.3519.6739-.4617-.0016.0724-.0033.1449-.005.2173-.1437.2366-.3727.2881-.6254.288l-.0436-.0437Z"/>
        <path class="cls-8"
              d="m38.5051,156.906c-.0957.1429-.229.2136-.4453.2456-.007-.3672.2756-.366.4641-.4584-.0063.0709-.0125.1419-.0188.2128Z"/>
        <path class="cls-1"
              d="m38.5051,156.906c.0063-.0709.0125-.1419.0188-.2128.0968-.0137.1937-.0274.2905-.0411l.0219.022c-.049.165-.2213.1539-.3312.2319Z"/>
        <path class="cls-8"
              d="m37.699,157.317c-.0473.0977-.1058.1697-.2307.097.025-.1401.1401-.089.2218-.1058l.0089.0089Z"/>
        <path class="cls-1"
              d="m83.0397,171.9108c-.0798.118-.1738.1611-.2974.059.053-.1039.1481-.1096.2433-.1151l.0541.056Z"/>
        <path class="cls-9"
              d="m20.3828,126.9268c-.0667.1328-.1907.1358-.3147.1388l-.0276-.0277c.057-.1339.1681-.1631.2988-.1546l.0435.0434Z"/>
        <path class="cls-2"
              d="m17.4873,148.5988c-.037.0528-.0637.1415-.1416.0415-.0014-.0019.0638-.0556.0979-.0852l.0436.0437Z"/>
        <polygon class="cls-2" points="17.0312 148.8124 17.0765 148.7994 17.0707 148.8379 17.0312 148.8124"/>
        <path class="cls-1"
              d="m38.8144,156.6521c.0132-.0817.0459-.1339.1421-.0918.0255.1066-.0606.0964-.1202.1138l-.0219-.022Z"/>
        <path class="cls-8"
              d="m37.69,157.3081c.026-.0376.0521-.0752.0781-.1128.1115.1171-.0256.0928-.0692.1216l-.0089-.0089Z"/>
        <path class="cls-9"
              d="m20.0681,127.0656c-.0272.0318-.0544.0635-.0816.0953-.101-.0932.0178-.09.054-.123l.0276.0277Z"/>
        <path class="cls-1"
              d="m83.2293,171.7716c-.0632.0464-.1264.0928-.1896.1391l-.0541-.056c.0188-.0883.0773-.1371.1606-.1611.0273.0263.055.0523.083.078Z"/>
        <path class="cls-6"
              d="m92.2367,184.1817c-.0214.0379-.0428.0759-.0642.1138-.1166-.1062.0163-.0907.0583-.1196l.0059.0058Z"/>
        <path class="cls-6"
              d="m20.3393,126.8834c.0347-.0501.0579-.1195.1438-.0842.0252.0885-.0576.0925-.1003.1277l-.0435-.0434Z"/>
        <path class="cls-6"
              d="m20.7952,126.5946c.0146.0165.031.035.0475.0536-.0198.0149-.0467.0467-.0583.0419-.0756-.0314-.0725-.0661.0109-.0955Z"/>
        <path class="cls-3"
              d="m18.1126,148.3107c.0017-.0724.0033-.1449.005-.2173.0415.0211.083.0421.1245.0632-.0431.0514-.0863.1027-.1294.1541Z"/>
    </g>
    <g>
        <path class="cls-3"
              d="m216.0927,65.7217c4.0797-2.3606,8.1575-4.7245,12.2397-7.0807,3.3826-1.9524,6.7727-3.8919,10.1554-5.8442,3.2426-1.8715,6.4781-3.7553,9.7202-5.6277,3.0089-1.7377,6.0243-3.4641,9.0334-5.2014,3.6156-2.0874,7.226-4.1838,10.8415-6.2714,3.009-1.7374,6.0236-3.4652,9.033-5.2018,1.843-1.0635,3.6806-2.1362,5.5216-3.2032.233-.135.4716-.2602.6962-.3837.0428,0,.0699-.0021.0965.0006.0262.0026.0546.0046.0773.0162.1677.086.3376.1687.5007.2629,22.4626,12.9703,44.9247,25.9415,67.3862,38.9137.0916.0529.1737.1224.2803.1985v78.8493c-.7152.4227-1.4495.8644-2.1911,1.2936-2.6576,1.538-5.3171,3.0727-7.977,4.6067-2.6133,1.5071-5.2284,3.0112-7.8419,4.518-2.5669,1.4799-5.1331,2.9608-7.699,4.4425-2.3092,1.3334-4.6178,2.6677-6.926,4.0029-4.0336,2.3332-8.0647,4.6706-12.1004,7.0001-3.3826,1.9525-6.7723,3.8927-10.1549,5.8451-3.2425,1.8715-6.4787,3.7539-9.7205,5.6266-.7227.4175-1.4572.8146-2.1863,1.2211-.0618-.0621-.1235-.1241-.1853-.1862.9324-.7731,1.8662-1.5444,2.7967-2.3197,1.1798-.9829,2.3727-1.9508,3.5314-2.958,1.8303-1.5908,3.6554-3.1885,5.449-4.8204,2.5331-2.3047,4.9772-4.7035,7.3839-7.14.7012-.7099,1.4065-1.4159,2.0963-2.1366,2.4787-2.5899,4.8779-5.2512,7.2044-7.9795,3.2362-3.7951,6.2969-7.7253,9.1852-11.7906,2.7007-3.8012,5.2367-7.7101,7.6013-11.7283,1.2568-2.1358,2.4534-4.3063,3.6189-6.4942,1.3049-2.4498,2.5134-4.9468,3.7001-7.4545.5163-1.091.9906-2.2018,1.4742-3.2817-.0735-.0755-.1052-.1383-.142-.1415-.7445-.0643-1.4892-.1194-2.2335-.1942-2.6001-.2611-5.2112-.3355-7.8248-.3788-.9397-.0155-1.8857-.1169-2.8232-.0588-1.7499.1084-3.5021.0574-5.2508.1395-1.7473.082-3.4975.1603-5.2364.3379-.7421.0758-1.5111-.0026-2.2324.2667-.0481.018-.1069.0088-.1608.0098-1.3693.0245-2.7281.1993-4.0835.3585-1.4374.1689-2.8776.3315-4.3078.5815-.8158.1426-1.651.2124-2.472.3507-2.5924.4369-5.1899.847-7.7727,1.335-2.3231.4389-4.6346.9439-6.9419,1.461-3.8822.87-7.7405,1.8411-11.5733,2.9065-2.7197.7559-5.4289,1.553-8.1264,2.3846-2.8788.8874-5.7503,1.8022-8.604,2.7669-5.1239,1.7322-10.1979,3.6028-15.2378,5.5683-4.8909,1.9074-9.7326,3.9313-14.5398,6.0374-2.7128,1.1885-5.3968,2.4429-8.0902,3.6754-3.4543,1.5806-6.8559,3.2699-10.2522,4.9704-.2099.1051-.4031.261-.689.2557.0201-.3348.3181-.3932.5054-.5191,1.565-1.0519,3.1499-2.0742,4.7117-3.1307,5.6015-3.7892,11.0925-7.7327,16.4894-11.8084,3.6981-2.7928,7.3393-5.6578,10.9332-8.5821,2.1732-1.7683,4.2997-3.594,6.441-5.4012,2.6155-2.2075,5.1542-4.5025,7.7033-6.7856.7628-.6832,1.5085-1.3859,2.2566-2.0854,3.94-3.684,7.7752-7.4754,11.5114-11.3648,2.3335-2.4291,4.6052-4.9181,6.8213-7.4556,3.9006-4.4664,7.6313-9.0711,11.1103-13.874,3.1304-4.3218,6.0584-8.7771,8.7201-13.4068,1.7068-2.9688,3.2708-6.0094,4.7507-9.0953.2304-.4805.4649-.9612.6246-1.5418-.6175-.085-1.1884-.2344-1.7566-.2248-.7872.0133-1.5367-.2202-2.3131-.2437-.2141-.0065-.427-.065-.6409-.0682-2.3386-.0355-4.6624-.3129-7-.4043-3.8556-.1508-7.7082-.1198-11.561-.051-1.2624.0226-2.5365.0256-3.791.1646-.9598.1064-1.9343.0128-2.8848.2577-.3288.0847-.7061-.0346-1.0462.025-1.2464.2184-2.5137.1562-3.7641.3198-1.8085.2366-3.6273.399-5.4313.6639-2.7321.4012-5.4639.8166-8.1799,1.3131-2.6426.4831-5.2711,1.0447-7.8897,1.6529-3.1167.7239-6.2145,1.5195-9.2915,2.3911-2.3541.6668-4.6879,1.407-7.0211,2.1451-4.6192,1.4613-9.1737,3.1056-13.6802,4.8836-.1246.0492-.2588.074-.3885.1102.0048-.0701.0097-.1403.0145-.2104Z"/>
        <path class="cls-1"
              d="m213.664,125.7637c1.899-1.3258,3.8092-2.636,5.6941-3.9815,2.3462-1.6747,4.621-3.4443,6.8548-5.2662,2.8197-2.2997,5.5533-4.6962,8.2118-7.1819,1.9901-1.8608,3.9293-3.7715,5.8007-5.7484,2.6125-2.7597,5.111-5.6225,7.3906-8.6664,1.9072-2.5467,3.6954-5.1739,5.0585-8.0633.6099-1.2927,1.0851-2.6271,1.3395-4.0462.3758-2.0964-.4236-3.3946-1.9857-4.3758-1.2263-.7703-2.6051-1.1377-4.0167-1.3948-.6368-.116-1.2948-.0858-1.9208-.1848-1.6388-.2592-3.2758-.1493-4.9113-.1177-1.4772.0285-2.9456.2242-4.4127.421-1.6528.2217-3.2906.514-4.9264.8323-2.482.483-4.9291,1.1038-7.3602,1.7921-.7497.2123-1.4969.4335-2.2452.6507.002-.102.004-.2039.006-.3059,2.2663-1.128,4.5746-2.1666,6.8892-3.189,2.486-1.0982,4.9934-2.1481,7.5285-3.1287,4.3663-1.6888,8.7746-3.254,13.2664-4.5842,2.7587-.8169,5.5268-1.5923,8.325-2.2609,2.7965-.6682,5.6021-1.2917,8.4401-1.7614,1.5066-.2494,3.0041-.5809,4.5199-.7393,1.4667-.1533,2.9083-.4771,4.3848-.5613.6418-.0366,1.2882-.0866,1.9261-.1555.5301-.0572,1.0626-.1108,1.5941-.1687,1.4184-.1545,2.8403-.2464,4.2656-.2973.6988-.0249,1.4007.0119,2.0949-.1192.1492-.0282.3115.0131.4694.0225.0298.3043-.1572.4787-.2883.6738-2.5242,3.7559-5.0993,7.4763-7.8639,11.0605-1.5958,2.0689-3.2653,4.0781-4.9828,6.0491-2.3584,2.7065-4.8754,5.2573-7.4826,7.7186-1.841,1.738-3.7573,3.3949-5.7239,4.9919-2.049,1.6638-4.0857,3.3428-6.1387,5.0016-2.8493,2.3023-5.7578,4.5284-8.6833,6.733-3.1835,2.3991-6.4008,4.7514-9.6591,7.0476-3.2805,2.3119-6.602,4.5634-9.9706,6.745-3.4592,2.2403-6.9715,4.3934-10.5755,6.3943-.2346.1302-.4821.2371-.7236.3548-.0629-.0635-.1258-.127-.1887-.1904Z"/>
        <path class="cls-1"
              d="m274.8071,171.6936c.1253-.2486.3548-.4018.5467-.5876,1.6665-1.6132,3.331-3.23,4.9078-4.9306,2.6776-2.8879,5.19-5.9115,7.3262-9.2306,1.3739-2.1346,2.5992-4.3451,3.3616-6.7824.2326-.7436.4943-1.4888.3865-2.2895-.035-.2602.141-.4583.1683-.748-.1191-.3928-.1403-.8409-.1662-1.2962-.0496-.872-.4754-1.5794-1.1587-2.1317-.8174-.6607-1.7865-.9842-2.7779-1.2475-.4386-.1165-.9125-.1243-1.3449-.2203-.6831-.1515-1.3907-.0186-2.0559-.2628-.1687-.0619-.374-.0313-.5625-.0307-1.4561.0046-2.9141-.0299-4.3675.0357-.798.036-1.6117.0407-2.3954.2605-.0764.0214-.1598.0318-.2388.0274-1.0591-.0587-2.0884.1788-3.1248.3262-4.5249.6435-8.9791,1.6248-13.3882,2.8226-3.4274.9311-6.8186,1.9774-10.1689,3.1548-3.5047,1.2317-6.9646,2.5783-10.3775,4.0473-2.6972,1.1609-5.3552,2.4042-7.9899,3.6991-.1591.0782-.3133.207-.5281.1718-.0611-.2367.1217-.2785.2407-.3484,1.6025-.9412,3.1929-1.9043,4.8145-2.8116,3.7623-2.1052,7.5894-4.0887,11.4684-5.9696,3.4406-1.6683,6.9042-3.2879,10.3973-4.8453,3.0246-1.3485,6.0579-2.6759,9.1136-3.9517,3.3525-1.3998,6.7214-2.7596,10.1132-4.0621,3.2403-1.2443,6.482-2.484,9.7777-3.5776,4.241-1.4072,8.5512-2.5445,12.9347-3.4136,2.215-.4392,4.438-.8175,6.6748-1.1274,1.7844-.2472,3.5693-.4764,5.3618-.6591.6715-.0685,1.3504-.0468,2.0077-.1448.7643-.114,1.5392-.0843,2.299-.2513.4946-.1087,1.015-.1119,1.5251-.1351,1.3139-.0596,2.6202-.2717,3.9304-.2354.1147.283-.0693.4431-.1748.6116-1.9023,3.0383-3.9305,5.9906-6.0726,8.8647-1.8037,2.42-3.6972,4.7692-5.6518,7.0678-1.0646,1.2519-2.182,2.4591-3.2828,3.6799-2.5297,2.8055-5.2232,5.451-7.9521,8.059-1.8113,1.7311-3.6923,3.3877-5.5912,5.0243-2.6543,2.2877-5.3743,4.4934-8.1596,6.6172-1.9273,1.4696-3.8957,2.8858-5.858,4.3089-1.0683.7747-2.162,1.5143-3.2443,2.2697-.1978.1381-.38.3074-.6404.3203-.028-.0257-.0557-.0517-.083-.078Z"/>
    </g>
</svg>
