<?xml version="1.0" encoding="UTF-8"?>
<svg id="Layer_1" data-name="Layer 1" xmlns="http://www.w3.org/2000/svg" viewBox="0 0 362.5807 211.7743">
    <defs>
        <style>
            .cls-1 {
            fill: #0093c8;
            }

            .cls-1, .cls-2, .cls-3, .cls-4, .cls-5, .cls-6, .cls-7 {
            stroke-width: 0px;
            }

            .cls-2 {
            fill: #151717;
            }

            .cls-3 {
            fill: #161717;
            }

            .cls-4 {
            fill: #ad9d7e;
            }

            .cls-5 {
            fill: #0092c8;
            }

            .cls-6 {
            fill: #151617;
            }

            .cls-7 {
            fill: #151616;
            }
        </style>
    </defs>
    <g>
        <path class="cls-1"
              d="m353.7371,101.0132c-2.5562-3.0322-5.2212-5.9228-7.9989-8.6018-.0701-.303.0864-.4398.174-.6005,1.2805-2.35,2.3316-4.7895,2.9327-7.4096.3579-1.5601.5254-3.1395.3875-4.731-.2184-2.5222-1.1842-4.7226-2.9321-6.5834-1.6875-1.7965-3.7779-2.9183-6.0486-3.7657-1.3151-.4908-2.672-.8284-4.0479-1.0838-2.8717-.5332-5.774-.6342-8.6808-.4695-.7405.042-1.4934.0701-2.2379.2345-.5649.1247-1.1719.0817-1.7617.1638-3.3311.4634-6.606,1.1762-9.8359,2.1086-1.8616.5374-3.7078,1.1206-5.53,1.7796-.1499.0542-.3217.0638-.4384.2716.2148.1332.4264.281.6523.4022,4.8004,2.5769,9.4256,5.4401,13.9152,8.5237,3.6222,2.4878,7.1335,5.1232,10.5215,7.9229,2.5357,2.0954,4.9904,4.2796,7.3823,6.5385,2.4915,2.353,4.8724,4.8117,7.1274,7.3872,3.6838,4.2072,6.9594,8.7135,9.6998,13.5973,1.651,2.9425,3.0813,5.984,4.1,9.2079.5926,1.8753,1.037,3.7805,1.2823,5.738.2093,1.6693.236,3.3421.0836,5.0015-.1569,1.7073-.515,3.3942-1.1914,4.9911-.6867,1.6214-1.5489,3.1351-2.6713,4.5015-1.6143,1.9652-3.5777,3.495-5.7834,4.733-2.7957,1.5692-5.8003,2.5629-8.9207,3.2378-1.3148.2844-2.6434.4808-3.9756.6665-1.4086.1964-2.8205.2816-4.2395.3456-1.2925.0583-2.587.1697-3.8757.0806-1.531-.1058-3.0714-.0297-4.5953-.2513-.1593-.0232-.3229-.0236-.4845-.0239-1.3213-.0026-2.6095-.3047-3.9171-.4278-.6692-.063-1.3262-.2028-2.0005-.2493-.6343-.0438-1.2563-.2464-1.8884-.362-4.1056-.7509-8.1443-1.7754-12.1106-3.074-1.4828-.4855-2.9411-1.0457-4.411-1.5709-.0776-.0277-.1462-.0601-.1853-.2188,1.5562-.732,3.134-1.4557,4.6951-2.2137,1.5751-.7648,3.1415-1.5486,4.6973-2.3518,1.5547-.8026,3.0917-1.6396,4.6703-2.4795,1.3614.2901,2.7528.5804,4.1397.8908.1599.0358.3124.0456.4713.0592,1.1233.0963,2.2415.2325,3.3465.4628.1042.0217.2124.0379.3183.0359,1.86-.0348,3.7109.249,5.5729.156,1.1831-.0591,2.3777-.0196,3.5483-.1709,3.1048-.4013,6.1493-1.0426,8.9116-2.6324,1.8987-1.0928,3.5353-2.4572,4.6878-4.3501.84-1.3798,1.2989-2.8779,1.5005-4.4786.2995-2.3783-.1314-4.6612-.7941-6.922-.8471-2.8899-2.1937-5.5536-3.7103-8.1383-.3816-.6504-.7897-1.2854-1.1922-1.9234-.1139-.1804-.2511-.3461-.3605-.4951-.2707-.0541-.3714.1344-.5001.2586-1.1053,1.0669-2.1945,2.1507-3.3116,3.205-3.4732,3.2781-7.1609,6.2992-10.9958,9.1433-3.7257,2.763-7.5909,5.3168-11.5759,7.687-5.0519,3.0048-10.2662,5.6992-15.6241,8.1187-6.3123,2.8504-12.7707,5.3154-19.3758,7.3958-4.5693,1.4392-9.1937,2.662-13.9079,3.5381-1.0539.1959-2.1105.4069-3.1652.5709-1.0297.16-2.0828.2421-3.1196.3844-1.9757.2712-3.9657.2871-5.9486.413-1.0177.0646-2.0472.0875-3.0683-.0529-.2393-.0329-.4843-.0316-.7267-.0322-1.2358-.0028-2.4557-.1471-3.6828-.2947-1.739-.2091-3.4376-.5796-5.1165-1.0386-3.1179-.8523-6.0252-2.1674-8.6147-4.1329-3.8185-2.8983-6.2555-6.6939-7.3852-11.3443-.158-.6505-.1943-1.3299-.4625-1.9545-.0201-.0469-.0188-.1066-.0153-.1595.0741-1.1073-.1854-2.2003-.1355-3.3076.0449-.9947.1943-1.9845.1405-2.9838.3575-.9903.4402-2.0431.6977-3.057.9878-3.8887,2.5554-7.5384,4.5027-11.0348.8527-1.531,1.7746-3.0192,2.7568-4.4699.164-.2422.286-.5216.5892-.7428.8615.9867,1.7118,1.986,2.5904,2.9597.8846.9804,1.7868,1.9455,2.7009,2.8985.9137.9526,1.8517,1.8819,2.7759,2.8182.0092.3052-.1839.5139-.307.7437-.8406,1.5695-1.5962,3.177-2.1647,4.8659-.7354,2.1848-1.1821,4.4175-1.0513,6.7391.1479,2.6245,1.0869,4.9092,2.8716,6.8556,1.6868,1.8396,3.8021,2.9795,6.1009,3.8277,1.2125.4474,2.4575.7855,3.7333,1.0116.6799.1205,1.3505.293,2.0257.4401.052.0113.1074.0083.1613.0098,2.0456.0571,4.0886.263,6.1372.1384.9135-.0555,1.8233-.1474,2.7413-.1524.3917-.0021.7868-.1256,1.1852-.1768,3.9254-.5046,7.7741-1.3647,11.5622-2.5096,1.5201-.4594,3.0297-.9478,4.5271-1.4754.1748-.0616.3706-.0784.4944-.2951-.9203-.5096-1.8402-1.0124-2.754-1.5261-5.2427-2.9477-10.2906-6.1976-15.1593-9.7298-3.711-2.6923-7.2915-5.5468-10.7335-8.5726-2.6123-2.2964-5.1289-4.6968-7.5463-7.1994-3.9225-4.0608-7.4971-8.4026-10.5911-13.1312-1.9204-2.9351-3.6529-5.9752-5.0643-9.1906-1.1281-2.57-2.0172-5.2215-2.5691-7.9746-.2162-1.0787-.3128-2.1807-.4307-3.2783-.1428-1.3293-.0584-2.6431.0781-3.9491.2808-2.6863,1.1368-5.191,2.5884-7.487,1.7424-2.7558,4.1222-4.814,6.9315-6.4089,2.8597-1.6236,5.9436-2.6301,9.1445-3.322,1.5496-.335,3.1237-.5048,4.6848-.7609.0531-.0087.1072-.0118.161-.0151,1.1509-.0701,2.301-.156,3.4528-.2052,1.1295-.0482,2.2585-.1778,3.3901-.1058,1.7737.1129,3.5652.0224,5.3195.3088.9852.1609,1.9754.0868,2.9565.2717,1.2933.2438,2.614.3395,3.9117.5639,2.8622.4948,5.6961,1.1244,8.5016,1.882,2.938.7934,5.8235,1.7462,8.6765,2.8011.1483.0548.286.138.4296.2085-.0429.2989-.2966.3153-.474.3968-2.4229,1.1135-4.8361,2.2472-7.2161,3.4503-2.0919,1.0575-4.1594,2.1606-6.2228,3.3206-1.1156-.2175-2.2457-.4505-3.3808-.656-1.6398-.2969-3.2783-.5745-4.9542-.642-.6572-.0265-1.3285-.1308-1.9947-.1863-1.9096-.1589-3.8189-.1685-5.7284.0042-.7234.0654-1.4486.0759-2.1718.1869-2.2027.3383-4.3856.7366-6.4402,1.6481-1.8897.8384-3.6215,1.9091-5.0436,3.4324-1.5753,1.6874-2.4778,3.6894-2.809,5.9679-.3856,2.6524.1065,5.2026.901,7.708.9085,2.865,2.2688,5.5248,3.8291,8.0851.419.6875.8107,1.3949,1.3193,1.9987.2548-.0043.3576-.1814.4865-.3106,1.2754-1.2791,2.57-2.5374,3.8976-3.7631,2.2985-2.1219,4.6803-4.1453,7.1333-6.0846,3.5114-2.7759,7.165-5.3532,10.9364-7.7633,2.9068-1.8576,5.8787-3.6043,8.9082-5.2553,2.7684-1.5087,5.5823-2.9268,8.4332-4.2703,4.0687-1.9174,8.2135-3.6574,12.4243-5.2395,2.6202-.9845,5.2565-1.9227,7.9223-2.7769,4.947-1.5851,9.947-2.9655,15.063-3.8974.9775-.1781,1.9557-.3445,2.9409-.4837.8467-.1196,1.6956-.2515,2.5425-.3846.0797-.0125.1592-.0451.2379-.0425.8877.0287,1.7629-.1422,2.6394-.2225,1.0703-.0981,2.1424-.1194,3.2115-.2056,1.2904-.1041,2.5817-.1103,3.8729.0038.3754.0332.7535.0351,1.1303.0534,4.0357.1962,7.9614.9334,11.7061,2.4802,2.8172,1.1636,5.3573,2.7724,7.4926,4.9709,2.315,2.3835,3.9041,5.1822,4.8446,8.3745.8132,2.7601.97,5.5746.7246,8.4022-.1997,2.3009-.7573,4.5472-1.488,6.7489-1.315,3.9623-3.1896,7.6479-5.4107,11.1678-.4168.6605-.8541,1.3081-1.2903,1.956-.0866.1286-.146.2907-.3891.3802Zm-100.9934,4.8412c.2612.2161.4804.3752.6741.561,1.8091,1.7352,3.6682,3.4155,5.544,5.0782,2.7236,2.4141,5.531,4.7251,8.4278,6.928,3.2922,2.5036,6.7689,4.6968,10.5708,6.3551,3.0716,1.3397,6.2512,2.3183,9.5436,2.9329.1759.0328.3699.0976.548-.0663.0101-.0647.0519-.1519.0294-.2168-.1987-.5741-.1225-1.1653-.1326-1.7526-.0074-.4295-.007-.8613-.119-1.285-.0882-.3336-.2129-.6794-.1977-1.0141.0398-.8776-.1834-1.7122-.3541-2.5515-.5226-2.5703-1.3217-5.0494-2.5923-7.3574-1.8846-3.4232-4.5706-5.9632-8.2255-7.4294-.1406-.0564-.3015-.0887-.4097-.2569.2237-.1056.4394-.2115.6585-.3099.2208-.0992.4487-.1831.667-.2872,3.2246-1.5385,5.623-3.936,7.3273-7.0541,1.145-2.0947,1.9097-4.3297,2.4262-6.6521.1924-.8651.393-1.7372.4693-2.6165.0553-.6373.1756-1.2679.2282-1.9062.0436-.5288.1033-1.0596.114-1.5943.0064-.3183-.0418-.6371.1161-.9497.0743-.147.0986-.3711-.1194-.5256-.112.0053-.2486-.004-.3789.0203-1.9588.3666-3.8898.8508-5.7767,1.4876-4.1062,1.3857-7.9561,3.2963-11.5321,5.7486-4.3868,3.0082-8.4518,6.4181-12.4047,9.9667-.9223.828-1.8435,1.6576-2.7516,2.5009-.7664.7118-1.5133,1.4447-2.3503,2.2463Zm47.7537,21.8811c.1718-.01.3361.0002.4916-.032.7895-.1635,1.5828-.3143,2.3639-.5126,5.1618-1.3099,9.9687-3.4374,14.3902-6.399,4.7102-3.155,9.0266-6.8107,13.2299-10.6027,1.04-.9382,2.0771-1.8801,3.0975-2.8395.5228-.4915,1.0934-.9426,1.5351-1.5753-.2052-.2107-.385-.4082-.5781-.5916-1.7387-1.6511-3.5051-3.2717-5.3004-4.8616-2.7437-2.4299-5.566-4.7622-8.4757-6.9911-3.1973-2.4492-6.5778-4.5889-10.2593-6.241-3.2041-1.4379-6.5266-2.4974-9.9731-3.1684-.1787-.0348-.3674-.0841-.5635.0204-.0882.1351-.0731.2991-.0613.4573.0537.7186.0345,1.435.136,2.1592.209,1.4906.3819,2.9866.6921,4.4601.5519,2.6216,1.4097,5.1361,2.7481,7.4683,1.8725,3.2631,4.5123,5.6654,8.014,7.0912.1503.0612.2894.1495.4928.2561-.2365.0997-.384.1626-.532.2243-1.909.7957-3.6274,1.8777-5.1083,3.335-1.9761,1.9446-3.3645,4.2589-4.3391,6.8331-.8026,2.1196-1.3316,4.3087-1.6559,6.5541-.2079,1.4393-.3591,2.8809-.4436,4.331-.0107.1835-.0489.3751.099.6247Z"/>
        <path class="cls-5"
              d="m294.1264,59.6189c-6.6894-3.3163-13.7563-5.5372-21.0158-7.1348-.005-.0753-.01-.1019-.0075-.1278.0024-.0257.0048-.057.02-.075,6.9957-8.302,13.9925-16.6032,20.9917-24.9022.0293-.0347.0946-.039.202-.0801,7.028,8.3417,14.0692,16.6992,21.0982,25.0421-.1166.2547-.3172.2655-.4875.3093-7.0453,1.8154-13.9331,4.0985-20.6327,6.9413-.0241.0102-.0529.0091-.1683.0272Z"/>
        <path class="cls-1"
              d="m294.3044,151.9799c6.6976,3.3316,13.777,5.5773,21.1908,7.1858-6.9997,8.3122-13.9334,16.5226-20.8656,24.7342-.1188.1407-.222.3111-.4257.3451-.1478-.0243-.2363-.1259-.3222-.228-6.9542-8.2613-13.908-16.523-20.9313-24.8671,1.5107-.447,2.9444-.7842,4.3563-1.1963,1.4457-.4219,2.8913-.8459,4.3268-1.3011,1.4105-.4473,2.8142-.9178,4.2097-1.4097,1.421-.5009,2.8344-1.0245,4.2401-1.567,1.3804-.5328,2.7468-1.1017,4.2211-1.6958Z"/>
    </g>
    <g>
        <path class="cls-4"
              d="m15.5195,180.5943c-.1706-1.2546-.3336-2.5058-.5124-3.7547-.1941-1.3555-.3582-2.7177-.6211-4.0602-.1707-.8714-.1343-1.7579-.3198-2.6252-.1227-.5738-.1778-1.162-.2959-1.7408-.101-.4951-.0312-1.0203-.1882-1.5148-.024-.0756-.0479-.1512-.0778-.2454-4.4895-2.5933-8.985-5.1901-13.5043-7.8006,0-.2961,0-.5631,0-.8301.0004-34.4602.0003-68.9204.0057-103.3806,0-.5619.0669-1.1239.106-1.7401,4.4691-2.5815,8.9403-5.1641,13.4049-7.743.3808-1.5401.4379-3.0991.6938-4.6282.2615-1.5622.4445-3.1375.6719-4.7056.2233-1.5406.4591-3.0793.7004-4.6922C32.7424,21.2035,49.9384,11.2532,67.136,1.3058c.1122-.0649.2476-.0898.3859-.1381.3458.2627.4912.6553.687.9938,1.1257,1.9457,2.4769,3.7204,4.0293,5.3388.6143.6404,1.2973,1.2154,1.9565,1.8119.1785.1615.3743.3097.725.3924,2.7694-1.5527,5.5697-3.2097,8.387-4.8367,2.7952-1.6142,5.5907-3.2277,8.4318-4.8678,2.7308,1.4906,5.3785,3.0885,8.0622,4.6222,2.6629,1.5218,5.3154,3.0617,8.0047,4.6122,2.8772-2.2288,4.8973-5.0906,6.578-8.1314.2789-.124.4445-.0333.6095.0622,2.4931,1.4439,4.9844,2.8909,7.4799,4.3307,2.6121,1.5072,5.2295,3.0052,7.8422,4.5115,2.9859,1.7215,5.9676,3.45,8.9537,5.171,2.3329,1.3445,4.671,2.68,7.0044,4.0237,2.2168,1.2765,4.43,2.5592,6.6457,3.8375,1.9824,1.1437,3.9666,2.2844,5.9492,3.4277,1.9828,1.1433,3.9646,2.2881,5.9468,3.4325.698.403,1.3957.8068,2.1392,1.2366.6536,4.4367,1.2212,8.8805,1.8802,13.3519,4.8585,2.8053,9.706,5.6043,14.5202,8.3841.0363.0609.0517.0834.0636.1075.0117.0237.027.0487.0285.0739.0094.1611.0217.3225.0217.4837.0009,35.0796.0009,70.1592.0009,105.3037-2.3862,1.4364-4.8258,2.8006-7.2427,4.203-2.422,1.4053-4.8494,2.8013-7.2519,4.1883-.3375.5878-.2617,1.2324-.3753,1.8338-.1886.9987-.2696,2.0143-.4902,3.0138-.1185.5372-.0865,1.1182-.1759,1.6783-.097.6081-.207,1.2145-.3008,1.821-.0937.6058-.1155,1.2272-.2054,1.8392-.1326.9037-.2381,1.8113-.3647,2.7159-.022.1576-.0917.3084-.1675.5534-17.2577,9.988-34.5671,20.006-51.8906,30.032-.434-.4248-.6538-.9526-.9357-1.4302-1.255-2.126-2.7712-4.0402-4.565-5.7336-.4095-.3865-.8512-.7388-1.2214-1.058-.251-.0664-.3962-.0026-.5392.0802-2.8893,1.673-5.7773,3.3482-8.6691,5.017-2.2156,1.2786-4.4355,2.5497-6.6549,3.8215-.2083.1194-.427.2205-.6947.3576-5.5351-3.1489-11.039-6.3661-16.5288-9.5019-.407.093-.6338.329-.8727.5439-2.3636,2.1259-4.3523,4.5523-5.8827,7.3456-.0646.1179-.1333.2339-.2052.3476-.0712.1126-.1488.2212-.2118.314-.0544.0104-.0796.0188-.1048.019-.026.0002-.0562-.0004-.0776-.0127-17.3562-10.004-34.7119-20.0089-52.0666-30.0156-.0683-.0394-.122-.1043-.2544-.22Zm-12.2853-23.4912c23.854,13.773,47.6873,27.5341,71.584,41.3318,5.0267-3.401,10.612-5.1898,16.7427-5.1698,6.1566.02,11.7564,1.8354,16.8229,5.3445,24.01-13.8553,47.9894-27.6931,71.9669-41.5297V54.6894c-24.0733-13.8949-48.1436-27.7881-72.2488-41.7014-1.9788,1.3743-4.0513,2.5648-6.2935,3.4417-2.21.8643-4.4892,1.4356-6.8368,1.8022-2.3805.3717-4.753.3037-7.1287.0995-2.3648-.2033-4.6515-.793-6.8822-1.5931-2.2626-.8115-4.3703-1.9383-6.3776-3.2522C50.7671,27.2372,26.9996,40.9604,3.2601,54.6675c-.0877.6813-.1126,101.3358-.0258,102.4357Zm15.2045,21.533c.1821.2473.4072.3452.6172.4652.8649.4943,1.7304.9876,2.5931,1.4859,2.6112,1.5082,5.2188,3.0225,7.8321,4.5269,2.7067,1.5582,5.4209,3.1034,8.1274,4.6622,2.963,1.7064,5.9188,3.4253,8.8814,5.1323,3.0095,1.7339,6.0256,3.4563,9.0351,5.1902,3.6394,2.0968,7.2751,4.2,10.9114,6.302.1656.0957.3244.1967.5708.0967,1.4435-2.1633,3.1197-4.1827,5.1383-5.93-.1068-.1002-.1546-.1649-.2184-.202-1.3728-.7992-2.7465-1.5969-4.1219-2.3916-2.0048-1.1584-4.011-2.3144-6.0169-3.4708-1.866-1.0757-3.733-2.1496-5.5984-3.2262-1.9588-1.1306-3.9154-2.2649-5.8743-3.3952-2.2387-1.2917-4.4795-2.5799-6.7183-3.8713-1.9591-1.1301-3.9165-2.2632-5.8753-3.3938-2.2385-1.2921-4.4777-2.5827-6.7165-3.8742-1.9591-1.1302-3.9187-2.2596-5.8771-3.3911-2.5177-1.4546-5.034-2.9119-7.5534-4.3635-.1254-.0722-.2592-.215-.4376-.0544-.0728.2293-.0284.4735.0033.7087.1463,1.0874.3309,2.17.4586,3.2593.1218,1.039.3177,2.0653.366,3.1193.0409.8934.313,1.7762.4735,2.6155ZM66.4325,5.2773c-8.0193,4.6256-15.9931,9.2623-23.9761,13.8828-8.0125,4.6376-16.0267,9.2722-24.0251,13.9226-.122.8533-.2323,1.6504-.3508,2.4462-.1028.6906-.1611,1.394-.3394,2.0652-.1517.571-.209,1.1548-.2681,1.7256-.1078,1.0417-.2064,2.0774-.4823,3.0912-.0464.1706-.095.3722.1898.5929,18.1823-10.4878,36.4029-20.999,54.7009-31.5603-1.0499-.9736-2.0229-1.8887-2.9073-2.8969-.8868-1.0111-1.6485-2.1159-2.5417-3.2694Zm49.6102,201.2808c16.0178-9.2778,31.9888-18.5285,47.9075-27.7489.1871-.2613.2031-.5008.2359-.7431.1368-1.0105.3224-2.0155.4266-3.029.1154-1.1215.4233-2.2206.3887-3.3581-.0059-.1948.0904-.3622.1225-.5387.0972-.5344.3218-1.0693.1446-1.6287-.0968.007-.1546-.0025-.1997.0171-.1231.0536-.244.1141-.3603.1812-17.8294,10.2976-35.6583,20.596-53.4867,30.8952-.0219.0127-.0408.036-.053.0587-.0124.023-.0147.0515-.0422.158,1.845,1.6743,3.4874,3.5848,4.9162,5.7364Zm-.4068-201.3819c-.8215,1.007-1.497,2.0417-2.2842,2.9913-.8009.9663-1.7577,1.7884-2.6074,2.8035,18.1662,10.4746,36.2598,20.9073,54.3555,31.3365.0357.0206.1019-.0118.2275-.0303-.3273-2.9544-.8493-5.8854-1.176-8.8407-.0176-.1588-.0844-.3123-.2135-.4352-16.0838-9.2653-32.1743-18.5346-48.3018-27.8251Zm-37.716,195.0519c4.7252,2.7233,9.2888,5.3534,13.8614,7.9888,4.4475-2.5744,8.8476-5.1211,13.2457-7.6713.0628-.0364.0995-.1176.1471-.1765-.745-.7658-3.5733-2.1184-5.9189-2.8305-4.4422-1.3486-8.9375-1.5333-13.4643-.5216-2.7377.6119-5.3295,1.6173-7.8711,3.2112ZM105.0596,11.2422c-4.4821-2.5893-8.8747-5.1271-13.2244-7.64-1.1172.5134-13.5054,7.721-13.9975,8.1344,7.3931,4.7981,18.7994,5.0986,27.222-.4944Z"/>
        <path class="cls-7"
              d="m3.2343,157.1031c-.0868-1.0998-.0619-101.7544.0258-102.4357,23.7396-13.7071,47.507-27.4303,71.3229-41.1815,2.0073,1.3139,4.115,2.4408,6.3776,3.2522,2.2308.8001,4.5174,1.3898,6.8822,1.5931,2.3757.2042,4.7482.2723,7.1287-.0995,2.3476-.3666,4.6268-.9379,6.8368-1.8022,2.2422-.8769,4.3147-2.0673,6.2935-3.4417,24.1053,13.9134,48.1755,27.8065,72.2488,41.7014v102.3906c-23.9774,13.8366-47.9569,27.6743-71.9669,41.5297-5.0664-3.5091-10.6662-5.3245-16.8229-5.3445-6.1308-.0199-11.716,1.7688-16.7427,5.1698-23.8967-13.7977-47.7301-27.5588-71.584-41.3318Zm147.6388-56.0899c.2431-.0895.3025-.2516.3891-.3802.4361-.648.8735-1.2956,1.2903-1.956,2.2211-3.5198,4.0957-7.2055,5.4107-11.1678.7307-2.2017,1.2883-4.448,1.488-6.7489.2454-2.8276.0886-5.6421-.7246-8.4022-.9406-3.1923-2.5296-5.991-4.8446-8.3745-2.1353-2.1985-4.6755-3.8073-7.4926-4.9709-3.7447-1.5467-7.6705-2.284-11.7061-2.4802-.3768-.0183-.7549-.0202-1.1303-.0534-1.2913-.1142-2.5825-.108-3.8729-.0038-1.0691.0863-2.1411.1076-3.2115.2056-.8766.0803-1.7517.2513-2.6394.2225-.0788-.0026-.1582.03-.2379.0425-.8469.1331-1.6959.2649-2.5425.3846-.9851.1392-1.9634.3057-2.9409.4837-5.116.9319-10.116,2.3123-15.063,3.8974-2.6658.8542-5.3021,1.7924-7.9223,2.7769-4.2107,1.5822-8.3555,3.3221-12.4243,5.2395-2.8509,1.3435-5.6648,2.7616-8.4332,4.2703-3.0295,1.6509-6.0014,3.3977-8.9082,5.2553-3.7714,2.4101-7.425,4.9874-10.9364,7.7633-2.4531,1.9392-4.8348,3.9626-7.1333,6.0846-1.3276,1.2256-2.6223,2.484-3.8976,3.7631-.1288.1292-.2316.3063-.4865.3106-.5087-.6038-.9003-1.3112-1.3193-1.9987-1.5603-2.5603-2.9206-5.2201-3.8291-8.0851-.7945-2.5054-1.2865-5.0556-.901-7.708.3312-2.2785,1.2338-4.2805,2.809-5.9679,1.4221-1.5234,3.154-2.5941,5.0436-3.4324,2.0546-.9115,4.2374-1.3098,6.4402-1.6481.7232-.1111,1.4483-.1215,2.1718-.1869,1.9096-.1726,3.8189-.163,5.7284-.0042.6663.0554,1.3375.1598,1.9947.1863,1.676.0675,3.3145.3451,4.9542.642,1.1351.2055,2.2652.4385,3.3808.656,2.0634-1.16,4.1309-2.2632,6.2228-3.3206,2.38-1.2031,4.7932-2.3368,7.2161-3.4503.1774-.0815.4311-.0979.474-.3968-.1436-.0705-.2814-.1536-.4296-.2085-2.853-1.0549-5.7385-2.0077-8.6765-2.8011-2.8055-.7576-5.6393-1.3872-8.5016-1.882-1.2977-.2244-2.6184-.3201-3.9117-.5639-.9811-.185-1.9713-.1109-2.9565-.2717-1.7543-.2865-3.5458-.1959-5.3195-.3088-1.1316-.072-2.2606.0576-3.3901.1058-1.1518.0491-2.3019.135-3.4528.2052-.0538.0033-.1079.0064-.161.0151-1.5611.256-3.1352.4259-4.6848.7609-3.2008.692-6.2848,1.6984-9.1445,3.322-2.8092,1.595-5.1891,3.6531-6.9315,6.4089-1.4516,2.2959-2.3076,4.8007-2.5884,7.487-.1365,1.306-.2209,2.6198-.0781,3.9491.1179,1.0976.2145,2.1996.4307,3.2783.5518,2.7531,1.441,5.4046,2.5691,7.9746,1.4114,3.2154,3.1438,6.2555,5.0643,9.1906,3.094,4.7286,6.6686,9.0704,10.5911,13.1312,2.4174,2.5026,4.934,4.903,7.5463,7.1994,3.442,3.0258,7.0225,5.8803,10.7335,8.5726,4.8687,3.5323,9.9166,6.7821,15.1593,9.7298.9138.5138,1.8337,1.0165,2.754,1.5261-.1239.2166-.3196.2335-.4944.2951-1.4974.5275-3.0069,1.0159-4.5271,1.4754-3.7881,1.1448-7.6368,2.0049-11.5622,2.5096-.3984.0512-.7935.1747-1.1852.1768-.918.0049-1.8278.0968-2.7413.1524-2.0486.1246-4.0916-.0813-6.1372-.1384-.0539-.0015-.1092.0016-.1613-.0098-.6752-.1471-1.3458-.3196-2.0257-.4401-1.2758-.2261-2.5208-.5642-3.7333-1.0116-2.2988-.8482-4.4141-1.9881-6.1009-3.8277-1.7847-1.9464-2.7237-4.2311-2.8716-6.8556-.1308-2.3216.3159-4.5543,1.0513-6.7391.5685-1.689,1.3241-3.2964,2.1647-4.8659.1231-.2298.3162-.4386.307-.7437-.9242-.9363-1.8622-1.8656-2.7759-2.8182-.9141-.953-1.8162-1.9182-2.7009-2.8985-.8786-.9737-1.7289-1.973-2.5904-2.9597-.3032.2212-.4252.5006-.5892.7428-.9822,1.4506-1.9041,2.9388-2.7568,4.4699-1.9473,3.4964-3.5148,7.1461-4.5027,11.0348-.2576,1.0139-.3402,2.0668-.6977,3.057.0538.9992-.0956,1.9891-.1405,2.9838-.05,1.1073.2095,2.2003.1355,3.3076-.0035.0529-.0049.1126.0153.1595.2682.6246.3045,1.304.4625,1.9545,1.1297,4.6504,3.5668,8.4461,7.3852,11.3443,2.5895,1.9655,5.4968,3.2806,8.6147,4.1329,1.6788.4589,3.3775.8294,5.1165,1.0386,1.2272.1476,2.4471.2919,3.6828.2947.2424.0005.4875-.0008.7267.0322,1.0211.1405,2.0505.1176,3.0683.0529,1.983-.1259,3.973-.1418,5.9486-.413,1.0367-.1423,2.0899-.2243,3.1196-.3844,1.0547-.164,2.1113-.375,3.1652-.5709,4.7141-.8761,9.3386-2.0989,13.9079-3.5381,6.6051-2.0804,13.0635-4.5453,19.3758-7.3958,5.3579-2.4195,10.5722-5.1139,15.6241-8.1187,3.9851-2.3702,7.8503-4.924,11.5759-7.687,3.835-2.8441,7.5226-5.8652,10.9958-9.1433,1.1171-1.0543,2.2063-2.1381,3.3116-3.205.1287-.1242.2293-.3127.5001-.2586.1094.149.2466.3146.3605.4951.4025.6379.8106,1.273,1.1922,1.9234,1.5166,2.5846,2.8632,5.2484,3.7103,8.1383.6627,2.2608,1.0936,4.5437.7941,6.922-.2016,1.6007-.6605,3.0989-1.5005,4.4786-1.1525,1.8929-2.7891,3.2573-4.6878,4.3501-2.7623,1.5898-5.8068,2.2311-8.9116,2.6324-1.1705.1513-2.3652.1118-3.5483.1709-1.862.093-3.7128-.1908-5.5729-.156-.1059.002-.2141-.0142-.3183-.0359-1.1051-.2303-2.2233-.3665-3.3465-.4628-.1589-.0136-.3114-.0234-.4713-.0592-1.3869-.3104-2.7783-.6007-4.1397-.8908-1.5785.8399-3.1155,1.6769-4.6703,2.4795-1.5559.8032-3.1222,1.587-4.6973,2.3518-1.5611.758-3.1389,1.4817-4.6951,2.2137.0391.1587.1077.1911.1853.2188,1.4699.5252,2.9282,1.0854,4.411,1.5709,3.9662,1.2986,8.005,2.3231,12.1106,3.074.6321.1156,1.254.3182,1.8884.362.6743.0466,1.3312.1864,2.0005.2493,1.3076.1231,2.5958.4252,3.9171.4278.1616.0003.3252.0007.4845.0239,1.5239.2216,3.0643.1455,4.5953.2513,1.2887.0891,2.5832-.0224,3.8757-.0806,1.419-.064,2.831-.1492,4.2395-.3456,1.3322-.1857,2.6607-.3821,3.9756-.6665,3.1204-.675,6.125-1.6686,8.9207-3.2378,2.2057-1.238,4.1691-2.7678,5.7834-4.733,1.1224-1.3664,1.9846-2.8801,2.6713-4.5015.6764-1.5969,1.0345-3.2838,1.1914-4.9911.1525-1.6594.1257-3.3322-.0836-5.0015-.2454-1.9576-.6897-3.8627-1.2823-5.738-1.0188-3.2239-2.449-6.2654-4.1-9.2079-2.7404-4.8838-6.0161-9.3902-9.6998-13.5973-2.255-2.5755-4.6359-5.0342-7.1274-7.3872-2.392-2.259-4.8467-4.4431-7.3823-6.5385-3.3879-2.7998-6.8993-5.4352-10.5215-7.9229-4.4896-3.0836-9.1148-5.9468-13.9152-8.5237-.2259-.1213-.4376-.269-.6523-.4022.1167-.2078.2886-.2174.4384-.2716,1.8222-.6589,3.6684-1.2422,5.53-1.7796,3.2299-.9324,6.5049-1.6452,9.8359-2.1086.5899-.0821,1.1968-.0391,1.7617-.1638.7445-.1644,1.4974-.1926,2.2379-.2345,2.9068-.1647,5.8091-.0637,8.6808.4695,1.3759.2554,2.7328.593,4.0479,1.0838,2.2707.8474,4.3611,1.9692,6.0486,3.7657,1.7479,1.8608,2.7136,4.0612,2.9321,6.5834.1379,1.5915-.0297,3.1709-.3875,4.731-.6011,2.6201-1.6521,5.0596-2.9327,7.4096-.0876.1607-.2441.2975-.174.6005,2.7777,2.6789,5.4428,5.5695,7.9989,8.6018Zm-59.6108-41.3943c.1154-.0181.1443-.017.1683-.0272,6.6996-2.8428,13.5874-5.1259,20.6327-6.9413.1703-.0439.3709-.0546.4875-.3093-7.029-8.3429-14.0702-16.7004-21.0982-25.0421-.1075.0411-.1728.0454-.202.0801-6.9992,8.2991-13.996,16.6002-20.9917,24.9022-.0152.018-.0176.0493-.02.075-.0024.0259.0026.0525.0075.1278,7.2595,1.5976,14.3265,3.8184,21.0158,7.1348Zm.178,92.361c-1.4743.5941-2.8407,1.1631-4.2211,1.6958-1.4056.5425-2.8191,1.0662-4.2401,1.567-1.3956.4919-2.7993.9624-4.2097,1.4097-1.4354.4552-2.881.8792-4.3268,1.3011-1.4119.4121-2.8455.7493-4.3563,1.1963,7.0233,8.3442,13.9771,16.6058,20.9313,24.8671.0859.102.1744.2037.3222.228.2037-.034.3069-.2044.4257-.3451,6.9322-8.2117,13.8659-16.422,20.8656-24.7342-7.4138-1.6085-14.4932-3.8541-21.1908-7.1858Z"/>
        <path class="cls-3"
              d="m77.9199,200.2282c2.5415-1.5939,5.1333-2.5993,7.8711-3.2112,4.5268-1.0117,9.0221-.827,13.4643.5216,2.3456.7121,5.174,2.0647,5.9189,2.8305-.0477.0589-.0844.1401-.1471.1765-4.3981,2.5502-8.7982,5.0969-13.2457,7.6713-4.5726-2.6353-9.1362-5.2655-13.8614-7.9888Z"/>
        <path class="cls-3"
              d="m105.0596,11.2422c-8.4226,5.593-19.8288,5.2925-27.222.4944.4922-.4134,12.8804-7.621,13.9975-8.1344,4.3497,2.5129,8.7424,5.0506,13.2244,7.64Z"/>
        <path class="cls-1"
              d="m150.873,101.0132c-2.5562-3.0322-5.2212-5.9228-7.9989-8.6018-.0701-.303.0864-.4398.174-.6005,1.2805-2.35,2.3316-4.7895,2.9327-7.4096.3579-1.5601.5254-3.1395.3875-4.731-.2184-2.5222-1.1842-4.7226-2.9321-6.5834-1.6875-1.7965-3.7779-2.9183-6.0486-3.7657-1.3151-.4908-2.672-.8284-4.0479-1.0838-2.8717-.5332-5.774-.6342-8.6808-.4695-.7405.042-1.4934.0701-2.2379.2345-.5649.1247-1.1719.0817-1.7617.1638-3.3311.4634-6.606,1.1762-9.8359,2.1086-1.8616.5374-3.7078,1.1206-5.53,1.7796-.1499.0542-.3217.0638-.4384.2716.2148.1332.4264.281.6523.4022,4.8004,2.5769,9.4256,5.4401,13.9152,8.5237,3.6222,2.4878,7.1335,5.1232,10.5215,7.9229,2.5357,2.0954,4.9904,4.2796,7.3823,6.5385,2.4915,2.353,4.8724,4.8117,7.1274,7.3872,3.6838,4.2072,6.9594,8.7135,9.6998,13.5973,1.651,2.9425,3.0813,5.984,4.1,9.2079.5926,1.8753,1.037,3.7805,1.2823,5.738.2093,1.6693.236,3.3421.0836,5.0015-.1569,1.7073-.515,3.3942-1.1914,4.9911-.6867,1.6214-1.5489,3.1351-2.6713,4.5015-1.6143,1.9652-3.5777,3.495-5.7834,4.733-2.7957,1.5692-5.8003,2.5629-8.9207,3.2378-1.3148.2844-2.6434.4808-3.9756.6665-1.4086.1964-2.8205.2816-4.2395.3456-1.2925.0583-2.587.1697-3.8757.0806-1.531-.1058-3.0714-.0297-4.5953-.2513-.1593-.0232-.3229-.0236-.4845-.0239-1.3213-.0026-2.6095-.3047-3.9171-.4278-.6692-.063-1.3262-.2028-2.0005-.2493-.6343-.0438-1.2563-.2464-1.8884-.362-4.1056-.7509-8.1443-1.7754-12.1106-3.074-1.4828-.4855-2.9411-1.0457-4.411-1.5709-.0776-.0277-.1462-.0601-.1853-.2188,1.5562-.732,3.134-1.4557,4.6951-2.2137,1.5751-.7648,3.1415-1.5486,4.6973-2.3518,1.5547-.8026,3.0917-1.6396,4.6703-2.4795,1.3614.2901,2.7528.5804,4.1397.8908.1599.0358.3124.0456.4713.0592,1.1233.0963,2.2415.2325,3.3465.4628.1042.0217.2124.0379.3183.0359,1.86-.0348,3.7109.249,5.5729.156,1.1831-.0591,2.3777-.0196,3.5483-.1709,3.1048-.4013,6.1493-1.0426,8.9116-2.6324,1.8987-1.0928,3.5353-2.4572,4.6878-4.3501.84-1.3798,1.2989-2.8779,1.5005-4.4786.2995-2.3783-.1314-4.6612-.7941-6.922-.8471-2.8899-2.1937-5.5536-3.7103-8.1383-.3816-.6504-.7897-1.2854-1.1922-1.9234-.1139-.1804-.2511-.3461-.3605-.4951-.2707-.0541-.3714.1344-.5001.2586-1.1053,1.0669-2.1945,2.1507-3.3116,3.205-3.4732,3.2781-7.1609,6.2992-10.9958,9.1433-3.7257,2.763-7.5909,5.3168-11.5759,7.687-5.0519,3.0048-10.2662,5.6992-15.6241,8.1187-6.3123,2.8504-12.7707,5.3154-19.3758,7.3958-4.5693,1.4392-9.1937,2.662-13.9079,3.5381-1.0539.1959-2.1105.4069-3.1652.5709-1.0297.16-2.0828.2421-3.1196.3844-1.9757.2712-3.9657.2871-5.9486.413-1.0177.0646-2.0472.0875-3.0683-.0529-.2393-.0329-.4843-.0316-.7267-.0322-1.2358-.0028-2.4557-.1471-3.6828-.2947-1.739-.2091-3.4376-.5796-5.1165-1.0386-3.1179-.8523-6.0252-2.1674-8.6147-4.1329-3.8185-2.8983-6.2555-6.6939-7.3852-11.3443-.158-.6505-.1943-1.3299-.4625-1.9545-.0201-.0469-.0188-.1066-.0153-.1595.0741-1.1073-.1854-2.2003-.1355-3.3076.0449-.9947.1943-1.9845.1405-2.9838.3575-.9903.4402-2.0431.6977-3.057.9878-3.8887,2.5554-7.5384,4.5027-11.0348.8527-1.531,1.7746-3.0192,2.7568-4.4699.164-.2422.286-.5216.5892-.7428.8615.9867,1.7118,1.986,2.5904,2.9597.8846.9804,1.7868,1.9455,2.7009,2.8985.9137.9526,1.8517,1.8819,2.7759,2.8182.0092.3052-.1839.5139-.307.7437-.8406,1.5695-1.5962,3.177-2.1647,4.8659-.7354,2.1848-1.1821,4.4175-1.0513,6.7391.1479,2.6245,1.0869,4.9092,2.8716,6.8556,1.6868,1.8396,3.8021,2.9795,6.1009,3.8277,1.2125.4474,2.4575.7855,3.7333,1.0116.6799.1205,1.3505.293,2.0257.4401.052.0113.1074.0083.1613.0098,2.0456.0571,4.0886.263,6.1372.1384.9135-.0555,1.8233-.1474,2.7413-.1524.3917-.0021.7868-.1256,1.1852-.1768,3.9254-.5046,7.7741-1.3647,11.5622-2.5096,1.5201-.4594,3.0297-.9478,4.5271-1.4754.1748-.0616.3706-.0784.4944-.2951-.9203-.5096-1.8402-1.0124-2.754-1.5261-5.2427-2.9477-10.2906-6.1976-15.1593-9.7298-3.711-2.6923-7.2915-5.5468-10.7335-8.5726-2.6123-2.2964-5.1289-4.6968-7.5463-7.1994-3.9225-4.0608-7.4971-8.4026-10.5911-13.1312-1.9204-2.9351-3.6529-5.9752-5.0643-9.1906-1.1281-2.57-2.0172-5.2215-2.5691-7.9746-.2162-1.0787-.3128-2.1807-.4307-3.2783-.1428-1.3293-.0584-2.6431.0781-3.9491.2808-2.6863,1.1368-5.191,2.5884-7.487,1.7424-2.7558,4.1222-4.814,6.9315-6.4089,2.8597-1.6236,5.9436-2.6301,9.1445-3.322,1.5496-.335,3.1237-.5048,4.6848-.7609.0531-.0087.1072-.0118.161-.0151,1.1509-.0701,2.301-.156,3.4528-.2052,1.1295-.0482,2.2585-.1778,3.3901-.1058,1.7737.1129,3.5652.0224,5.3195.3088.9852.1609,1.9754.0868,2.9565.2717,1.2933.2438,2.614.3395,3.9117.5639,2.8622.4948,5.6961,1.1244,8.5016,1.882,2.938.7934,5.8235,1.7462,8.6765,2.8011.1483.0548.286.138.4296.2085-.0429.2989-.2966.3153-.474.3968-2.4229,1.1135-4.8361,2.2472-7.2161,3.4503-2.0919,1.0575-4.1594,2.1606-6.2228,3.3206-1.1156-.2175-2.2457-.4505-3.3808-.656-1.6398-.2969-3.2783-.5745-4.9542-.642-.6572-.0265-1.3285-.1308-1.9947-.1863-1.9096-.1589-3.8189-.1685-5.7284.0042-.7234.0654-1.4486.0759-2.1718.1869-2.2027.3383-4.3856.7366-6.4402,1.6481-1.8897.8384-3.6215,1.9091-5.0436,3.4324-1.5753,1.6874-2.4778,3.6894-2.809,5.9679-.3856,2.6524.1065,5.2026.901,7.708.9085,2.865,2.2688,5.5248,3.8291,8.0851.419.6875.8107,1.3949,1.3193,1.9987.2548-.0043.3576-.1814.4865-.3106,1.2754-1.2791,2.57-2.5374,3.8976-3.7631,2.2985-2.1219,4.6803-4.1453,7.1333-6.0846,3.5114-2.7759,7.165-5.3532,10.9364-7.7633,2.9068-1.8576,5.8787-3.6043,8.9082-5.2553,2.7684-1.5087,5.5823-2.9268,8.4332-4.2703,4.0687-1.9174,8.2135-3.6574,12.4243-5.2395,2.6202-.9845,5.2565-1.9227,7.9223-2.7769,4.947-1.5851,9.947-2.9655,15.063-3.8974.9775-.1781,1.9557-.3445,2.9409-.4837.8467-.1196,1.6956-.2515,2.5425-.3846.0797-.0125.1592-.0451.2379-.0425.8877.0287,1.7629-.1422,2.6394-.2225,1.0703-.0981,2.1424-.1194,3.2115-.2056,1.2904-.1041,2.5817-.1103,3.8729.0038.3754.0332.7535.0351,1.1303.0534,4.0357.1962,7.9614.9334,11.7061,2.4802,2.8172,1.1636,5.3573,2.7724,7.4926,4.9709,2.315,2.3835,3.9041,5.1822,4.8446,8.3745.8132,2.7601.97,5.5746.7246,8.4022-.1997,2.3009-.7573,4.5472-1.488,6.7489-1.315,3.9623-3.1896,7.6479-5.4107,11.1678-.4168.6605-.8541,1.3081-1.2903,1.956-.0866.1286-.146.2907-.3891.3802Zm-100.9934,4.8412c.2612.2161.4804.3752.6741.561,1.8091,1.7352,3.6682,3.4155,5.544,5.0782,2.7236,2.4141,5.531,4.7251,8.4278,6.928,3.2922,2.5036,6.7689,4.6968,10.5708,6.3551,3.0716,1.3397,6.2512,2.3183,9.5436,2.9329.1759.0328.3699.0976.548-.0663.0101-.0647.0519-.1519.0294-.2168-.1987-.5741-.1225-1.1653-.1326-1.7526-.0074-.4295-.007-.8613-.119-1.285-.0882-.3336-.2129-.6794-.1977-1.0141.0398-.8776-.1834-1.7122-.3541-2.5515-.5226-2.5703-1.3217-5.0494-2.5923-7.3574-1.8846-3.4232-4.5706-5.9632-8.2255-7.4294-.1406-.0564-.3015-.0887-.4097-.2569.2237-.1056.4394-.2115.6585-.3099.2208-.0992.4487-.1831.667-.2872,3.2246-1.5385,5.623-3.936,7.3273-7.0541,1.145-2.0947,1.9097-4.3297,2.4262-6.6521.1924-.8651.393-1.7372.4693-2.6165.0553-.6373.1756-1.2679.2282-1.9062.0436-.5288.1033-1.0596.114-1.5943.0064-.3183-.0418-.6371.1161-.9497.0743-.147.0986-.3711-.1194-.5256-.112.0053-.2486-.004-.3789.0203-1.9588.3666-3.8898.8508-5.7767,1.4876-4.1062,1.3857-7.9561,3.2963-11.5321,5.7486-4.3868,3.0082-8.4518,6.4181-12.4047,9.9667-.9223.828-1.8435,1.6576-2.7516,2.5009-.7664.7118-1.5133,1.4447-2.3503,2.2463Zm47.7537,21.8811c.1718-.01.3361.0002.4916-.032.7895-.1635,1.5828-.3143,2.3639-.5126,5.1618-1.3099,9.9687-3.4374,14.3902-6.399,4.7102-3.155,9.0266-6.8107,13.2299-10.6027,1.04-.9382,2.0771-1.8801,3.0975-2.8395.5228-.4915,1.0934-.9426,1.5351-1.5753-.2052-.2107-.385-.4082-.5781-.5916-1.7387-1.6511-3.5051-3.2717-5.3004-4.8616-2.7437-2.4299-5.566-4.7622-8.4757-6.9911-3.1973-2.4492-6.5778-4.5889-10.2593-6.241-3.2041-1.4379-6.5266-2.4974-9.9731-3.1684-.1787-.0348-.3674-.0841-.5635.0204-.0882.1351-.0731.2991-.0613.4573.0537.7186.0345,1.435.136,2.1592.209,1.4906.3819,2.9866.6921,4.4601.5519,2.6216,1.4097,5.1361,2.7481,7.4683,1.8725,3.2631,4.5123,5.6654,8.014,7.0912.1503.0612.2894.1495.4928.2561-.2365.0997-.384.1626-.532.2243-1.909.7957-3.6274,1.8777-5.1083,3.335-1.9761,1.9446-3.3645,4.2589-4.3391,6.8331-.8026,2.1196-1.3316,4.3087-1.6559,6.5541-.2079,1.4393-.3591,2.8809-.4436,4.331-.0107.1835-.0489.3751.099.6247Z"/>
        <path class="cls-5"
              d="m91.2623,59.6189c-6.6894-3.3163-13.7563-5.5372-21.0158-7.1348-.005-.0753-.01-.1019-.0075-.1278.0024-.0257.0048-.057.02-.075,6.9957-8.302,13.9925-16.6032,20.9917-24.9022.0293-.0347.0946-.039.202-.0801,7.028,8.3417,14.0692,16.6992,21.0982,25.0421-.1166.2547-.3172.2655-.4875.3093-7.0453,1.8154-13.9331,4.0985-20.6327,6.9413-.0241.0102-.0529.0091-.1683.0272Z"/>
        <path class="cls-1"
              d="m91.4403,151.9799c6.6976,3.3316,13.777,5.5773,21.1908,7.1858-6.9997,8.3122-13.9334,16.5226-20.8656,24.7342-.1188.1407-.222.3111-.4257.3451-.1478-.0243-.2363-.1259-.3222-.228-6.9542-8.2613-13.908-16.523-20.9313-24.8671,1.5107-.447,2.9444-.7842,4.3563-1.1963,1.4457-.4219,2.8913-.8459,4.3268-1.3011,1.4105-.4473,2.8142-.9178,4.2097-1.4097,1.421-.5009,2.8344-1.0245,4.2401-1.567,1.3804-.5328,2.7468-1.1017,4.2211-1.6958Z"/>
        <path class="cls-6"
              d="m49.8796,105.8544c.837-.8015,1.5838-1.5345,2.3503-2.2463.9082-.8434,1.8293-1.673,2.7516-2.5009,3.953-3.5485,8.018-6.9585,12.4047-9.9667,3.576-2.4523,7.4259-4.3629,11.5321-5.7486,1.887-.6368,3.818-1.121,5.7767-1.4876.1303-.0244.2669-.015.3789-.0203.218.1545.1937.3786.1194.5256-.158.3127-.1098.6314-.1161.9497-.0107.5347-.0704,1.0655-.114,1.5943-.0526.6383-.1729,1.2689-.2282,1.9062-.0763.8793-.2769,1.7514-.4693,2.6165-.5164,2.3224-1.2812,4.5574-2.4262,6.6521-1.7043,3.1181-4.1027,5.5156-7.3273,7.0541-.2183.1042-.4462.188-.667.2872-.2191.0984-.4349.2043-.6585.3099.1081.1681.2691.2005.4097.2569,3.6549,1.4662,6.3409,4.0062,8.2255,7.4294,1.2706,2.308,2.0696,4.7871,2.5923,7.3574.1707.8393.3939,1.674.3541,2.5515-.0152.3348.1095.6806.1977,1.0141.112.4237.1116.8554.119,1.285.0101.5873-.0661,1.1784.1326,1.7526.0225.0649-.0193.1521-.0294.2168-.178.164-.3721.0992-.548.0663-3.2925-.6147-6.4721-1.5932-9.5436-2.9329-3.8019-1.6583-7.2785-3.8514-10.5708-6.3551-2.8969-2.203-5.7042-4.514-8.4278-6.928-1.8758-1.6627-3.7349-3.3429-5.544-5.0782-.1937-.1858-.4129-.345-.6741-.561Z"/>
        <path class="cls-2"
              d="m97.6333,127.7354c-.1478-.2496-.1097-.4412-.099-.6247.0844-1.45.2357-2.8917.4436-4.331.3243-2.2455.8533-4.4345,1.6559-6.5541.9747-2.5741,2.3631-4.8885,4.3391-6.8331,1.4809-1.4573,3.1993-2.5393,5.1083-3.335.148-.0617.2955-.1245.532-.2243-.2033-.1066-.3425-.1949-.4928-.2561-3.5018-1.4259-6.1416-3.8282-8.014-7.0912-1.3383-2.3323-2.1962-4.8467-2.7481-7.4683-.3102-1.4735-.4832-2.9695-.6921-4.4601-.1015-.7242-.0823-1.4406-.136-2.1592-.0118-.1582-.0268-.3222.0613-.4573.1961-.1045.3848-.0552.5635-.0204,3.4465.671,6.769,1.7305,9.9731,3.1684,3.6815,1.6521,7.0619,3.7918,10.2593,6.241,2.9097,2.2289,5.732,4.5612,8.4757,6.9911,1.7953,1.5899,3.5616,3.2105,5.3004,4.8616.1931.1834.3729.3809.5781.5916-.4417.6326-1.0124,1.0838-1.5351,1.5753-1.0204.9594-2.0575,1.9013-3.0975,2.8395-4.2033,3.792-8.5197,7.4477-13.2299,10.6027-4.4215,2.9616-9.2284,5.0891-14.3902,6.399-.7811.1982-1.5744.349-2.3639.5126-.1555.0322-.3197.022-.4916.032Z"/>
    </g>
</svg>
