<?xml version="1.0" encoding="UTF-8"?>
<svg id="Layer_1" data-name="Layer 1" xmlns="http://www.w3.org/2000/svg" viewBox="0 0 357.9498 211.1797">
    <defs>
        <style>
            .cls-1 {
            fill: #464b4f;
            }

            .cls-1, .cls-2, .cls-3, .cls-4, .cls-5, .cls-6 {
            stroke-width: 0px;
            }

            .cls-2 {
            fill: #97a3ae;
            }

            .cls-3 {
            fill: #161717;
            }

            .cls-4 {
            fill: #ad9d7e;
            }

            .cls-5 {
            fill: #7f8992;
            }

            .cls-6 {
            fill: #151616;
            }
        </style>
    </defs>
    <g>
        <path class="cls-4"
              d="m.0513,52.7303c4.5265-2.6139,8.966-5.1775,13.429-7.7548.3949-1.4936.4359-3.0508.695-4.5737.265-1.5576.4459-3.1294.6716-4.6937.2218-1.5372.4538-3.073.682-4.6141.0097-.0192.0195-.0443.0341-.0663.0148-.0222.0303-.0482.0522-.0609C32.72,21.0599,49.8253,11.1539,66.931,1.2486c.0694-.0402.1428-.0748.2178-.1031.0493-.0186.1044-.024.1575-.0298.025-.0027.0515.0075.1598.0258.9554,1.5449,1.9156,3.155,3.1253,4.5977,1.194,1.424,2.4898,2.7324,3.9277,3.8463.4667-.0251.7694-.2687,1.0888-.4529,3.0014-1.731,5.9975-3.4711,8.9954-5.2082,2.1612-1.2523,4.3227-2.504,6.4845-3.7552.1148-.0665.2342-.1251.3047-.1625.3217-.0421.5184.1222.7236.2388,1.261.7164,2.5175,1.441,3.7738,2.1657,1.9544,1.1273,3.9074,2.2573,5.8613,3.3854,1.6282.9401,3.256,1.8809,4.8864,2.817.2994.1719.5859.3759.9765.4731,2.8043-2.207,4.8395-5.0475,6.502-8.0921.3295-.085.5051.0426.6922.1509,3.8822,2.2468,7.7635,4.4951,11.6496,6.7352,3.3742,1.9451,6.756,3.8769,10.1307,5.8211,2.9556,1.7028,5.9045,3.4172,8.8592,5.1215,2.6059,1.5031,5.2174,2.9965,7.8235,4.4992,2.9783,1.7173,5.9527,3.4413,8.9302,5.16,1.233.7117,2.47,1.4164,3.7042,2.1261.1853.1066.3651.223.5173.3164.185.2931.2612.578.2566.8771-.0162,1.0525.3336,2.0533.4242,3.0906.1001,1.1473.4245,2.2704.3911,3.4306-.0082.2856.147.5085.1809.7757.1451,1.1426.3112,2.2825.4754,3.4226.0837.5813.1796,1.1608.2766,1.7837,4.8404,2.7948,9.6758,5.5867,14.4933,8.3683.1113.6407.178,103.8344.0687,105.7239-4.7748,2.7946-9.6281,5.5516-14.469,8.3707-.2009.6033-.2644,1.2374-.3831,1.863-.1789.9426-.0925,1.9237-.4319,2.8401-.036.0972-.044.2109-.0395.3159.029.678-.1436,1.3213-.2815,1.9775-.1027.4887-.1544,1.0041-.1845,1.5004-.088,1.4498-.43,2.8629-.545,4.3063-.0145.1821-.1053.358-.1802.5994-17.2337,9.9741-34.5,19.9671-51.8188,29.9904-1.7834-3.1876-3.8613-6.068-6.7852-8.3408-1.8544.9755-3.6301,2.0761-5.4476,3.1006-1.8015,1.0155-3.5865,2.0605-5.3781,3.0937-1.8135,1.0457-3.6263,2.0928-5.4838,3.1649-1.8829-.9969-3.6924-2.0946-5.5293-3.1423-1.8664-1.0646-3.72-2.1516-5.5853-3.2181-1.8379-1.0509-3.6583-2.1335-5.5507-3.1794-1.527,1.1903-2.8109,2.5555-4.0039,4.0083-1.1766,1.4327-2.1197,3.0264-3.0735,4.6697-17.4715-10.0722-34.8941-20.1163-52.2931-30.1467-.1298-.9414-.3933-1.7883-.3926-2.6794.0002-.2372-.0813-.4742-.1238-.7115-.2265-1.2625-.3022-2.5452-.5089-3.8103-.0389-.2379-.0647-.4811-.1346-.7103-.2522-.8274-.1392-1.6975-.3211-2.5372-.1294-.5972-.1891-1.2112-.3055-1.8157-.1053-.5467-.0257-1.1264-.2931-1.7589-4.4113-2.548-8.897-5.1389-13.4409-7.7635,0-3.1838,0-6.3802,0-9.5767v-48.0122c0-3.2008,0-6.4015,0-9.6023,0-3.2008,0-6.4015,0-9.6023,0-3.2008.0003-6.4015.0004-9.6023.0001-3.2008-.0072-6.4016.0024-9.6023.0096-3.1976-.0455-6.3962.0431-9.6559ZM107.8322,12.8751c-1.9715,1.3885-4.0228,2.553-6.2324,3.4223-2.2274.8763-4.5268,1.4546-6.8978,1.8161-2.3483.3581-4.6872.2992-7.0309.0997-2.3871-.2032-4.6946-.7957-6.9434-1.6065-2.232-.8048-4.3182-1.9083-6.3186-3.2345C50.6572,27.0865,26.9279,40.7877,3.2154,54.4792v102.1076c.0871.0651.1461.1192.2138.1583,23.595,13.6262,47.1905,27.2515,70.7868,40.8755.0924.0534.1946.0901.2928.1333.0245.0107.0508.0191.0771.0231.0255.0039.0521.0008.1962.0008,4.9727-3.3636,10.5578-5.1068,16.6709-5.0682,6.1102.0386,11.6667,1.8606,16.6676,5.3293,23.9751-13.8353,47.8955-27.6391,71.7792-41.4217V54.4719c-24.0119-13.8595-48.0021-27.7064-72.0677-41.5969Zm-35.8128,187.0862c-.2073-.1312-.2953-.1913-.3873-.2445-1.9294-1.1163-3.8588-2.2325-5.7892-3.3472-2.2095-1.2758-4.4199-2.55-6.63-3.8249-1.9774-1.1407-3.9549-2.2811-5.9321-3.4222-2.582-1.4901-5.1637-2.9808-7.7455-4.4713-2.2561-1.3025-4.5119-2.6055-6.7682-3.9078-2.2329-1.2889-4.4655-2.5783-6.6994-3.8655-2.3039-1.3275-4.6108-2.6497-6.9133-3.9796-2.5349-1.4641-5.0656-2.9355-7.6013-4.3984-.1258-.0726-.2578-.2145-.4612-.0686-.0055.0833-.03.19-.0165.2917.1548,1.1646.2711,2.3345.4698,3.4931.2256,1.316.348,2.6463.5021,3.9704.0809.6953.3085,1.343.3834,2.0222.1839.1189.3366.2272.4981.3204,3.1637,1.8254,6.3286,3.6488,9.4929,5.4731,4.188,2.4145,8.375,4.8308,12.5639,7.2439,4.3053,2.4802,8.6125,4.9571,12.9184,7.4363,4.1197,2.372,8.2389,4.7448,12.3575,7.1187.164.0945.3192.2037.576.1135,1.4462-2.148,3.1049-4.1752,5.1819-5.9535ZM16.9619,42.6989c.2123.107.3484.0291.4914-.0535,1.7677-1.0205,3.5377-2.037,5.3056-3.057,2.2797-1.3152,4.5582-2.6325,6.8371-3.9491,1.9533-1.1285,3.9059-2.2585,5.8599-3.3858,2.2332-1.2884,4.4677-2.5746,6.7015-3.8619,1.9314-1.113,3.8635-2.2248,5.7937-3.3399,2.2092-1.2763,4.4146-2.5591,6.6254-3.8328,2.3271-1.3407,4.6604-2.6706,6.9876-4.0113,2.7228-1.5686,5.4442-3.1395,8.1606-4.719.6399-.3721,1.3043-.71,1.9496-1.1873-1.039-.9441-2.0001-1.8704-2.8876-2.8766-.8857-1.0041-1.6253-2.1203-2.4511-3.1392-.1417.0222-.2324.0128-.2962.0498-15.8759,9.1839-31.75,18.371-47.5586,27.5201-.2869.7219-.2556,1.406-.3922,2.0607-.1364.6539-.1684,1.3289-.2731,1.9904-.0993.6274-.2583,1.2459-.3452,1.8746-.0914.6609-.1355,1.3287-.2069,1.9927-.0702.6521-.3685,1.2738-.3014,1.9251Zm146.635-9.8213c-16.1059-9.2781-32.1562-18.5242-48.1496-27.7374-.2895.0964-.3847.2655-.4872.4193-1.1823,1.7743-2.5583,3.3841-4.1009,4.8541-.1284.1223-.319.218-.2771.5158,18.0149,10.387,36.0638,20.7936,54.1147,31.1967.0351.0202.101-.013.1635-.023.0167-.0739.0581-.1541.0482-.2275-.3898-2.8932-.7835-5.7859-1.1816-8.678-.0141-.1023-.079-.1977-.1301-.32Zm-47.8247,173.0842c15.9985-9.2669,31.9373-18.4992,47.7878-27.6803.1952-.3108.1971-.554.227-.7947.0791-.6383.092-1.2927.2061-1.9145.1675-.9127.2612-1.8354.42-2.7485.1723-.9912.238-2.0016.4593-2.9891.0601-.268.1241-.562-.0136-.8161-.2316-.0293-.3615.0852-.4957.1627-17.8144,10.2892-35.6269,20.5817-53.4387,30.8756-.019.011-.0287.0433-.0361.0677-.0073.0242-.0063.051-.0123.1097.8345.8794,1.751,1.708,2.552,2.6531.8166.9635,1.551,1.9859,2.344,3.0744Zm-10.672-6.1813c-3.0546-1.9252-6.2079-3.0849-9.5756-3.6288-4.3129-.6966-8.5538-.3351-12.6962,1.0804-2.2235.7598-4.3503,1.816-4.9625,2.5004,4.5677,2.6249,9.1094,5.2614,13.6936,7.8857,4.4777-2.5865,8.9335-5.1567,13.5407-7.8377Zm-.3599-188.6179c-1.0885-.7613-12.649-7.3983-13.2333-7.6055-.5687.275-12.9689,7.4256-13.8044,7.9617-.0215.0138-.0423.0368-.0509.0601-.0087.0236-.0019.053-.002.0799,8.0055,5.0442,19.3359,4.7529,27.0906-.4962Z"/>
        <path class="cls-6"
              d="m107.8322,12.8751c24.0656,13.8904,48.0558,27.7374,72.0677,41.5969v102.1453c-23.8838,13.7826-47.8042,27.5864-71.7792,41.4217-5.0009-3.4687-10.5574-5.2907-16.6676-5.3293-6.1132-.0386-11.6982,1.7046-16.6709,5.0682-.1441,0-.1707.0031-.1962-.0008-.0263-.004-.0527-.0124-.0771-.0231-.0982-.0432-.2004-.0799-.2928-.1333-23.5963-13.624-47.1918-27.2492-70.7868-40.8755-.0677-.0391-.1267-.0932-.2138-.1583V54.4792c23.7125-13.6915,47.4418-27.3927,71.1938-41.107,2.0004,1.3262,4.0865,2.4297,6.3186,3.2345,2.2488.8108,4.5564,1.4034,6.9434,1.6065,2.3437.1995,4.6826.2584,7.0309-.0997,2.3709-.3615,4.6703-.9398,6.8978-1.8161,2.2097-.8693,4.2609-2.0338,6.2324-3.4223Zm34.3176,125.6275c.0002.0936.0005.1872.0007.2809-1.839,1.0046-3.6767,2.0117-5.5174,3.0132-3.9187,2.1322-7.8406,4.2584-11.7582,6.3926-6.2776,3.4198-12.5513,6.8468-18.8295,10.2656-4.6024,2.5062-9.2093,5.0044-13.8149,7.5048-.1857.1008-.3458.2611-.6553.2657-16.9032-9.2023-33.8647-18.4364-50.8261-27.6705,5.7851,1.1058,11.529,2.3162,17.2669,3.5547,5.7555,1.2422,11.5211,2.4373,17.2894,3.7366.1334-.3225-.061-.574-.1806-.8307-1.6107-3.4581-3.2138-6.9197-4.8453-10.368-.7681-1.6234-1.4374-3.2954-2.3438-4.8522-.3046-1.1167-.9248-2.0948-1.3952-3.1377-1.1156-2.4736-2.287-4.9222-3.4337-7.3818-.2666-.5718-.5249-1.1474-.7892-1.726.173-.0861.3018-.0562.4084.0319.1448.1196.277.2547.4124.3855,2.6698,2.5772,5.3403,5.1537,8.0085,7.7325,3.2871,3.177,6.5723,6.3559,9.8583,9.5341,1.9523,1.8883,3.9037,3.7774,5.8585,5.663.1076.1038.1866.2762.4157.2232.007-.1242.0208-.2537.0208-.3831-.0051-37.3866-.0111-74.7731-.0183-112.1597,0-.0254-.0117-.0546-.0273-.0749-.0135-.0176-.0402-.0251-.1314-.0773-8.7936,5.0916-17.6223,10.2037-26.4575,15.3194v57.2211c-2.7246,1.5821-5.4353,3.1561-8.1726,4.7456-.1518-.3218-.0967-.5903-.097-.8482-.0038-3.5504-.0026-7.1009-.0026-10.6513,0-13.3948.0011-26.7897-.0031-40.1845-.0002-.7189-.0457-1.4377-.0697-2.1454-.1171-.0137-.1814-.0429-.2171-.0224-8.7531,5.0473-17.5042,10.0981-26.2632,15.1532v20.2211c1.962,2.2225,3.9346,4.457,5.8748,6.6548v23.6c-1.3628.7818-2.7416,1.559-4.1066,2.3598-1.3612.7986-2.7629,1.5307-4.0598,2.3648v21.6897c.1305.0861.238.1653.353.2317,22.5534,13.0215,45.1074,26.0421,67.662,39.0617.0214.0124.0522.0095.0788.0113.0266.0018.0535.0004.082.0004,1.0939-.5226,67.5417-38.9545,68.0331-39.349.14-1.4291.1384-20.1874-.0025-21.6111-.1373-.2076-.3658-.2997-.5736-.4193-2.3061-1.3273-4.6127-2.6539-6.9182-3.9823-.2064-.1189-.4417-.2037-.5691-.4467v-23.5549c1.9347-2.2062,3.8656-4.4081,5.7842-6.596v-20.2376c-8.7257-5.0427-17.4497-10.0847-26.1757-15.1235-.063-.0364-.1513-.029-.303-.0549-.0039.3388-.0106.6543-.0106.9698-.0005,17.2411-.0005,34.4823-.0005,51.7234,0,.2421.0099.4847-.0041.726-.0084.1438.0739.3276-.1818.4355-2.7049-1.5748-5.4524-3.1398-8.1829-4.7673v-57.1604c-.1614-.1139-.2855-.2166-.4229-.2963-2.1393-1.2398-4.2807-2.476-6.4209-3.7142-5.3274-3.0822-10.6536-6.1667-15.9824-9.2465-1.1389-.6582-2.287-1.3007-3.4308-1.9505-.2114-.1943-.2438-.1912-.3225.0309-.0084.2953-.024.5906-.024.8859-.0011,36.7839-.0011,73.5678-.0006,110.3517,0,.2688.0029.5376.0113.8062.0043.1371.0411.2653.2103.3725.3322-.1326.5823-.4129.8494-.6711,3.1891-3.0828,6.3796-6.1642,9.5681-9.2476,3.4977-3.3825,6.9944-6.7662,10.4901-10.1508,1.0817-1.0473,2.1556-2.1026,3.2411-3.1459.1638-.1574.283-.3953.7242-.4142-2.2505,4.7744-4.4277,9.4926-6.6279,14.2003-2.2045,4.7169-4.4049,9.4357-6.608,14.1556.0701.0742.1269.1191.2631.0897,3.9276-.8477,7.8588-1.679,11.7865-2.5262,3.8729-.8354,7.7413-1.6919,11.6144-2.5266,3.5353-.762,7.0743-1.5072,10.6116-2.2597Zm-46.0039,2.6158l-.0428-.0506c-.0157.0155-.0314.0311-.0471.0466.0218.0171.0437.0342.0655.0513.0081-.0158.0162-.0315.0243-.0473Z"/>
        <path class="cls-3"
              d="m105.1003,199.7805c-4.6073,2.6811-9.063,5.2513-13.5407,7.8377-4.5842-2.6242-9.1259-5.2608-13.6936-7.8857.6123-.6844,2.739-1.7406,4.9625-2.5004,4.1424-1.4155,8.3833-1.777,12.6962-1.0804,3.3677.5439,6.5211,1.7035,9.5756,3.6288Z"/>
        <path class="cls-3"
              d="m104.7404,11.1626c-7.7548,5.2491-19.0851,5.5405-27.0906.4962,0-.0269-.0068-.0562.002-.0799.0086-.0233.0294-.0464.0509-.0601.8355-.5361,13.2358-7.6867,13.8044-7.9617.5843.2071,12.1448,6.8442,13.2333,7.6055Z"/>
        <path class="cls-2"
              d="m96.3629,28.552c1.1438.6497,2.2919,1.2922,3.4308,1.9505,5.3288,3.0798,10.655,6.1642,15.9824,9.2465,2.1402,1.2382,4.2816,2.4744,6.4209,3.7142.1374.0796.2615.1824.4229.2963v57.1604c2.7306,1.6275,5.478,3.1926,8.1829,4.7673.2557-.108.1734-.2918.1818-.4355.0141-.2413.0041-.4839.0041-.726,0-17.2411,0-34.4823.0005-51.7234,0-.3155.0068-.631.0106-.9698.1517.0259.24.0185.303.0549,8.7259,5.0388,17.45,10.0808,26.1757,15.1235v20.2376c-1.9186,2.1879-3.8495,4.3898-5.7842,6.596v23.5549c.1273.243.3627.3278.5691.4467,2.3055,1.3284,4.6121,2.655,6.9182,3.9823.2078.1196.4363.2117.5736.4193.1409,1.4237.1425,20.182.0025,21.6111-.4914.3945-66.9392,38.8264-68.0331,39.349-.0285,0-.0554.0014-.082-.0004-.0266-.0018-.0574.0011-.0788-.0113-22.5546-13.0196-45.1085-26.0402-67.662-39.0617-.1149-.0664-.2225-.1456-.353-.2317v-21.6897c1.2969-.8341,2.6986-1.5661,4.0598-2.3648,1.365-.8008,2.7438-1.578,4.1066-2.3598v-23.6c-1.9402-2.1978-3.9128-4.4323-5.8748-6.6548v-20.2211c8.7589-5.0552,17.5101-10.1059,26.2632-15.1532.0356-.0205.0999.0087.2171.0224.024.7076.0695,1.4265.0697,2.1454.0043,13.3948.0031,26.7897.0031,40.1845,0,3.5504-.0012,7.1009.0026,10.6513.0003.2579-.0549.5264.097.8482,2.7374-1.5895,5.4481-3.1635,8.1726-4.7456v-57.2211c8.8351-5.1157,17.6639-10.2277,26.4575-15.3194.0912.0522.1179.0597.1314.0773.0156.0203.0273.0495.0273.0749.0071,37.3866.0132,74.7731.0183,112.1597,0,.1294-.0138.2589-.0208.3831-.2292.053-.3081-.1194-.4157-.2232-1.9548-1.8857-3.9062-3.7748-5.8585-5.663-3.286-3.1782-6.5712-6.3571-9.8583-9.5341-2.6682-2.5788-5.3387-5.1553-8.0085-7.7325-.1354-.1307-.2676-.2658-.4124-.3855-.1066-.0881-.2354-.118-.4084-.0319.2643.5786.5226,1.1542.7892,1.726,1.1467,2.4596,2.3181,4.9082,3.4337,7.3818.4704,1.043,1.0906,2.0211,1.3952,3.1377.9065,1.5568,1.5757,3.2287,2.3438,4.8522,1.6315,3.4483,3.2346,6.9099,4.8453,10.368.1196.2567.314.5082.1806.8307-5.7682-1.2993-11.5339-2.4944-17.2894-3.7366-5.7379-1.2384-11.4818-2.4489-17.2669-3.5547,16.9615,9.2341,33.9229,18.4681,50.8261,27.6705.3095-.0046.4696-.1649.6553-.2657,4.6056-2.5005,9.2124-4.9986,13.8149-7.5048,6.2782-3.4188,12.5519-6.8458,18.8295-10.2656,3.9176-2.1342,7.8395-4.2604,11.7582-6.3926,1.8407-1.0015,3.6783-2.0086,5.5174-3.0132.3039-.007.4799-.2185.7201-.4002-.305-.1077-.5108.0161-.7208.1194-3.5374.7526-7.0763,1.4978-10.6116,2.2597-3.8731.8347-7.7415,1.6913-11.6144,2.5266-3.9277.8472-7.8589,1.6785-11.7865,2.5262-.1362.0294-.193-.0155-.2631-.0897,2.2031-4.7199,4.4034-9.4387,6.608-14.1556,2.2002-4.7077,4.3774-9.4259,6.6279-14.2003-.4412.0189-.5604.2567-.7242.4142-1.0855,1.0433-2.1594,2.0986-3.2411,3.1459-3.4957,3.3847-6.9923,6.7683-10.4901,10.1508-3.1885,3.0835-6.379,6.1648-9.5681,9.2476-.2671.2582-.5172.5386-.8494.6711-.1691-.1073-.206-.2355-.2103-.3725-.0084-.2686-.0113-.5375-.0113-.8062-.0004-36.7839-.0005-73.5678.0006-110.3517,0-.2953.0157-.5906.024-.8859.1075-.0103.215-.0206.3225-.0309Z"/>
        <path class="cls-1"
              d="m142.1498,138.5026c.21-.1033.4158-.2271.7208-.1194-.2401.1817-.4162.3932-.7201.4002-.0002-.0936-.0005-.1872-.0007-.2809Z"/>
        <path class="cls-5" d="m96.3629,28.552c-.1075.0103-.215.0206-.3225.0309.0788-.2221.1111-.2252.3225-.0309Z"/>
        <path class="cls-5"
              d="m96.146,141.1184c-.0081.0158-.0162.0315-.0243.0473-.0218-.0171-.0437-.0342-.0655-.0513.0157-.0155.0314-.0311.0471-.0466.0143.0169.0285.0337.0428.0506Z"/>
    </g>
    <path class="cls-2"
          d="m294.4508,28.5451c1.1438.6497,2.2919,1.2922,3.4308,1.9505,5.3288,3.0798,10.655,6.1642,15.9824,9.2465,2.1402,1.2382,4.2816,2.4744,6.4209,3.7142.1374.0796.2615.1824.4229.2963v57.1604c2.7306,1.6275,5.478,3.1926,8.1829,4.7673.2557-.108.1734-.2918.1818-.4355.0141-.2413.0041-.4839.0041-.726,0-17.2411,0-34.4823.0005-51.7234,0-.3155.0068-.631.0106-.9698.1517.0259.24.0185.303.0549,8.7259,5.0388,17.45,10.0808,26.1757,15.1235v20.2376c-1.9186,2.1879-3.8495,4.3898-5.7842,6.596v23.5549c.1273.243.3627.3278.5691.4467,2.3055,1.3284,4.6121,2.655,6.9182,3.9823.2078.1196.4363.2117.5736.4193.1409,1.4237.1425,20.182.0025,21.6111-.4914.3945-66.9392,38.8264-68.0331,39.349-.0285,0-.0554.0014-.082-.0004-.0266-.0018-.0574.0011-.0788-.0113-22.5546-13.0196-45.1085-26.0402-67.662-39.0617-.1149-.0664-.2225-.1456-.353-.2317v-21.6897c1.2969-.8341,2.6986-1.5661,4.0598-2.3648,1.365-.8008,2.7438-1.578,4.1066-2.3598v-23.6c-1.9402-2.1978-3.9128-4.4323-5.8748-6.6548v-20.2211c8.7589-5.0552,17.5101-10.1059,26.2632-15.1532.0356-.0205.0999.0087.2171.0224.024.7076.0695,1.4265.0697,2.1454.0043,13.3948.0031,26.7897.0031,40.1845,0,3.5504-.0012,7.1009.0026,10.6513.0003.2579-.0549.5264.097.8482,2.7374-1.5895,5.4481-3.1635,8.1726-4.7456v-57.2211c8.8351-5.1157,17.6639-10.2277,26.4575-15.3194.0912.0522.1179.0597.1314.0773.0156.0203.0273.0495.0273.0749.0071,37.3866.0132,74.7731.0183,112.1597,0,.1294-.0138.2589-.0208.3831-.2292.053-.3081-.1194-.4157-.2232-1.9548-1.8857-3.9062-3.7748-5.8585-5.663-3.286-3.1782-6.5712-6.3571-9.8583-9.5341-2.6682-2.5788-5.3387-5.1553-8.0085-7.7325-.1354-.1307-.2676-.2658-.4124-.3855-.1066-.0881-.2354-.118-.4084-.0319.2643.5786.5226,1.1542.7892,1.726,1.1467,2.4596,2.3181,4.9082,3.4337,7.3818.4704,1.043,1.0906,2.0211,1.3952,3.1377.9065,1.5568,1.5757,3.2287,2.3438,4.8522,1.6315,3.4483,3.2346,6.9099,4.8453,10.368.1196.2567.314.5082.1806.8307-5.7682-1.2993-11.5339-2.4944-17.2894-3.7366-5.7379-1.2384-11.4818-2.4489-17.2669-3.5547,16.9615,9.2341,33.9229,18.4681,50.8261,27.6705.3095-.0046.4696-.1649.6553-.2657,4.6056-2.5005,9.2124-4.9986,13.8149-7.5048,6.2782-3.4188,12.5519-6.8458,18.8295-10.2656,3.9176-2.1342,7.8395-4.2604,11.7582-6.3926,1.8407-1.0015,3.6783-2.0086,5.5174-3.0132.3039-.007.4799-.2185.7201-.4002-.305-.1077-.5108.0161-.7208.1194-3.5374.7526-7.0763,1.4978-10.6116,2.2597-3.8731.8347-7.7415,1.6913-11.6144,2.5266-3.9277.8472-7.8589,1.6785-11.7865,2.5262-.1362.0294-.193-.0155-.2631-.0897,2.2031-4.7199,4.4034-9.4387,6.608-14.1556,2.2002-4.7077,4.3774-9.4259,6.6279-14.2003-.4412.0189-.5604.2567-.7242.4142-1.0855,1.0433-2.1594,2.0986-3.2411,3.1459-3.4957,3.3847-6.9923,6.7683-10.4901,10.1508-3.1885,3.0835-6.379,6.1648-9.5681,9.2476-.2671.2582-.5172.5386-.8494.6711-.1691-.1073-.206-.2355-.2103-.3725-.0084-.2686-.0113-.5375-.0113-.8062-.0004-36.7839-.0005-73.5678.0006-110.3517,0-.2953.0157-.5906.024-.8859.1075-.0103.215-.0206.3225-.0309Z"/>
</svg>
